<svg width="139" height="23" viewBox="0 0 139 23" fill="none" xmlns="http://www.w3.org/2000/svg">
<g clip-path="url(#clip0_884_35726)">
<path d="M35.131 1.02336C35.262 1.00898 35.3785 0.994604 35.5095 0.980225C37.8823 0.994604 40.2551 0.980224 42.6278 1.03774C43.938 1.0665 45.2044 1.39722 46.3253 2.11617C49.1057 3.91356 48.9601 8.15539 46.0778 9.7946C45.6702 10.0247 45.2335 10.2116 44.7386 10.456C44.957 10.5279 45.1171 10.5711 45.2627 10.6142C47.5335 11.2181 48.7127 12.4691 48.931 14.439C49.1639 16.5959 48.1158 18.5658 46.1943 19.5724C45.1608 20.1188 44.0253 20.4064 42.8608 20.4351C40.2987 20.4783 37.7367 20.4495 35.131 20.4495V1.02336ZM37.7658 18.3645C39.2652 18.3645 40.7209 18.3789 42.162 18.3502C42.7443 18.3502 43.312 18.2639 43.8797 18.1201C45.1025 17.7894 45.9614 17.056 46.238 15.7907C46.5 14.5972 46.369 13.4756 45.4082 12.5841C44.7095 11.9371 43.8506 11.6639 42.9335 11.6351C41.2595 11.5632 39.5854 11.5776 37.9259 11.5632C37.8823 11.5632 37.8386 11.592 37.7658 11.6351V18.3645ZM37.7804 3.03643V9.62205C39.3962 9.62205 40.9684 9.72271 42.5259 9.5933C44.4329 9.44951 45.5538 8.29918 45.6411 6.53055C45.7139 5.03512 45.2335 3.79852 43.5304 3.33839C41.6525 2.83513 39.7165 3.12271 37.7804 3.03643Z" fill="black"/>
<path d="M117.072 13.5622C117.116 15.0432 117.378 16.3805 118.353 17.4733C119.43 18.6811 120.871 18.94 122.385 18.6668C123.244 18.5086 124.059 18.1204 124.846 17.7321C125.704 17.3151 125.777 17.2864 126.359 18.0341C126.476 18.1779 126.578 18.336 126.753 18.5517C126.374 18.8681 126.039 19.2275 125.632 19.4576C123.171 20.8092 120.639 21.1256 118.047 19.8458C116.213 18.94 115.267 17.3439 114.889 15.4315C114.408 12.987 114.597 10.6576 116.242 8.61578C118.63 5.68244 123.841 5.7831 125.879 8.80271C126.723 10.0537 126.971 11.4772 126.913 12.9583C126.898 13.4471 126.592 13.5622 126.156 13.5622C123.332 13.5478 120.522 13.5622 117.698 13.5622H117.072ZM124.715 12.0524C124.831 9.838 123.419 8.29944 121.265 8.2563C118.702 8.19878 117.363 10.0106 117.232 12.0524H124.715Z" fill="black"/>
<path d="M81.4513 12.6992C81.3494 11.8365 81.3494 10.9306 81.1019 10.0966C80.7089 8.73058 79.4424 8.11228 77.812 8.47176C77.1278 8.61555 76.4873 8.97503 75.8323 9.26261C75.5702 9.37764 75.3519 9.57895 75.0899 9.72274C74.6095 9.98156 74.2019 9.86653 73.8962 9.4064C73.4013 8.67306 73.4013 8.64431 74.1 8.08352C75.7304 6.78941 77.6082 6.30052 79.6607 6.51621C81.7861 6.73189 83.3 8.2417 83.6348 10.3986C83.7076 10.8443 83.7367 11.3044 83.7367 11.7646C83.7513 14.4678 83.7367 17.1567 83.7367 19.86V20.5502C83.1253 20.4639 82.4266 20.5358 82.0626 20.2339C81.6987 19.9319 81.6696 19.2417 81.4804 18.6809C81.2038 18.8966 80.9272 19.141 80.6361 19.3567C78.8601 20.6796 76.8949 21.1254 74.8133 20.2914C72.4842 19.3711 72.062 16.1646 73.9981 14.6116C75.25 13.6051 76.7494 13.2169 78.2924 13.0012C79.2823 12.8286 80.2867 12.7999 81.4513 12.6992ZM81.3639 14.2522C80.5924 14.2953 79.8937 14.3097 79.2095 14.3959C78.1032 14.5254 77.0114 14.7267 76.0652 15.3306C75.2645 15.8339 74.988 16.6103 75.2209 17.5162C75.4392 18.3646 76.0652 18.8678 76.9823 18.9541C78.6709 19.1123 80.0392 18.494 81.1892 17.3149C81.2911 17.2286 81.3494 17.0992 81.3639 16.9698C81.3639 16.0927 81.3639 15.2155 81.3639 14.2522Z" fill="black"/>
<path d="M62.6874 20.4209C62.6583 20.4353 62.6437 20.4353 62.6146 20.4497C60.9988 20.536 60.9988 20.536 60.6057 18.983C60.5766 18.8968 60.5621 18.7961 60.533 18.6379C60.1836 18.9111 59.8925 19.17 59.5868 19.3856C57.8108 20.6654 55.8747 21.1111 53.7931 20.2771C51.4931 19.3569 51.0564 16.2079 52.9779 14.6262C54.0551 13.7347 55.3652 13.3177 56.719 13.0876C57.9127 12.9007 59.1209 12.8144 60.3728 12.685C60.4019 11.8079 60.4165 10.8876 60.0963 9.9961C59.7323 8.98956 58.9754 8.51505 57.9273 8.4144C56.8501 8.31375 55.8602 8.60133 54.9576 9.17649L54.783 9.29153C53.4437 10.1399 53.2399 10.0968 52.483 8.64447C53.5747 7.58041 54.8557 6.86146 56.3842 6.60263C57.6652 6.38695 58.9463 6.34381 60.1545 6.91898C61.8868 7.72421 62.6583 9.21963 62.7165 11.0026C62.8038 14.1085 62.7456 17.2144 62.7456 20.3203C62.7311 20.349 62.702 20.3778 62.6874 20.4209ZM60.3728 14.2811C60.0235 14.2811 59.7469 14.2667 59.4557 14.2811C58.0437 14.353 56.6317 14.4824 55.3361 15.1438C54.3317 15.6615 53.9532 16.4523 54.1716 17.4301C54.4045 18.4079 55.1032 18.9111 56.2387 18.9686C57.8108 19.0405 59.0918 18.4079 60.1545 17.3151C60.2709 17.2 60.3437 17.0419 60.3583 16.8837C60.3728 16.0497 60.3728 15.2013 60.3728 14.2811Z" fill="black"/>
<path d="M89.7778 8.61571C90.3164 8.18434 90.7677 7.7961 91.2481 7.45101C92.631 6.47323 94.1595 6.27192 95.7898 6.6314C97.624 7.04839 98.9487 8.73075 99.0069 10.902C99.0943 14.0079 99.0506 17.1137 99.0506 20.2196C99.036 20.2915 99.036 20.3634 99.0069 20.4353H96.6341V19.8314C96.6341 17.2719 96.6341 14.6981 96.6341 12.1386C96.6341 11.7216 96.605 11.2902 96.5614 10.8732C96.343 9.11898 94.9601 8.1412 93.1114 8.42878C91.874 8.61571 90.8987 9.27715 90.069 10.1543C89.9379 10.2837 89.9088 10.5569 89.9088 10.7582C89.8943 13.7634 89.9088 16.7687 89.9088 19.7739V20.4209H87.5215V6.70329C88.031 6.70329 88.5259 6.68891 89.0063 6.70329C89.3702 6.71767 89.5449 6.96212 89.5886 7.29284L89.7778 8.61571Z" fill="black"/>
<path d="M113.054 18.5515C112.356 19.3998 111.395 20.0181 110.318 20.2913C108.076 20.9096 105.951 20.809 104.087 19.256C102.865 18.2495 102.253 16.8979 101.977 15.3737C101.627 13.49 101.744 11.6351 102.588 9.89525C103.636 7.70963 105.47 6.64558 107.872 6.48741C109.779 6.37237 111.482 6.86126 112.865 8.2129C112.865 8.27041 112.88 8.31355 112.865 8.32793C111.992 9.55015 112.035 9.69394 110.696 8.90309C108.731 7.76714 105.325 8.06911 104.539 11.592C104.218 13.0011 104.218 14.4103 104.611 15.7907C105.427 18.609 108.44 19.7162 110.871 18.0338C112.036 17.2286 112.094 17.1136 113.054 18.5515Z" fill="black"/>
<path d="M69.1507 20.4359H66.778V0.463379H69.1507V20.4359Z" fill="black"/>
<path d="M130.13 6.68871C130.581 6.68871 130.989 6.68871 131.396 6.68871C131.964 6.70309 132.168 6.87564 132.211 7.43642C132.27 8.05472 132.299 8.67302 132.357 9.46387C132.517 9.20505 132.604 9.06126 132.692 8.91746C133.405 7.76714 134.308 6.81812 135.72 6.53054C136.535 6.37237 137.35 6.38675 138.136 6.73185C138.413 6.84688 138.529 7.00505 138.456 7.32139C138.369 7.69524 138.325 8.08348 138.253 8.47171C138.136 9.04688 137.991 9.10439 137.408 9.01812C136.739 8.91747 136.04 8.81681 135.385 8.90308C133.813 9.13315 132.488 10.7724 132.488 12.3541V20.4207H130.115L130.13 6.68871Z" fill="black"/>
<path fill-rule="evenodd" clip-rule="evenodd" d="M19.5696 13.6052C24.3297 14.2954 27.6633 15.8771 27.6633 17.7033C27.6633 20.1765 21.5784 22.1895 14.0816 22.1895C6.58478 22.1895 0.499969 20.1765 0.499969 17.7033C0.499969 15.8771 3.81896 14.2954 8.59364 13.6052C10.3987 13.9503 12.2474 14.1229 14.0816 14.1229C15.8867 14.1373 17.6772 13.9647 19.4531 13.634L19.5696 13.6052Z" fill="black"/>
<path fill-rule="evenodd" clip-rule="evenodd" d="M17.5025 6.36035C21.8259 6.79666 24.9266 8.02624 24.9266 9.49381C24.9266 11.3183 20.0645 12.7859 14.0525 12.7859C8.04049 12.7859 3.17847 11.3051 3.17847 9.49381C3.17847 8.03946 6.29366 6.79666 10.6025 6.36035C11.738 6.51901 12.888 6.61156 14.038 6.59834C15.1443 6.59834 16.2652 6.51901 17.3715 6.37357L17.5025 6.36035Z" fill="black"/>
<path d="M14.067 5.54099C18.5692 5.54099 22.2189 4.44553 22.2189 3.09422C22.2189 1.74291 18.5692 0.647461 14.067 0.647461C9.56483 0.647461 5.9151 1.74291 5.9151 3.09422C5.9151 4.44553 9.56483 5.54099 14.067 5.54099Z" fill="black"/>
</g>
<defs>
<clipPath id="clip0_884_35726">
<rect width="138" height="22" fill="white" transform="translate(0.5 0.304688)"/>
</clipPath>
</defs>
</svg>
