<svg width="79" height="20" viewBox="0 0 79 20" fill="none" xmlns="http://www.w3.org/2000/svg">
<g clip-path="url(#clip0_981_38523)">
<path d="M12.947 14.6201H7.65918V19.908H12.947V14.6201Z" fill="#7CE8FE"/>
<path d="M16.5989 7.56958H7.65918V12.8574H16.5989H18.2348V7.56958H16.5989Z" fill="#3EC7E3"/>
<path d="M23.5226 0.519043H7.65918V5.8068H23.5226V0.519043Z" fill="#00A2C7"/>
<path d="M5.89713 7.56958H0.609375V12.8573H5.89713V7.56958Z" fill="#3EC7E3"/>
<path d="M28.8096 19.9089H32.909V11.8992H40.7957V8.51923H32.909V3.89902H41.6477V0.519043H28.8096V19.9089Z" fill="black"/>
<path d="M43.667 3.89902H49.6033V19.9089H53.6554V3.89902H59.5917V0.519043H43.667V3.89902Z" fill="black"/>
<path d="M66.0582 0.519043H61.4095L67.3647 10.214L61.2959 19.9089H65.9919L69.9684 13.291H70.1199L74.0963 19.9089H78.8112L72.7614 10.214L78.6787 0.519043H74.0489L70.1199 7.12755H69.9684L66.0582 0.519043Z" fill="black"/>
</g>
<defs>
<clipPath id="clip0_981_38523">
<rect width="78.5379" height="19.6345" fill="white" transform="translate(0.425781 0.335205)"/>
</clipPath>
</defs>
</svg>
