<svg width="497" height="341" viewBox="0 0 497 341" fill="none" xmlns="http://www.w3.org/2000/svg">
<path opacity="0.6" fill-rule="evenodd" clip-rule="evenodd" d="M56.2313 52.0032C66.3769 47.461 74.3198 40.5608 79.575 31.8248C82.4246 27.6787 84.0405 22.5336 85.6308 17.47L85.6802 17.3128C87.202 12.1289 87.8962 6.31321 87.7048 0C82.3384 0.203973 77.052 1.92033 72.1883 4.77595C67.2446 7.55197 63.5513 12.2036 60.245 17.0989C54.082 27.2677 52.0707 40.4463 56.2313 52.0032ZM18.6461 25.5748C12.3763 39.833 12.6388 55.4096 17.1331 66.8122C22.0502 78.4983 30.7896 85.9558 41.6071 88.2841C42.9955 82.1649 42.8041 75.9362 42.4793 69.9862C42.1455 64.0411 40.8551 58.116 38.7904 52.4296C35.2528 41.3952 28.5558 30.9925 18.6461 25.5748ZM1.33908 86.4799C0.845152 90.3802 0.65826 94.2408 0.756156 97.977C0.818453 101.708 1.22784 105.32 2.19345 108.758C3.97337 115.623 6.62101 121.668 10.2432 126.464C17.9146 136.135 28.1848 140.568 39.1536 139.423C38.9686 133.324 37.2319 127.587 35.5846 122.146L35.5846 122.146L35.4158 121.588C33.6091 115.991 30.7746 110.698 27.4773 105.902C21.301 96.4298 12.2055 88.5644 1.33908 86.4799ZM80.3255 164.959C75.3951 173.277 67.4299 181.65 57.1864 186.182C53.1905 174.938 55.2686 162.775 60.9599 154.218C67.0917 145.407 76.4497 140.243 87.4051 138.855C88.1705 143.213 87.2538 147.656 86.2215 151.964C85.1535 156.268 83.0977 160.65 80.3255 164.959ZM0 150.47C1.1258 158.246 2.93688 165.574 6.38548 171.604C9.80294 177.653 13.9635 182.599 18.529 186.116C28.3542 193.006 39.3453 194.036 49.5887 189.499C45.4371 177.783 38.8068 168.151 29.9918 160.958C21.6706 153.799 10.9554 149.082 0 150.47ZM95.2613 200.197C92.3511 209.903 87.087 220.201 78.303 227.803C75.0547 223.012 72.8298 217.729 72.367 212.052C71.833 206.436 71.962 201.182 73.9734 195.948C77.6178 185.62 85.2892 177.79 95.4704 173.059C97.2681 177.004 97.7309 181.392 97.5663 185.984C97.6642 190.411 96.8232 195.217 95.2613 200.197ZM25.7746 229.673C21.2002 224.802 17.3778 218.449 14.3742 211.3C24.5509 206.569 36.0626 207.768 45.9145 212.036C50.6713 214.31 55.9177 216.892 60.1138 220.544C64.2433 224.265 68.4216 228.3 71.8391 233.339C63.2065 240.831 52.0953 243.493 41.1932 239.762C35.8979 237.827 30.616 234.394 25.7746 229.673ZM74.8728 125.475C68.0201 131.938 58.2528 137.485 47.284 138.624C47.1149 132.624 47.5109 126.824 49.856 121.754C52.0853 116.685 55.0712 112.347 58.9024 109.093C67.0189 102.551 77.3113 100.516 88.1778 102.601C87.933 104.809 87.3991 106.909 86.6025 108.934C85.901 110.627 85.0618 112.272 84.2372 113.889C84.0784 114.2 83.9202 114.51 83.7636 114.819C81.6766 118.63 78.495 122.202 74.8728 125.475ZM79.427 86.0588C71.2082 90.1034 60.4263 92.377 49.6088 90.0487C50.9438 84.233 52.8794 78.8203 56.2924 74.6562C59.701 70.4823 63.7548 67.3033 68.1468 65.3382C77.5804 61.6219 88.0152 62.9402 97.9116 68.353C94.414 76.2432 88.1309 82.0291 79.427 86.0588ZM146.519 340.007C143.155 339.718 139.848 338.594 136.489 337.395C138.233 331.544 141.232 326.48 144.908 322.226C146.75 320.092 148.757 318.197 150.897 316.455C153.069 314.6 155.36 312.938 157.737 311.49C162.516 308.476 167.517 306.819 172.799 305.321C178.099 303.71 183.492 303.71 189.143 303.933C188.774 310.073 187.252 315.923 184.565 321.077C181.895 326.072 178.059 330.365 173.231 333.708C170.823 335.38 168.167 336.813 165.315 337.972C162.48 339.002 159.476 339.584 156.322 339.942C153.171 340.28 149.878 340.31 146.519 340.007ZM189.703 294.843C190.077 288.679 189.361 282.814 188.017 277.376C186.677 271.78 184.719 266.606 182.388 262.183C181.217 259.969 179.949 257.949 178.592 256.148C177.257 254.218 175.86 252.342 174.36 250.805C172.861 249.248 171.272 247.94 169.568 246.915C169.145 246.665 168.725 246.402 168.302 246.138L168.301 246.138L168.301 246.138L168.3 246.137L168.299 246.137L168.299 246.137L168.299 246.137C167.012 245.333 165.707 244.518 164.281 244.024C162.537 249.87 161.656 255.74 161.803 261.447C161.879 264.292 162.199 267.128 162.795 269.834C163.418 272.426 164.308 274.924 165.452 277.292C167.752 281.913 171.001 286.535 175.192 289.416C179.384 292.182 184.328 294.644 189.703 294.843ZM104.354 317.857C98.2264 316.359 91.525 314.051 85.9271 309.225C92.2458 299.101 102.227 293.674 112.822 290.922C123.297 288.639 134.328 289.082 144.878 293.42C141.163 305.026 133.091 313.981 122.184 317.111C116.751 318.732 110.472 319.424 104.354 317.857ZM147.663 284.859C151.374 273.267 150.858 261.446 148.744 251.248C147.641 246.188 145.848 242.034 143.876 237.865C141.932 233.858 139.112 231.222 136.126 228.432L136.125 228.431L135.898 228.219C129.601 238.308 126.611 250.024 128.747 260.486C130.554 271.272 137.535 280.704 147.663 284.859ZM59.448 280.053C53.9613 276.705 48.4258 272.128 43.9225 266.084C52.3816 258.447 63.7732 255.885 74.3771 256.8C77.0381 257.034 79.6412 257.532 82.2132 258.218C84.9098 258.76 87.5441 259.532 90.0849 260.546C95.1622 262.596 99.7989 265.686 104.52 269.198C101.254 274.163 97.1957 278.133 92.4433 280.874C87.6331 283.705 82.3289 285.038 76.7577 284.834C71.2133 284.62 65.0503 283.282 59.448 280.053ZM109.344 261.853C112.61 256.888 114.857 251.455 116.33 246.073C117.736 240.774 118.559 235.242 118.808 229.974C119.071 224.685 118.412 220.078 117.402 215.611C116.508 211.014 114.643 207.213 112.076 203.82C103.381 211.676 98.0722 221.566 97.2668 232.536C97.0621 235.262 97.1021 238.058 97.4581 240.809C97.9387 243.416 98.6996 246.018 99.732 248.55C101.77 253.634 104.849 258.53 109.344 261.853ZM471.023 229.669C475.598 224.799 479.42 218.446 482.424 211.297C472.247 206.566 460.735 207.765 450.884 212.033C446.127 214.307 440.88 216.889 436.684 220.54C432.555 224.262 428.376 228.296 424.959 233.336C433.592 240.828 444.703 243.49 455.605 239.759C460.9 237.823 466.182 234.391 471.023 229.669ZM418.495 227.8C409.711 220.198 404.447 209.9 401.537 200.194C399.975 195.214 399.134 190.408 399.232 185.981C399.067 181.389 399.53 177.001 401.328 173.056C411.509 177.787 419.18 185.618 422.825 195.946C424.836 201.179 424.965 206.433 424.431 212.049C423.968 217.726 421.743 223.009 418.495 227.8ZM490.417 171.392C493.865 165.362 495.676 158.034 496.802 150.258C485.847 148.87 475.132 153.586 466.811 160.745C457.995 167.939 451.365 177.57 447.214 189.286C457.457 193.824 468.448 192.794 478.273 185.903C482.839 182.386 486.999 177.441 490.417 171.392ZM439.613 185.984C429.37 181.452 421.405 173.079 416.474 164.761C413.702 160.453 411.646 156.07 410.578 151.767C409.546 147.458 408.629 143.016 409.394 138.658C420.35 140.046 429.708 145.21 435.84 154.02C441.531 162.577 443.609 174.741 439.613 185.984ZM496.048 97.9729C496.146 94.2367 495.959 90.3762 495.466 86.4758C484.599 88.5603 475.504 96.4257 469.327 105.898C466.03 110.694 463.195 115.987 461.389 121.584L461.22 122.142C459.573 127.583 457.836 133.32 457.651 139.419C468.62 140.563 478.89 136.131 486.561 126.459C490.184 121.664 492.831 115.619 494.611 108.754C495.577 105.316 495.986 101.704 496.048 97.9729ZM449.531 138.62C438.562 137.48 428.795 131.933 421.942 125.471C418.32 122.197 415.138 118.625 413.051 114.814C412.982 114.678 412.913 114.542 412.843 114.405C412.759 114.24 412.675 114.075 412.591 113.91L412.587 113.902L412.578 113.884L412.577 113.884L412.577 113.883C411.753 112.267 410.914 110.623 410.212 108.929C409.416 106.904 408.882 104.805 408.637 102.596C419.503 100.511 429.796 102.546 437.912 109.088C441.744 112.342 444.729 116.68 446.959 121.749C449.304 126.819 449.7 132.62 449.531 138.62ZM479.661 66.8092C484.156 55.4066 484.418 39.8301 478.148 25.5719C468.239 30.9896 461.542 41.3922 458.004 52.4267C455.939 58.113 454.649 64.0382 454.315 69.9832C453.99 75.9333 453.799 82.1619 455.187 88.2811C466.005 85.9528 474.744 78.4954 479.661 66.8092ZM447.193 90.0484C436.376 92.3766 425.594 90.1031 417.375 86.0584C408.671 82.0287 402.388 76.2429 398.891 68.3526C408.787 62.9399 419.222 61.6215 428.655 65.3378C433.047 67.3029 437.101 70.4819 440.51 74.6559C443.923 78.8199 445.858 84.2327 447.193 90.0484ZM417.218 31.8248C422.473 40.5608 430.416 47.461 440.562 52.0032C444.723 40.4463 442.711 27.2677 436.548 17.0989C433.242 12.2036 429.549 7.55197 424.605 4.77595C419.741 1.92033 414.455 0.203973 409.088 0C408.897 6.31321 409.591 12.1289 411.113 17.3128L411.162 17.47L411.163 17.4706C412.753 22.5341 414.369 27.6789 417.218 31.8248ZM360.324 337.386C356.964 338.585 353.658 339.71 350.294 339.998C346.934 340.302 343.641 340.272 340.491 339.933C337.336 339.575 334.332 338.993 331.498 337.963C328.645 336.804 325.989 335.371 323.582 333.7C318.754 330.357 314.918 326.063 312.248 321.068C309.56 315.914 308.038 310.064 307.669 303.925C313.32 303.701 318.713 303.701 324.013 305.313C329.295 306.81 334.297 308.467 339.076 311.482C341.452 312.929 343.744 314.591 345.915 316.447C348.056 318.188 350.062 320.083 351.905 322.218C355.58 326.471 358.579 331.536 360.324 337.386ZM308.789 277.369C307.445 282.807 306.729 288.673 307.103 294.836C312.478 294.637 317.422 292.175 321.614 289.409C325.805 286.528 329.054 281.907 331.354 277.285C332.498 274.917 333.388 272.419 334.011 269.827C334.607 267.121 334.927 264.285 335.003 261.44C335.15 255.733 334.269 249.863 332.524 244.017C331.098 244.511 329.793 245.327 328.506 246.13C328.083 246.395 327.661 246.658 327.238 246.908C325.534 247.933 323.945 249.241 322.446 250.798C320.946 252.336 319.549 254.211 318.214 256.141C316.857 257.942 315.588 259.962 314.418 262.176C312.086 266.599 310.129 271.773 308.789 277.369ZM410.859 309.222C405.261 314.048 398.56 316.356 392.432 317.854C386.314 319.421 380.035 318.729 374.602 317.108C363.695 313.978 355.623 305.024 351.908 293.417C362.458 289.079 373.49 288.636 383.964 290.92C394.559 293.671 404.54 299.098 410.859 309.222ZM348.055 251.243C345.941 261.442 345.425 273.263 349.136 284.854C359.264 280.7 366.246 271.268 368.052 260.482C370.188 250.02 367.198 238.304 360.901 228.214L360.674 228.427C357.687 231.218 354.867 233.853 352.923 237.861C350.952 242.03 349.158 246.184 348.055 251.243ZM452.882 266.075C448.379 272.12 442.843 276.697 437.357 280.045C431.755 283.274 425.592 284.612 420.047 284.826C414.476 285.03 409.172 283.697 404.361 280.866C399.609 278.125 395.551 274.155 392.285 269.19C397.006 265.677 401.643 262.588 406.72 260.538C409.261 259.523 411.895 258.752 414.592 258.21C417.164 257.523 419.767 257.026 422.428 256.792C433.032 255.877 444.423 258.439 452.882 266.075ZM380.459 246.071C381.931 251.454 384.179 256.887 387.445 261.852C391.939 258.528 395.018 253.633 397.056 248.549C398.089 246.016 398.85 243.414 399.33 240.808C399.686 238.056 399.726 235.261 399.522 232.534C398.716 221.564 393.408 211.674 384.713 203.819C382.145 207.212 380.281 211.013 379.386 215.609C378.376 220.077 377.717 224.684 377.98 229.972C378.229 235.241 379.052 240.773 380.459 246.071Z" fill="url(#paint0_linear)"/>
<defs>
<linearGradient id="paint0_linear" x1="248.392" y1="-45.2995" x2="248.294" y2="343.977" gradientUnits="userSpaceOnUse">
<stop stop-color="#EDEDED"/>
<stop offset="1" stop-color="#F2F2F2"/>
</linearGradient>
</defs>
</svg>
