<svg width="129" height="32" viewBox="0 0 129 32" fill="none" xmlns="http://www.w3.org/2000/svg">
<g clip-path="url(#clip0)">
<path d="M33.9272 11.3945H46.9448V13.8378H41.8192V27.6107H39.0098V13.8378H33.9058L33.9272 11.3945ZM46.3872 15.8702H48.7891V18.1405H48.832C48.9178 17.8161 49.0679 17.5134 49.2824 17.2107C49.4968 16.908 49.7542 16.627 50.0758 16.3891C50.3761 16.1297 50.7192 15.9351 51.1052 15.7837C51.4698 15.6324 51.8558 15.5459 52.2419 15.5459C52.5421 15.5459 52.7566 15.5675 52.8638 15.5675C52.971 15.5891 53.0997 15.6107 53.2069 15.6107V18.0972C53.0354 18.054 52.8423 18.0324 52.6493 18.0107C52.4563 17.9891 52.2848 17.9675 52.0917 17.9675C51.6628 17.9675 51.2554 18.054 50.8693 18.227C50.4833 18.3999 50.1616 18.6594 49.8614 18.9837C49.5826 19.3297 49.3467 19.7405 49.1751 20.2378C49.0036 20.7351 48.9178 21.3189 48.9178 21.9675V27.5459H46.3443L46.3872 15.8702ZM65.0021 27.6107H62.4715V25.9675H62.4286C62.1069 26.5729 61.6351 27.027 61.0132 27.3945C60.3912 27.7621 59.7479 27.9351 59.1045 27.9351C57.5819 27.9351 56.4667 27.5675 55.7804 26.7891C55.0941 26.0324 54.751 24.8648 54.751 23.3297V15.8702H57.3245V23.0702C57.3245 24.108 57.5175 24.8432 57.925 25.254C58.311 25.6864 58.8686 25.9026 59.5763 25.9026C60.1124 25.9026 60.5628 25.8161 60.9274 25.6432C61.292 25.4702 61.5922 25.254 61.8067 24.9729C62.0426 24.6918 62.1927 24.3459 62.2999 23.9567C62.4071 23.5675 62.45 23.1351 62.45 22.681V15.8702H65.0235V27.6107H65.0021ZM69.377 23.8486C69.4628 24.6053 69.7416 25.1243 70.2348 25.4486C70.7281 25.7513 71.3286 25.9026 72.0148 25.9026C72.2507 25.9026 72.5295 25.881 72.8298 25.8378C73.13 25.7945 73.4302 25.7297 73.6876 25.6216C73.9664 25.5134 74.1808 25.3621 74.3524 25.1459C74.524 24.9297 74.6098 24.6702 74.5883 24.3459C74.5669 24.0216 74.4596 23.7405 74.2237 23.5243C73.9878 23.308 73.709 23.1567 73.3659 23.0053C73.0228 22.8756 72.6153 22.7675 72.1649 22.681C71.7146 22.5945 71.2642 22.4864 70.7924 22.3783C70.3206 22.2702 69.8488 22.1405 69.3984 21.9891C68.9481 21.8378 68.5621 21.6432 68.1975 21.3621C67.8544 21.1026 67.5541 20.7783 67.3611 20.3675C67.1466 19.9567 67.0394 19.481 67.0394 18.8756C67.0394 18.227 67.1895 17.708 67.5112 17.2756C67.8115 16.8432 68.2189 16.4972 68.6907 16.2378C69.1625 15.9783 69.6987 15.7837 70.2777 15.6756C70.8568 15.5675 71.4143 15.5243 71.929 15.5243C72.5295 15.5243 73.1086 15.5891 73.6447 15.7189C74.1808 15.8486 74.6955 16.0432 75.1245 16.3459C75.5748 16.627 75.9394 17.0161 76.2182 17.4702C76.5184 17.9243 76.69 18.4864 76.7758 19.1351H74.0951C73.9664 18.508 73.6876 18.0972 73.2587 17.881C72.8083 17.6648 72.3151 17.5567 71.736 17.5567C71.5645 17.5567 71.3286 17.5783 71.0927 17.5999C70.8353 17.6432 70.6209 17.6864 70.385 17.7729C70.1705 17.8594 69.9775 17.9891 69.8274 18.1405C69.6772 18.2918 69.5915 18.508 69.5915 18.7675C69.5915 19.0918 69.6987 19.3297 69.9131 19.5243C70.1276 19.7188 70.4064 19.8702 70.771 20.0216C71.1141 20.1513 71.5216 20.2594 71.9719 20.3459C72.4223 20.4324 72.8941 20.5405 73.3659 20.6486C73.8377 20.7567 74.2881 20.8864 74.7384 21.0378C75.1888 21.1891 75.5963 21.3837 75.9394 21.6648C76.2825 21.9243 76.5828 22.2486 76.7972 22.6378C77.0117 23.027 77.1189 23.5243 77.1189 24.0864C77.1189 24.7783 76.9688 25.3621 76.6471 25.8594C76.3254 26.3351 75.918 26.7459 75.4247 27.0486C74.9314 27.3513 74.3524 27.5675 73.7519 27.7189C73.13 27.8486 72.5295 27.9351 71.929 27.9351C71.1999 27.9351 70.5136 27.8486 69.8917 27.6756C69.2698 27.5026 68.7122 27.2432 68.2618 26.9189C67.8115 26.5729 67.4469 26.1621 67.1895 25.6432C66.9322 25.1459 66.7821 24.5405 66.7606 23.827H69.3556V23.8486H69.377ZM77.8481 15.8702H79.7996V12.3243H82.3731V15.8486H84.6893V17.7729H82.3731V24.0432C82.3731 24.3243 82.3946 24.5405 82.416 24.7567C82.4375 24.9513 82.5018 25.1243 82.5661 25.254C82.6519 25.3837 82.7806 25.4918 82.9307 25.5567C83.1023 25.6216 83.3167 25.6648 83.617 25.6648C83.7885 25.6648 83.9815 25.6648 84.1531 25.6432C84.3247 25.6216 84.5177 25.5999 84.6893 25.5567V27.5675C84.4105 27.6107 84.1317 27.6324 83.8529 27.654C83.5741 27.6972 83.3167 27.6972 83.0165 27.6972C82.3302 27.6972 81.7941 27.6324 81.3866 27.5026C80.9791 27.3729 80.6575 27.1783 80.4216 26.9405C80.1856 26.681 80.0355 26.3783 79.9497 26.0107C79.864 25.6432 79.8211 25.1891 79.7996 24.7134V17.7945H77.8481V15.827V15.8702ZM86.4907 15.8702H88.9141V17.4702H88.957C89.3215 16.7783 89.8148 16.3026 90.4582 15.9999C91.1015 15.6972 91.7878 15.5459 92.5598 15.5459C93.482 15.5459 94.2755 15.6972 94.9618 16.0432C95.648 16.3675 96.2056 16.7999 96.656 17.3837C97.1063 17.9459 97.4495 18.6162 97.6639 19.3729C97.8784 20.1297 98.007 20.9513 98.007 21.7945C98.007 22.5945 97.8998 23.3513 97.7068 24.0864C97.4924 24.8216 97.1921 25.4918 96.7846 26.054C96.3772 26.6161 95.8625 27.0702 95.2191 27.4161C94.5757 27.7621 93.8466 27.9351 92.9888 27.9351C92.6242 27.9351 92.2382 27.8918 91.8736 27.827C91.509 27.7621 91.1444 27.654 90.8013 27.5026C90.4582 27.3513 90.1365 27.1567 89.8577 26.9189C89.5574 26.681 89.3215 26.3999 89.1285 26.0972H89.0856V31.9567H86.5121V15.8702H86.4907ZM95.4765 21.7513C95.4765 21.2324 95.4121 20.7134 95.262 20.2161C95.1333 19.7189 94.9189 19.2864 94.6401 18.8972C94.3613 18.508 94.0181 18.2053 93.6321 17.9675C93.2247 17.7297 92.7528 17.6216 92.2382 17.6216C91.1659 17.6216 90.3509 17.9891 89.7933 18.7459C89.2572 19.5026 88.9784 20.5189 88.9784 21.7729C88.9784 22.3783 89.0427 22.9188 89.1929 23.4161C89.343 23.9134 89.536 24.3459 89.8362 24.7134C90.115 25.081 90.4582 25.3621 90.8656 25.5783C91.2731 25.7945 91.7235 25.9026 92.2596 25.9026C92.8601 25.9026 93.3319 25.7729 93.7394 25.5351C94.1468 25.2972 94.4685 24.9729 94.7473 24.6053C95.0046 24.2161 95.1977 23.7837 95.3049 23.2864C95.4121 22.7675 95.4765 22.2702 95.4765 21.7513ZM100.002 11.3945H102.575V13.8378H100.002V11.3945ZM100.002 15.8702H102.575V27.6107H100.002V15.8702ZM104.87 11.3945H107.443V27.6107H104.87V11.3945ZM115.292 27.9351C114.37 27.9351 113.534 27.7837 112.805 27.4594C112.075 27.1351 111.475 26.7243 110.96 26.1837C110.467 25.6432 110.081 24.9729 109.824 24.2161C109.566 23.4594 109.416 22.6161 109.416 21.7297C109.416 20.8432 109.545 20.0216 109.824 19.2648C110.081 18.508 110.467 17.8594 110.96 17.2972C111.454 16.7567 112.075 16.3243 112.805 16.0216C113.534 15.7189 114.37 15.5459 115.292 15.5459C116.214 15.5459 117.051 15.6972 117.78 16.0216C118.509 16.3243 119.11 16.7567 119.624 17.2972C120.118 17.8378 120.504 18.508 120.761 19.2648C121.018 20.0216 121.168 20.8432 121.168 21.7297C121.168 22.6378 121.04 23.4594 120.761 24.2161C120.482 24.9729 120.118 25.6216 119.624 26.1837C119.131 26.7243 118.509 27.1567 117.78 27.4594C117.051 27.7621 116.236 27.9351 115.292 27.9351ZM115.292 25.881C115.85 25.881 116.365 25.7513 116.772 25.5134C117.201 25.2756 117.523 24.9513 117.801 24.5621C118.08 24.1729 118.273 23.7189 118.402 23.2432C118.531 22.7459 118.595 22.2486 118.595 21.7297C118.595 21.2324 118.531 20.7351 118.402 20.2378C118.273 19.7405 118.08 19.308 117.801 18.9189C117.523 18.5297 117.18 18.227 116.772 17.9891C116.343 17.7513 115.85 17.6216 115.292 17.6216C114.735 17.6216 114.22 17.7513 113.813 17.9891C113.384 18.227 113.062 18.5513 112.783 18.9189C112.504 19.308 112.311 19.7405 112.183 20.2378C112.054 20.7351 111.99 21.2324 111.99 21.7297C111.99 22.2486 112.054 22.7459 112.183 23.2432C112.311 23.7405 112.504 24.1729 112.783 24.5621C113.062 24.9513 113.405 25.2756 113.813 25.5134C114.241 25.7729 114.735 25.881 115.292 25.881ZM121.94 15.8702H123.892V12.3243H126.466V15.8486H128.782V17.7729H126.466V24.0432C126.466 24.3243 126.487 24.5405 126.508 24.7567C126.53 24.9513 126.594 25.1243 126.659 25.254C126.744 25.3837 126.873 25.4918 127.023 25.5567C127.195 25.6216 127.409 25.6648 127.709 25.6648C127.881 25.6648 128.074 25.6648 128.246 25.6432C128.417 25.6216 128.61 25.5999 128.782 25.5567V27.5675C128.503 27.6107 128.224 27.6324 127.945 27.654C127.666 27.6972 127.409 27.6972 127.109 27.6972C126.423 27.6972 125.886 27.6324 125.479 27.5026C125.072 27.3729 124.75 27.1783 124.514 26.9405C124.278 26.681 124.128 26.3783 124.042 26.0107C123.956 25.6432 123.913 25.1891 123.892 24.7134V17.7945H121.94V15.827V15.8702Z" fill="white"/>
<path d="M30.9247 11.3944H19.151L15.5267 0.10791L11.8809 11.3944L0.107178 11.3728L9.62909 18.3566L5.98331 29.643L15.5052 22.6593L25.0271 29.643L21.4028 18.3566L30.9247 11.3944Z" fill="#00B67A"/>
<path d="M22.2179 20.9083L21.403 18.3569L15.5269 22.6596L22.2179 20.9083Z" fill="#005128"/>
</g>
<defs>
<clipPath id="clip0">
<rect width="128.889" height="32" fill="white"/>
</clipPath>
</defs>
</svg>
