<svg width="217" height="40" viewBox="0 0 217 40" fill="none" xmlns="http://www.w3.org/2000/svg">
<g clip-path="url(#clip0)">
<path d="M15.5715 33.8617C23.6946 33.8617 30.2797 27.2766 30.2797 19.1535C30.2797 11.0304 23.6946 4.44531 15.5715 4.44531C7.44838 4.44531 0.863281 11.0304 0.863281 19.1535C0.863281 27.2766 7.44838 33.8617 15.5715 33.8617Z" fill="white"/>
<path d="M30.2225 23.0613C28.1757 31.271 19.8607 36.2673 11.65 34.2201C3.44271 32.1733 -1.5536 23.8577 0.494158 15.6485C2.53999 7.43787 10.855 2.44109 19.0633 4.48788C27.273 6.53468 32.2688 14.8512 30.2225 23.0613ZM22.1148 17.1709C22.4199 15.1318 20.8673 14.0356 18.7443 13.3043L19.433 10.5421L17.7516 10.123L17.0811 12.8125C16.6391 12.7024 16.1851 12.5984 15.734 12.4955L16.4093 9.78829L14.7288 9.36926L14.0397 12.1306C13.6738 12.0472 13.3146 11.9649 12.966 11.8782L12.9679 11.8696L10.6491 11.2906L10.2018 13.0864C10.2018 13.0864 11.4493 13.3723 11.423 13.3901C12.104 13.5601 12.2271 14.0107 12.2065 14.368L11.4221 17.5148C11.469 17.5267 11.5298 17.544 11.5968 17.5708C11.5408 17.5569 11.481 17.5416 11.4192 17.5267L10.3196 21.935C10.2363 22.1419 10.0251 22.4522 9.54909 22.3344C9.56586 22.3588 8.32696 22.0293 8.32696 22.0293L7.49224 23.954L9.68031 24.4995C10.0874 24.6015 10.4863 24.7082 10.879 24.8088L10.1832 27.6027L11.8626 28.0217L12.5518 25.2575C13.0105 25.3821 13.4559 25.497 13.8917 25.6052L13.205 28.3565L14.8864 28.7755L15.5822 25.9869C18.4493 26.5295 20.6053 26.3106 21.5128 23.7174C22.2441 21.6294 21.4764 20.425 19.9679 19.6396C21.0665 19.3863 21.8936 18.6636 22.1148 17.1709ZM18.2731 22.558C17.7535 24.646 14.238 23.5172 13.0982 23.2342L14.0215 19.5328C15.1613 19.8173 18.8162 20.3805 18.2731 22.558ZM18.7932 17.1408C18.3191 19.0401 15.393 18.0751 14.4439 17.8385L15.281 14.4815C16.2302 14.718 19.2869 15.1596 18.7932 17.1408Z" fill="#FF9500"/>
<path d="M44.8587 13.29C46.1015 13.29 47.1751 13.5127 48.0774 13.9499C48.9839 14.3915 49.732 14.9863 50.332 15.7343C50.9239 16.4862 51.3645 17.3649 51.649 18.3721C51.9315 19.382 52.0733 20.4677 52.0733 21.63C52.0733 23.4153 51.7462 25.102 51.0858 26.6919C50.4254 28.2842 49.5294 29.6653 48.3896 30.8434C47.2508 32.0201 45.9061 32.9477 44.3554 33.633C42.8072 34.3188 41.1238 34.6617 39.3165 34.6617C39.0828 34.6617 38.6719 34.655 38.0915 34.643C37.511 34.631 36.844 34.5711 36.0969 34.4701C35.345 34.3652 34.5501 34.2101 33.7106 34.0022C32.8715 33.7982 32.0746 33.5123 31.3242 33.1493L38.0345 4.95391L44.0446 4.02246L41.642 14.028C42.1563 13.7962 42.6745 13.6166 43.1917 13.4859C43.7094 13.3571 44.2649 13.29 44.8587 13.29ZM39.8174 29.8938C40.7225 29.8938 41.5754 29.6711 42.3766 29.2339C43.1802 28.7961 43.8736 28.2052 44.4545 27.4691C45.0354 26.7297 45.4952 25.8969 45.8304 24.9664C46.1656 24.0359 46.3352 23.0652 46.3352 22.0552C46.3352 20.8144 46.1278 19.8466 45.7145 19.1469C45.3012 18.4501 44.5364 18.0996 43.4259 18.0996C43.0619 18.0996 42.5931 18.169 42.0117 18.293C41.4284 18.4247 40.9064 18.6982 40.4385 19.1096L37.8803 29.7353C38.0345 29.7626 38.171 29.7884 38.2873 29.8128C38.4013 29.8392 38.5273 29.8579 38.6527 29.8708C38.7854 29.8856 38.9372 29.8933 39.1206 29.8933C39.304 29.8933 39.5334 29.8938 39.8174 29.8938Z" fill="#4D4D4D"/>
<path d="M58.1897 34.1652H52.4492L57.2971 13.7658H63.0769L58.1897 34.1652ZM60.9831 11.2803C60.1819 11.2803 59.4554 11.0418 58.8109 10.5639C58.161 10.0888 57.8392 9.35754 57.8392 8.37198C57.8392 7.82987 57.9493 7.32127 58.1677 6.84142C58.3894 6.36253 58.6792 5.95021 59.0422 5.59965C59.4047 5.25198 59.8247 4.97421 60.3017 4.76494C60.7815 4.55901 61.292 4.45605 61.836 4.45605C62.6367 4.45605 63.3594 4.69455 64.0064 5.17248C64.651 5.65281 64.9752 6.38408 64.9752 7.36438C64.9752 7.9084 64.8655 8.4189 64.6452 8.8978C64.4264 9.37669 64.1366 9.78901 63.7736 10.1396C63.414 10.4877 62.9902 10.7645 62.5141 10.9719C62.0338 11.1812 61.5252 11.2803 60.9831 11.2803Z" fill="#4D4D4D"/>
<path d="M68.2172 8.56231L74.2297 7.63086L72.7533 13.6439H79.1925L78.0297 18.3744H71.6293L69.9244 25.5099C69.7673 26.1047 69.6783 26.6602 69.6534 27.1765C69.6251 27.6951 69.6907 28.1405 69.8459 28.5155C70.0001 28.8914 70.2774 29.1811 70.6796 29.3861C71.08 29.5944 71.6532 29.6993 72.4051 29.6993C73.0243 29.6993 73.6277 29.6404 74.211 29.5235C74.791 29.4086 75.3786 29.2486 75.9733 29.0394L76.4015 33.4624C75.6257 33.7469 74.7857 33.9916 73.8806 34.1975C72.974 34.4063 71.9008 34.5069 70.6605 34.5069C68.8771 34.5069 67.4945 34.2421 66.5094 33.7148C65.5258 33.1837 64.8304 32.4582 64.4143 31.5397C64.0039 30.6245 63.8204 29.5695 63.8717 28.3809C63.9248 27.1894 64.1044 25.9371 64.4143 24.6182L68.2172 8.56231Z" fill="#4D4D4D"/>
<path d="M79.0898 25.9087C79.0898 24.1517 79.3743 22.4947 79.9428 20.9436C80.5102 19.391 81.3277 18.0333 82.3885 16.8682C83.4454 15.7088 84.7331 14.7903 86.2488 14.116C87.7574 13.4455 89.4464 13.1074 91.3079 13.1074C92.473 13.1074 93.5137 13.2176 94.4293 13.4383C95.3488 13.661 96.1806 13.9488 96.933 14.3099L94.9532 18.8115C94.436 18.6018 93.8992 18.4169 93.3441 18.2493C92.7886 18.0783 92.1105 17.996 91.3084 17.996C89.3923 17.996 87.8776 18.6564 86.7502 19.9729C85.6272 21.2903 85.0617 23.0636 85.0617 25.2881C85.0617 26.6065 85.3461 27.6725 85.917 28.4881C86.4849 29.3036 87.5342 29.7093 89.0576 29.7093C89.8094 29.7093 90.5349 29.6307 91.2298 29.4775C91.93 29.3223 92.5482 29.1269 93.0927 28.8961L93.5213 33.5107C92.7953 33.7923 91.9946 34.0466 91.1163 34.2693C90.2361 34.4843 89.1883 34.5959 87.9733 34.5959C86.3695 34.5959 85.0119 34.3612 83.9013 33.8991C82.7903 33.4298 81.8722 32.8067 81.1491 32.0175C80.4221 31.2264 79.9001 30.3026 79.5774 29.2423C79.2546 28.183 79.0898 27.0701 79.0898 25.9087Z" fill="#4D4D4D"/>
<path d="M104.494 34.5959C103.124 34.5959 101.934 34.3871 100.924 33.9738C99.9175 33.5605 99.0837 32.9806 98.4243 32.2287C97.7639 31.4807 97.2697 30.5942 96.9311 29.5728C96.5925 28.5518 96.4297 27.4211 96.4297 26.1822C96.4297 24.6282 96.6792 23.0747 97.1835 21.5254C97.6854 19.9729 98.43 18.5778 99.4156 17.338C100.393 16.0962 101.6 15.0809 103.02 14.2893C104.439 13.503 106.071 13.1074 107.904 13.1074C109.25 13.1074 110.434 13.3167 111.457 13.73C112.476 14.1423 113.315 14.727 113.978 15.4751C114.634 16.2269 115.132 17.1095 115.468 18.1325C115.805 19.1516 115.972 20.2851 115.972 21.5249C115.972 23.0742 115.726 24.6277 115.237 26.1817C114.748 27.7281 114.023 29.1264 113.065 30.3692C112.109 31.609 110.914 32.6238 109.478 33.4121C108.044 34.2003 106.382 34.5959 104.494 34.5959ZM107.363 17.9965C106.512 17.9965 105.76 18.2436 105.115 18.7316C104.469 19.2253 103.926 19.8459 103.488 20.5945C103.046 21.3463 102.718 22.1662 102.496 23.0574C102.276 23.9506 102.168 24.7948 102.168 25.597C102.168 26.8914 102.377 27.8995 102.787 28.625C103.204 29.3467 103.951 29.7097 105.038 29.7097C105.892 29.7097 106.64 29.4645 107.288 28.9713C107.931 28.4814 108.474 27.8602 108.915 27.1103C109.355 26.3623 109.686 25.54 109.908 24.6473C110.125 23.7571 110.235 22.908 110.235 22.1073C110.235 20.8162 110.027 19.8057 109.613 19.0812C109.199 18.3595 108.449 17.9965 107.363 17.9965Z" fill="#4D4D4D"/>
<path d="M122.054 34.1652H116.309L121.156 13.7658H126.939L122.054 34.1652ZM124.843 11.2803C124.042 11.2803 123.316 11.0418 122.673 10.5639C122.026 10.0888 121.701 9.35754 121.701 8.37198C121.701 7.82987 121.813 7.32127 122.032 6.84142C122.251 6.36253 122.542 5.95021 122.905 5.59965C123.266 5.25198 123.69 4.97421 124.166 4.76494C124.643 4.55901 125.153 4.45605 125.695 4.45605C126.498 4.45605 127.223 4.69455 127.869 5.17248C128.515 5.65281 128.841 6.38408 128.841 7.36438C128.841 7.9084 128.725 8.4189 128.508 8.8978C128.291 9.37669 127.999 9.78901 127.638 10.1396C127.274 10.4877 126.855 10.7645 126.378 10.9719C125.897 11.1812 125.388 11.2803 124.843 11.2803Z" fill="#4D4D4D"/>
<path d="M131.141 14.7348C131.577 14.6074 132.063 14.4542 132.592 14.2875C133.123 14.1209 133.717 13.9657 134.38 13.8259C135.035 13.6817 135.775 13.5649 136.589 13.4744C137.402 13.3819 138.33 13.3369 139.36 13.3369C142.387 13.3369 144.474 14.2186 145.626 15.9766C146.778 17.7346 146.977 20.1406 146.23 23.1902L143.589 34.2047H137.811L140.37 23.422C140.526 22.7486 140.649 22.0978 140.739 21.4618C140.831 20.8316 140.826 20.2761 140.719 19.7953C140.617 19.3202 140.376 18.9314 140.003 18.6301C139.624 18.3337 139.052 18.1848 138.276 18.1848C137.527 18.1848 136.766 18.2652 135.989 18.4204L132.226 34.2043H126.445L131.141 14.7348Z" fill="#4D4D4D"/>
<path d="M160.359 10.0763C161.273 10.0763 162.119 10.2249 162.896 10.5221C163.697 10.8193 164.382 11.2308 164.954 11.7566C165.548 12.2595 166.005 12.8539 166.325 13.5397C166.646 14.2255 166.806 14.957 166.806 15.7343C166.806 16.603 166.714 17.3802 166.531 18.066C166.348 18.7518 166.04 19.4148 165.605 20.0549C165.171 20.695 164.588 21.3465 163.857 22.0094C163.148 22.6724 162.268 23.4153 161.216 24.2383C160.599 24.7184 159.97 25.1756 159.33 25.6099C158.713 26.0443 158.096 26.4901 157.479 26.9473C156.884 27.4045 156.301 27.896 155.73 28.4218C155.158 28.9247 154.621 29.4962 154.118 30.1363H164.337L163.308 34.3883H147.5C147.706 32.9481 148.06 31.7022 148.563 30.6506C149.066 29.5991 149.683 28.6504 150.415 27.8045C151.169 26.9358 152.015 26.1357 152.952 25.4042C153.889 24.6498 154.907 23.8497 156.004 23.0039C157.033 22.2037 157.901 21.5179 158.61 20.9464C159.342 20.3521 159.925 19.8148 160.359 19.3348C160.816 18.8319 161.148 18.3632 161.353 17.9289C161.559 17.4945 161.662 17.0373 161.662 16.5572C161.662 15.9629 161.445 15.4714 161.01 15.0828C160.599 14.6713 160.062 14.4655 159.399 14.4655C158.462 14.4655 157.547 14.6713 156.656 15.0828C155.764 15.4714 154.792 16.0658 153.741 16.8659L151.992 13.1282C153.364 12.008 154.735 11.2194 156.107 10.7622C157.479 10.3049 158.896 10.0763 160.359 10.0763Z" fill="#FF9500"/>
<path d="M173.88 30.479C174.612 30.479 175.286 30.2618 175.904 29.8275C176.521 29.3931 177.058 28.8216 177.515 28.113C177.995 27.4043 178.407 26.6042 178.75 25.7126C179.115 24.7982 179.413 23.8724 179.641 22.9351C179.87 21.9978 180.041 21.0834 180.156 20.1919C180.27 19.3003 180.327 18.5116 180.327 17.8258C180.327 16.6599 180.144 15.8027 179.778 15.254C179.435 14.7054 178.898 14.4311 178.167 14.4311C177.412 14.4311 176.727 14.6482 176.109 15.0826C175.492 15.5169 174.943 16.0884 174.463 16.7971C173.983 17.5058 173.56 18.3173 173.195 19.2317C172.852 20.1461 172.566 21.072 172.337 22.0093C172.109 22.9465 171.937 23.8609 171.823 24.7525C171.709 25.6441 171.652 26.4327 171.652 27.1185C171.652 28.3073 171.834 29.1645 172.2 29.6903C172.566 30.2161 173.126 30.479 173.88 30.479ZM173.092 34.8682C171.972 34.8682 171.023 34.6739 170.246 34.2853C169.468 33.8738 168.828 33.3366 168.325 32.6736C167.845 32.0107 167.491 31.2677 167.262 30.4447C167.057 29.5989 166.954 28.7302 166.954 27.8386C166.954 25.2326 167.239 22.8437 167.811 20.6719C168.405 18.5002 169.217 16.6257 170.246 15.0483C171.297 13.4709 172.555 12.2479 174.018 11.3792C175.481 10.5105 177.104 10.0762 178.887 10.0762C180.007 10.0762 180.956 10.2819 181.733 10.6934C182.51 11.082 183.139 11.6078 183.619 12.2708C184.122 12.9337 184.476 13.6881 184.682 14.5339C184.911 15.3569 185.025 16.2142 185.025 17.1057C185.025 19.7118 184.728 22.1007 184.133 24.2724C183.562 26.4442 182.75 28.3187 181.699 29.8961C180.67 31.4734 179.424 32.6965 177.961 33.5652C176.498 34.4338 174.875 34.8682 173.092 34.8682Z" fill="#FF9500"/>
<path d="M195.881 10.0762C196.795 10.0762 197.641 10.2248 198.418 10.5219C199.218 10.8191 199.904 11.2306 200.476 11.7564C201.07 12.2593 201.527 12.8537 201.847 13.5395C202.167 14.2253 202.327 14.9569 202.327 15.7341C202.327 16.6028 202.236 17.38 202.053 18.0659C201.87 18.7517 201.562 19.4146 201.127 20.0547C200.693 20.6948 200.11 21.3463 199.378 22.0093C198.67 22.6722 197.79 23.4152 196.738 24.2381C196.121 24.7182 195.492 25.1754 194.852 25.6098C194.235 26.0441 193.618 26.4899 193 26.9471C192.406 27.4043 191.823 27.8958 191.252 28.4216C190.68 28.9245 190.143 29.496 189.64 30.1361H199.859L198.83 34.3881H183.022C183.228 32.9479 183.582 31.702 184.085 30.6505C184.588 29.5989 185.205 28.6502 185.937 27.8044C186.691 26.9357 187.537 26.1355 188.474 25.404C189.411 24.6496 190.429 23.8495 191.526 23.0037C192.555 22.2036 193.423 21.5178 194.132 20.9463C194.864 20.3519 195.446 19.8147 195.881 19.3346C196.338 18.8317 196.67 18.363 196.875 17.9287C197.081 17.4943 197.184 17.0371 197.184 16.5571C197.184 15.9627 196.967 15.4712 196.532 15.0826C196.121 14.6711 195.584 14.4654 194.921 14.4654C193.983 14.4654 193.069 14.6711 192.177 15.0826C191.286 15.4712 190.314 16.0656 189.263 16.8657L187.514 13.128C188.886 12.0079 190.257 11.2192 191.629 10.762C193 10.3048 194.418 10.0762 195.881 10.0762Z" fill="#FF9500"/>
<path d="M203.467 15.5627C204.199 15.2883 204.965 14.9797 205.765 14.6368C206.565 14.271 207.354 13.8824 208.131 13.4709C208.931 13.0366 209.708 12.5908 210.463 12.1336C211.217 11.6535 211.903 11.1506 212.52 10.6248H216.086L210.36 34.3881H205.25L209.365 17.2772C208.565 17.7344 207.696 18.1573 206.759 18.5459C205.822 18.9117 204.93 19.2317 204.085 19.5061L203.467 15.5627Z" fill="#FF9500"/>
</g>
<defs>
<clipPath id="clip0">
<rect width="216.029" height="39.3975" fill="white"/>
</clipPath>
</defs>
</svg>
