<svg width="81" height="35" viewBox="0 0 81 35" fill="none" xmlns="http://www.w3.org/2000/svg">
<path d="M57.1403 7.13987L55.4281 13.8478L43.6895 15.3779L57.1403 7.13987Z" fill="#57BAE5"/>
<path d="M60.3181 34.1988L63.2351 22.0154L59.4514 20.4429L60.3181 34.1988Z" fill="#005472"/>
<path d="M55.4281 13.8411L52.349 20.2161L43.7247 15.3994L55.4281 13.8411Z" fill="#34AFE4"/>
<path d="M60.3181 34.1986L59.4514 20.4427L52.3138 20.1947L60.3181 34.1986Z" fill="#0076A7"/>
<path d="M55.4281 13.8411L59.4866 20.4357L52.349 20.1949L55.4281 13.8411Z" fill="#009DE2"/>
<path d="M57.1403 7.14008L66.8568 8.3655L55.4281 13.8481L57.1403 7.14008Z" fill="#7ACDF2"/>
<path d="M77.4822 4.08704L71.3733 11.2271L71.8031 4.62537L77.4822 4.08704Z" fill="#7ACDF2"/>
<path d="M80.8713 0L77.4822 4.08712L80.1315 4.41295L80.8713 0Z" fill="#7ACDF2"/>
<path d="M74.1917 7.79147L80.1315 4.40561L77.4822 4.07977L74.1917 7.79147Z" fill="#00ABE7"/>
<path d="M63.2351 22.0151L63.524 13.8196L59.4514 20.4426L63.2351 22.0151Z" fill="#0076A7"/>
<path d="M63.524 13.8196L59.4514 20.4426L55.4281 13.848L63.524 13.8196Z" fill="#008DBE"/>
<path d="M66.8568 8.36526L63.524 13.8195L55.4281 13.8478L66.8568 8.36526Z" fill="#57BAE5"/>
<path d="M63.524 13.8196L63.2351 22.0151L70.6898 29.6793L63.524 13.8196Z" fill="#00698D"/>
<path d="M74.5862 25.3942L70.6475 15.5837L70.6898 29.6867L74.5862 25.3942Z" fill="#09A1CB"/>
<path d="M71.3733 11.227L70.6475 15.5833L63.524 13.8195L71.3733 11.227Z" fill="#09A1CB"/>
<path d="M74.9808 17.1348L70.6475 15.5835L71.3521 11.2343L74.9808 17.1348Z" fill="#8BDAFF"/>
<path d="M76.5662 25.1249L71.8454 17.5173H74.544L76.5662 25.1249Z" fill="#7ACDF2"/>
<path d="M67.7446 6.74367L71.3733 11.2275L71.8031 4.62573L67.7446 6.74367Z" fill="#57BAE5"/>
<path d="M70.6475 15.5834L63.524 13.8196L70.6898 29.6793L70.6475 15.5834Z" fill="#008DBE"/>
<path d="M74.5863 25.3936L76.1575 26.2791L70.7039 29.6791L74.5863 25.3936Z" fill="#0076A7"/>
<path d="M76.5662 25.0329L70.6475 15.5837L74.5863 25.4012L76.5662 25.0329Z" fill="#57BAE5"/>
<path d="M67.7446 6.7431L63.517 13.8265L71.3662 11.234L67.7446 6.7431Z" fill="#7ACDF2"/>
<path d="M11.5244 27.5759L12.6659 28.1638L13.8144 27.5759V34.1989H11.5244V27.5759ZM11.3483 25.3375C11.3718 25.0092 11.5235 24.7035 11.7703 24.4872C12.0172 24.2709 12.3391 24.1615 12.6659 24.1829C12.8318 24.1567 13.0014 24.167 13.163 24.213C13.3245 24.2589 13.4743 24.3395 13.6019 24.4493C13.7296 24.559 13.832 24.6952 13.9023 24.8485C13.9726 25.0019 14.0089 25.1687 14.0089 25.3375C14.0089 25.5064 13.9726 25.6732 13.9023 25.8265C13.832 25.9799 13.7296 26.1161 13.6019 26.2258C13.4743 26.3355 13.3245 26.4162 13.163 26.4621C13.0014 26.5081 12.8318 26.5183 12.6659 26.4921C12.5053 26.5047 12.3439 26.4854 12.1908 26.4352C12.0377 26.3851 11.8959 26.3051 11.7736 26.1998C11.6512 26.0946 11.5507 25.9662 11.4777 25.8218C11.4047 25.6775 11.3608 25.5202 11.3483 25.3588V25.3375Z" fill="#0E4450"/>
<path d="M6.14833 24.0835V27.9581H2.96353V24.0835H0.469238V34.1985H2.96353V30.3098H6.14833V34.1985H8.64261V24.0835H6.14833Z" fill="#0E4450"/>
<path d="M19.0777 34.1987H16.7737V29.1695H15.8789V26.9949H16.7737V24.5724H19.0777V26.9949H19.9726V29.1695H19.0777V34.1987Z" fill="#0E4450"/>
<path d="M24.8062 31.8752H26.8425C27.6387 31.8752 27.8853 31.3864 27.8853 30.9685C27.8853 30.5506 27.6246 30.076 26.8425 30.076H24.8062V31.8752ZM24.8062 27.9722H26.6663C26.7681 27.9873 26.8719 27.982 26.9716 27.9566C27.0714 27.9313 27.1652 27.8864 27.2477 27.8245C27.3301 27.7627 27.3997 27.6851 27.4522 27.5962C27.5048 27.5072 27.5394 27.4088 27.5541 27.3064C27.5576 27.2687 27.5576 27.2308 27.5541 27.1931C27.5541 26.9239 27.4061 26.4139 26.6593 26.4139H24.8062V27.9722ZM26.3915 24.0835C29.4283 24.0835 29.9145 25.8968 29.9145 26.8176C29.9386 27.2587 29.8306 27.6969 29.6045 28.0757C29.3785 28.4545 29.0447 28.7564 28.6462 28.9427C29.1265 29.0876 29.5435 29.3922 29.829 29.8066C30.1145 30.221 30.2514 30.7206 30.2175 31.2235C30.2175 32.8102 29.3086 34.1773 26.2999 34.1773H22.3119V24.0835H26.3915Z" fill="#42ACDB"/>
<path d="M36.6505 34.1985H34.1562V26.4068H31.5281V24.0835H39.2787V26.3856H36.6505V34.1985Z" fill="#42ACDB"/>
<path d="M49.6645 25.6843L48.051 27.1505C47.4268 26.5987 46.6203 26.3006 45.7892 26.3147C45.4388 26.3062 45.0903 26.3674 44.7634 26.4946C44.4366 26.6218 44.138 26.8126 43.8847 27.0561C43.6313 27.2996 43.4283 27.5909 43.2872 27.9134C43.1461 28.236 43.0697 28.5833 43.0624 28.9355C43.0553 29.0062 43.0553 29.0774 43.0624 29.148C43.0414 29.4992 43.0895 29.8511 43.2039 30.1836C43.3182 30.5161 43.4967 30.8227 43.729 31.0858C43.9613 31.349 44.2429 31.5635 44.5577 31.7172C44.8725 31.8708 45.2144 31.9606 45.5637 31.9814H45.7892C46.6179 32.0034 47.4247 31.7128 48.051 31.1668L49.6645 32.6331C49.1655 33.1619 48.5645 33.5828 47.8982 33.8703C47.2319 34.1577 46.5143 34.3055 45.7892 34.3048C44.4325 34.3048 43.1314 33.7629 42.1721 32.7985C41.2127 31.8341 40.6738 30.5261 40.6738 29.1622C40.6738 27.7983 41.2127 26.4903 42.1721 25.5259C43.1314 24.5615 44.4325 24.0197 45.7892 24.0197C46.5141 24.0159 47.232 24.1617 47.8986 24.448C48.5651 24.7343 49.1662 25.1551 49.6645 25.6843V25.6843Z" fill="#42ACDB"/>
</svg>
