<svg width="166" height="20" viewBox="0 0 166 20" fill="none" xmlns="http://www.w3.org/2000/svg">
<path fill-rule="evenodd" clip-rule="evenodd" d="M147.378 16.6057C148.266 17.5454 153.147 22.0491 160.807 16.8222C166.346 12.5143 166.208 3.17449 165.676 0.354054C165.49 0.764522 159.056 14.835 147.378 16.6057ZM165.675 0.351666C165.607 0.323676 158.481 -0.646607 151.436 3.88483C147.061 6.6987 146.482 10.8171 146.682 13.5614C156.923 12.4169 165.442 0.67434 165.675 0.351666Z" fill="#97C554"/>
<path fill-rule="evenodd" clip-rule="evenodd" d="M165.675 0.351666C165.607 0.323676 158.481 -0.646607 151.436 3.88483C147.061 6.6987 146.482 10.8171 146.682 13.5614C156.923 12.4169 165.442 0.67434 165.675 0.351666Z" fill="#709B30"/>
<path fill-rule="evenodd" clip-rule="evenodd" d="M12.067 16.0566H4.08926V11.8134H12.067C14.0614 11.8134 15.0803 12.7659 15.0803 14C15.0803 15.1907 14.0831 16.0566 12.067 16.0566ZM11.8068 9.54019H4.08926V5.96804H11.8068C13.9096 5.96804 14.7334 6.70412 14.7334 7.72164C14.7334 8.65257 13.7796 9.54019 11.8068 9.54019ZM13.8446 10.6227C17.2048 10.5144 18.4188 8.84741 18.4188 7.02886C18.4188 5.03712 16.8363 3.39177 12.9775 3.39177H0.642365V18.5896H13.346C16.5111 18.5896 18.874 17.269 18.874 14.4329C18.874 12.4196 17.5516 10.7093 13.8446 10.6227ZM22.9452 3.39177V18.5896H26.3921V3.39177H22.9452ZM40.3703 6.27114H47.9578V3.39177H29.3359V6.27114H36.9234V18.5896H40.3703V6.27114ZM50.9016 3.39177V18.5896H54.3485V12.6577H62.4346V10.168H54.3485V6.01134H67.4857V3.39177H50.9016ZM70.2778 3.39177V18.5896H73.7247V3.39177H70.2778ZM81.8064 7.09381L93.231 18.5896H97.1331V3.39177H93.7296V14.3464L82.7602 3.39177H78.3811V18.5896H81.8064V7.09381ZM101.79 3.39177V18.5896H118.655V16.035H105.236V11.8567H113.279V9.49689H105.236V6.01134H118.655V3.39177H101.79ZM141.739 3.39177H137.186L131.376 8.73916L125.61 3.39177H120.992L129.1 10.8825L120.689 18.5896H125.241L131.333 12.9824L137.403 18.5896H142.042L133.609 10.8608L141.739 3.39177Z" fill="#01131D"/>
</svg>
