<svg width="602" height="594" viewBox="0 0 602 594" fill="none" xmlns="http://www.w3.org/2000/svg">
<path d="M416.189 30.4865H413.027V21C413.027 10.0642 403.936 0.972975 393 0.972975C381.932 0.972975 372.973 10.0642 372.973 21V30.4865H369.811C366.253 30.4865 363.486 33.3851 363.486 36.8108V62.1081C363.486 65.6655 366.253 68.4324 369.811 68.4324H416.189C419.615 68.4324 422.514 65.6655 422.514 62.1081V36.8108C422.514 33.3851 419.615 30.4865 416.189 30.4865ZM402.486 30.4865H383.514V21C383.514 15.8615 387.73 11.5135 393 11.5135C398.139 11.5135 402.486 15.8615 402.486 21V30.4865Z" fill="#F7F9FB"/>
<path d="M50 326H47V317C47 306.625 38.375 298 28 298C17.5 298 9 306.625 9 317V326H6C2.625 326 0 328.75 0 332V356C0 359.375 2.625 362 6 362H50C53.25 362 56 359.375 56 356V332C56 328.75 53.25 326 50 326ZM37 326H19V317C19 312.125 23 308 28 308C32.875 308 37 312.125 37 317V326Z" fill="#F7F9FB"/>
<path d="M182.227 65.0753H175.377V44.5281C175.377 20.8417 155.686 1.1506 132 1.1506C108.028 1.1506 88.6225 20.8417 88.6225 44.5281V65.0753H81.7734C74.0682 65.0753 68.0753 71.3536 68.0753 78.7734V133.566C68.0753 141.271 74.0682 147.264 81.7734 147.264H182.227C189.646 147.264 195.925 141.271 195.925 133.566V78.7734C195.925 71.3536 189.646 65.0753 182.227 65.0753ZM152.547 65.0753H111.453V44.5281C111.453 33.3983 120.585 23.9808 132 23.9808C143.13 23.9808 152.547 33.3983 152.547 44.5281V65.0753Z" fill="#F7F9FB"/>
<path d="M567.844 538.562H563.297V524.922C563.297 509.197 550.225 496.125 534.5 496.125C518.586 496.125 505.703 509.197 505.703 524.922V538.562H501.156C496.041 538.562 492.062 542.73 492.062 547.656V584.031C492.062 589.146 496.041 593.125 501.156 593.125H567.844C572.77 593.125 576.938 589.146 576.938 584.031V547.656C576.938 542.73 572.77 538.562 567.844 538.562ZM548.141 538.562H520.859V524.922C520.859 517.533 526.922 511.281 534.5 511.281C541.889 511.281 548.141 517.533 548.141 524.922V538.562Z" fill="#F7F9FB"/>
<path d="M590.723 242.294H585.291V225.996C585.291 207.208 569.672 191.589 550.883 191.589C531.869 191.589 516.476 207.208 516.476 225.996V242.294H511.043C504.932 242.294 500.178 247.274 500.178 253.16V296.622C500.178 302.734 504.932 307.487 511.043 307.487H590.723C596.609 307.487 601.589 302.734 601.589 296.622V253.16C601.589 247.274 596.609 242.294 590.723 242.294ZM567.182 242.294H534.585V225.996C534.585 217.168 541.829 209.698 550.883 209.698C559.712 209.698 567.182 217.168 567.182 225.996V242.294Z" fill="#F7F9FB"/>
<path d="M101.726 525.474H97.062V511.483C97.062 495.355 83.6544 481.948 67.5264 481.948C51.204 481.948 37.9907 495.355 37.9907 511.483V525.474H33.3272C28.0807 525.474 24.0001 529.749 24.0001 534.801V572.109C24.0001 577.355 28.0807 581.436 33.3272 581.436H101.726C106.778 581.436 111.053 577.355 111.053 572.109V534.801C111.053 529.749 106.778 525.474 101.726 525.474ZM81.5169 525.474H53.5358V511.483C53.5358 503.905 59.7538 497.493 67.5264 497.493C75.1046 497.493 81.5169 503.905 81.5169 511.483V525.474Z" fill="#F7F9FB"/>
</svg>
