<svg width="93" height="29" viewBox="0 0 93 29" fill="none" xmlns="http://www.w3.org/2000/svg">
<path d="M34.7319 7.79616V15.5042H26.9759V8.79149C26.9759 8.23981 26.5226 7.7923 25.9639 7.7923H23.3381V26.2446C23.3381 26.7962 23.7914 27.2438 24.3501 27.2438H26.9759V18.6368H34.7358V26.2407C34.728 26.7924 35.1734 27.2476 35.7322 27.2553H35.7478H38.3735V8.79149C38.3735 8.23981 37.9203 7.7923 37.3615 7.7923H34.7319V7.79616ZM50.1346 12.6185V21.8659C50.1424 22.7069 49.697 23.49 48.9624 23.9221C46.9071 25.0949 44.7776 23.6251 44.7776 21.6961V13.6177C44.7776 13.066 44.3244 12.6185 43.7656 12.6185H41.1399V22.0279C41.1477 25.0602 43.6328 27.5138 46.7039 27.5292H48.1965C51.2716 27.5215 53.7645 25.0602 53.7723 22.024V13.6177C53.7723 13.066 53.319 12.6185 52.7603 12.6185H50.1346Z" fill="#1B2143"/>
<path d="M89.8604 27.2555H92.4861V14.1541C92.4861 13.6024 92.0328 13.1549 91.4741 13.1549H88.8484V26.2486C88.8445 26.8002 89.2938 27.2516 89.8526 27.2555H89.8604Z" fill="#2CA6E0"/>
<path d="M92.6921 9.75002C92.6921 8.64209 91.7859 7.7521 90.668 7.76217C89.5501 7.77224 88.6438 8.67856 88.6438 9.78648C88.6438 10.8944 89.5501 11.7844 90.668 11.7743C91.7859 11.7643 92.6921 10.8579 92.6921 9.75002Z" fill="#2CA6E0"/>
<path d="M63.1577 12.6109C59.3481 12.6109 56.23 15.2999 56.23 19.0613V21.0944C56.23 24.8558 59.3481 27.5294 63.1577 27.5294C66.9674 27.5294 70.0854 24.8558 70.0854 21.0944V19.0613C70.0894 15.2999 66.9713 12.6109 63.1577 12.6109V12.6109ZM66.4321 21.3375C66.4321 23.1159 64.959 24.3003 63.1538 24.3003C61.3486 24.3003 59.8795 23.1159 59.8795 21.3375V18.799C59.8795 17.0205 61.3526 15.8361 63.1538 15.8361C64.9551 15.8361 66.4321 17.0205 66.4321 18.799V21.3375Z" fill="#1B2143"/>
<path d="M79.4708 12.6107C78.3299 12.603 77.2045 12.8576 76.1769 13.3475V8.81066C76.1769 8.25899 75.7237 7.81147 75.1649 7.81147H72.5392V21.0942C72.5392 24.8556 75.6572 27.5291 79.4669 27.5291C83.2765 27.5291 86.3946 24.8556 86.3946 21.0942V19.0611C86.3985 15.2996 83.2883 12.6107 79.4708 12.6107V12.6107ZM82.7491 21.3372C82.7491 23.1157 81.276 24.3001 79.4708 24.3001C77.6695 24.3001 76.1965 23.1157 76.1965 21.3372V18.7987C76.1965 17.0202 77.6695 15.8359 79.4708 15.8359C81.2721 15.8359 82.7491 17.0202 82.7491 18.7987V21.3372Z" fill="#2CA6E0"/>
<path d="M12.343 9.38981C12.343 5.4702 10.4089 2.09455 8.93582 0.998906C8.93582 0.998906 8.82251 0.93718 8.83423 1.09535C8.7131 8.66839 4.79406 10.7208 2.64112 13.483C-2.329 19.864 2.28946 26.8583 7.0017 28.1507C9.62742 28.876 6.39215 26.8699 5.97407 22.6378C5.46221 17.53 12.343 13.6258 12.343 9.38981V9.38981Z" fill="#1B2143"/>
<path d="M14.6014 11.9706C14.5701 11.9513 14.5271 11.9359 14.4998 11.9861C14.4177 12.939 13.4331 14.9759 12.1827 16.8509C7.94327 23.2009 10.358 26.2641 11.7178 27.9114C12.507 28.8643 11.7177 27.9114 13.687 26.9354C16.1213 25.4771 17.6999 22.954 17.9343 20.1532C18.3211 15.6395 15.5782 12.7962 14.6014 11.9706V11.9706Z" fill="#2CA6E0"/>
</svg>
