<svg width="84" height="24" viewBox="0 0 84 24" fill="none" xmlns="http://www.w3.org/2000/svg">
<g clip-path="url(#clip0)">
<path d="M10.0156 23.1597C10.0156 23.1597 19.2055 19.9041 19.2055 8.16051V3.97469C19.2055 3.5096 18.8651 3.16078 18.4113 3.04451C15.4615 2.92824 12.6251 2.34687 10.0156 1.06787C7.40611 2.2306 4.56972 2.92824 1.61987 3.04451C1.16605 3.04451 0.825684 3.5096 0.825684 3.97469V8.16051C0.825684 19.9041 10.0156 23.1597 10.0156 23.1597Z" fill="#00ADEE"/>
<path d="M13.7582 9.78811C13.6448 8.50911 12.6237 8.04402 11.2622 7.92775V6.06738H10.1276V7.81147H9.21997V6.06738H8.19887V7.81147H6.04321V8.9742H7.40468V14.6716H6.27012V15.9506H8.08541V17.8109H9.10651V15.9506H9.9007V17.6947H11.0353V15.9506C12.8506 15.8343 14.0986 15.3692 14.2121 13.7414C14.439 12.6949 13.8717 11.7647 12.8506 11.5322H12.7371C13.4179 11.1834 13.8717 10.4857 13.7582 9.78811ZM12.1699 13.6251C12.1699 15.0204 9.9007 14.7878 9.21997 14.7878V12.4624C10.0142 12.3461 12.1699 12.1136 12.1699 13.6251ZM11.716 10.2532C11.716 11.4159 9.9007 11.2997 9.21997 11.2997V9.09047C9.9007 9.09047 11.716 8.9742 11.716 10.2532Z" fill="white"/>
<path d="M37.4685 15.7184C37.4685 16.5323 37.355 17.3462 36.9012 18.0438C36.5608 18.6252 36.107 19.2065 35.4263 19.5554C34.7455 19.9042 34.0648 20.253 33.3841 20.3693C32.5899 20.4855 31.7957 20.6018 31.0015 20.6018H24.3076V3.62598H31.0015C31.6822 3.62598 32.363 3.74225 33.0437 3.85852C33.7244 3.97479 34.2917 4.20734 34.859 4.55616C35.4263 4.90498 35.8801 5.37007 36.2205 5.83516C36.5608 6.5328 36.7877 7.23043 36.6743 8.04434C36.6743 8.85825 36.4474 9.67216 35.8801 10.3698C35.3128 10.9512 34.6321 11.4163 33.8379 11.6488C34.2917 11.7651 34.7455 11.8813 35.1994 12.1139C35.6532 12.3464 35.9935 12.579 36.3339 12.9278C36.6743 13.2766 36.9012 13.6254 37.0146 14.0905C37.355 14.6719 37.4685 15.137 37.4685 15.7184ZM32.9302 8.50944C32.9302 7.92807 32.7033 7.46298 32.2495 7.23043C31.6822 6.88162 31.0015 6.76534 30.3208 6.88162H28.392V10.3698H30.5477C31.115 10.3698 31.7957 10.2535 32.2495 9.90471C32.5899 9.55589 32.9302 9.0908 32.9302 8.50944ZM33.3841 15.3695C33.4975 14.7882 33.1572 14.2068 32.5899 13.858C31.9091 13.5092 31.2284 13.3929 30.5477 13.3929H28.2786V17.3462H30.5477C30.888 17.3462 31.2284 17.3462 31.5688 17.2299C31.9091 17.2299 32.2495 17.1136 32.4764 16.8811C33.0437 16.6485 33.4975 16.0672 33.3841 15.3695Z" fill="white"/>
<path d="M42.8031 4.78828C42.8031 5.1371 42.6897 5.36965 42.5762 5.60219C42.4627 5.83474 42.3493 6.06728 42.1224 6.29983C41.8955 6.53238 41.6686 6.64865 41.4416 6.76492C41.2147 6.88119 40.8744 6.88119 40.534 6.88119C39.9667 6.88119 39.3994 6.64865 38.9456 6.29983C38.4918 5.95101 38.2649 5.36965 38.2649 4.78828C38.2649 4.55574 38.3783 4.20692 38.4918 3.97437C38.6053 3.74183 38.7187 3.50928 38.9456 3.27674C39.1725 3.04419 39.3994 2.92792 39.6264 2.81165C39.8533 2.69537 40.1936 2.5791 40.534 2.5791C40.8744 2.5791 41.1013 2.5791 41.4416 2.69537C41.6686 2.81165 41.8955 2.92792 42.1224 3.16047C42.3493 3.39301 42.4627 3.62556 42.5762 3.8581C42.8031 4.20692 42.8031 4.55574 42.8031 4.78828ZM38.6053 20.7177V8.62529H42.4627V20.7177H38.6053Z" fill="white"/>
<path d="M49.6112 11.6483V16.2992C49.6112 16.7643 49.7247 17.2294 49.9516 17.5782C50.292 17.927 50.6323 18.0433 51.0862 18.0433C51.3131 18.0433 51.54 18.0433 51.6534 18.0433C51.8804 18.0433 51.9938 17.927 52.2207 17.927V20.8338C51.8804 20.9501 51.54 21.0664 51.1996 21.0664C50.7458 21.1827 50.4054 21.1827 49.9516 21.1827C49.2709 21.1827 48.5901 21.0664 47.9094 20.8338C47.4556 20.6013 47.0018 20.3688 46.6614 19.9037C46.321 19.5548 46.0941 19.0898 45.9807 18.5084C45.8672 17.927 45.8672 17.2294 45.8672 16.648V11.532H43.9385V8.6252H45.7538V5.48584H49.6112V8.6252H52.3342V11.532H49.6112V11.6483Z" fill="white"/>
<path d="M66.2863 20.7175C65.1517 20.95 63.9037 21.1826 62.6557 21.0663C61.4077 21.0663 60.1597 20.8337 59.0251 20.3687C57.8906 20.0198 56.9829 19.3222 56.0753 18.5083C55.2811 17.6944 54.6004 16.7642 54.1466 15.6015C53.2389 13.1597 53.2389 10.6017 54.1466 8.16001C54.6004 7.11355 55.2811 6.0671 56.0753 5.25319C56.8695 4.43928 57.8906 3.85792 59.0251 3.5091C60.1597 3.04401 61.4077 2.92773 62.5423 2.92773C63.7903 2.92773 65.0383 3.16028 66.1729 3.5091C67.194 3.85792 68.1016 4.43928 68.8958 5.13692L66.5132 8.39255C66.0594 7.92746 65.4921 7.46237 64.9248 7.22983C64.2441 6.88101 63.5634 6.76474 62.7692 6.76474C62.0884 6.76474 61.4077 6.88101 60.8404 7.11355C59.5924 7.69492 58.6848 8.6251 58.231 9.9041C58.004 10.6017 57.8906 11.2994 57.8906 11.997C57.8906 12.6946 58.004 13.5086 58.231 14.2062C58.4579 14.7876 58.7982 15.3689 59.2521 15.9503C59.7059 16.4154 60.2732 16.8805 60.8404 17.113C61.5212 17.3456 62.3154 17.5781 62.9961 17.4618C63.4499 17.4618 63.9037 17.4618 64.3576 17.3456C64.6979 17.2293 65.1518 17.113 65.4921 16.9967V13.8574H62.3154V10.4855H69.2362V19.5547C68.3285 20.1361 67.3074 20.4849 66.2863 20.7175Z" fill="white"/>
<path d="M83.76 14.6711C83.76 15.6013 83.6466 16.5315 83.1928 17.3454C82.8524 18.1593 82.3986 18.8569 81.8313 19.4383C81.264 20.0197 80.4698 20.4848 79.7891 20.7173C78.2007 21.2987 76.3854 21.2987 74.797 20.7173C74.0028 20.3685 73.3221 20.0197 72.7548 19.4383C72.1876 18.8569 71.6203 18.1593 71.3934 17.3454C70.7126 15.6013 70.7126 13.7409 71.3934 11.9968C71.7337 11.1829 72.1876 10.6016 72.7548 10.0202C73.3221 9.43884 74.1163 9.09002 74.797 8.7412C76.3854 8.15983 78.2007 8.15983 79.7891 8.7412C80.5833 8.97374 81.264 9.43884 81.8313 10.0202C82.3986 10.6016 82.9659 11.1829 83.1928 11.9968C83.6466 12.8107 83.76 13.7409 83.76 14.6711ZM80.016 14.6711C80.016 14.3223 79.9025 13.8572 79.7891 13.5084C79.6756 13.1596 79.4487 12.8107 79.2218 12.5782C78.9949 12.3457 78.6545 12.1131 78.3142 11.8806C77.52 11.5317 76.7258 11.5317 75.9316 11.8806C75.5912 11.9968 75.2509 12.2294 75.0239 12.5782C74.797 12.8107 74.5701 13.1596 74.4567 13.5084C74.3432 13.8572 74.2298 14.3223 74.2298 14.6711C74.2298 15.0199 74.3432 15.485 74.4567 15.8338C74.5701 16.1827 74.797 16.5315 75.0239 16.8803C75.2509 17.2291 75.5912 17.4617 75.9316 17.5779C76.7258 17.9268 77.52 17.9268 78.3142 17.5779C78.6545 17.4617 78.9949 17.1128 79.2218 16.8803C79.4487 16.5315 79.6756 16.1827 79.7891 15.8338C80.016 15.3687 80.016 15.0199 80.016 14.6711Z" fill="white"/>
</g>
<defs>
<clipPath id="clip0">
<rect width="83.7648" height="22.0918" fill="white" transform="translate(0 0.954102)"/>
</clipPath>
</defs>
</svg>
