<svg width="427" height="587" viewBox="0 0 427 587" fill="none" xmlns="http://www.w3.org/2000/svg">
<g filter="url(#filter0_d)">
<path fill-rule="evenodd" clip-rule="evenodd" d="M74 181.92V521.416C74 527.221 74 530.123 75.1297 532.34C76.1235 534.291 77.7092 535.877 79.6595 536.87C81.8767 538 84.7793 538 90.5843 538H370.416C376.221 538 379.123 538 381.34 536.87C383.291 535.877 384.877 534.291 385.87 532.34C387 530.123 387 527.221 387 521.416V85.5843C387 79.7793 387 76.8767 385.87 74.6595C384.877 72.7092 383.291 71.1235 381.34 70.1297C379.123 69 376.221 69 370.416 69H139.381C136.024 90.2195 125.789 114.427 108.852 141.184C98.7146 157.17 88.4093 170.342 82.0805 178.054C79.9522 180.643 77.3759 182.107 75.2476 181.994C74.8471 181.973 74.4309 181.949 74 181.92Z" fill="white"/>
</g>
<path d="M124.756 11.3757C123.288 10.102 108.751 2.06805 106.598 0.843353C106.5 0.794365 106.402 0.745377 106.304 0.69639C105.423 0.2555 104.347 0.2555 103.123 0.69639C85.7972 7.11378 70.1843 5.49718 62.4513 3.92958C59.9552 3.4397 57.1165 4.07654 54.131 5.79111C51.1944 7.50568 48.3068 10.2 45.8107 13.5312C38.0777 24.0635 22.5138 43.7566 5.18796 57.3262C2.15349 59.6776 0 63.9395 0 67.4176V110.821C0 131.689 9.10341 143.691 20.0177 150.55C21.0945 151.236 22.1712 151.872 23.2969 152.411C29.4148 155.938 42.0421 163.189 42.8741 163.581L41.8463 158.486C45.4681 159.123 48.6494 159.417 51.1944 159.515C53.0543 159.612 55.3057 158.29 57.1655 156.085C62.6961 149.374 71.7016 137.96 80.5603 123.998C99.0118 95.0467 108.311 69.5731 108.311 48.1655V21.1733L124.756 11.3757Z" fill="url(#paint0_linear)"/>
<path d="M126.275 58.6499C126.275 80.0085 116.927 105.531 98.5241 134.483C89.6655 148.395 80.6599 159.858 75.1294 166.57C73.2695 168.823 71.0181 170.097 69.1583 169.999C54.9159 169.264 17.9639 163.288 17.9639 121.256V77.8041C17.9639 74.3259 20.1174 70.064 23.1518 67.7126C40.4777 54.094 56.0905 34.45 63.8235 23.9176C66.3196 20.5864 69.1583 17.8921 72.1438 16.1776C75.0804 14.463 77.9681 13.8261 80.4642 14.316C88.1972 15.8836 103.81 17.5002 121.136 11.0828C124.121 9.95611 126.324 11.7197 126.324 15.1978V58.6499H126.275Z" fill="url(#paint1_linear)"/>
<path d="M110.318 49.2922L103.955 45.6671C103.71 45.5202 103.417 45.3732 103.123 45.2752C100.04 44.3445 95.6348 47.5287 93.2855 52.4764L64.8986 111.703L49.7752 106.657C46.7407 105.628 42.3358 108.812 39.9376 113.711C37.7352 118.218 37.9799 122.676 40.476 124.145L40.5739 124.194C40.5739 124.194 40.6228 124.194 40.6228 124.243L46.8386 127.82L61.8641 131.347C63.0877 131.739 64.6538 131.494 66.22 130.563C66.5137 130.416 66.8073 130.22 67.101 129.975C68.9608 128.603 70.6738 126.546 71.7995 124.145L104.493 55.9056C105.619 53.4072 110.318 49.2922 110.318 49.2922Z" fill="url(#paint2_linear)"/>
<path d="M72.4371 134.188C70.8709 135.07 69.3537 135.364 68.0811 134.972L47.3293 128.065C44.2948 127.036 43.7565 122.235 46.1547 117.336C48.5529 112.437 52.9577 109.253 55.9922 110.282L71.1156 115.328L99.5026 56.1016C101.852 51.2029 106.257 47.9697 109.34 48.9004C112.424 49.8312 113.011 54.583 110.662 59.5308L78.0166 127.771C76.8909 130.171 75.1779 132.277 73.3181 133.6C73.0244 133.845 72.7307 133.992 72.4371 134.188Z" fill="url(#paint3_linear)"/>
<path d="M211.678 116.434L248.777 138.174V160.348L192.043 127.087L210.226 116.434C210.449 116.312 210.698 116.248 210.952 116.248C211.206 116.248 211.455 116.312 211.678 116.434Z" fill="#3CA9E5"/>
<path d="M248.778 116L229.861 127.087L248.778 138.174V116Z" fill="#2853C3"/>
<path d="M248.775 116L266.973 126.652C267.192 126.787 267.374 126.976 267.502 127.202C267.631 127.427 267.701 127.681 267.707 127.941V171.42L248.775 160.348V116Z" fill="#1A4199"/>
<path d="M267.695 171.436L249.513 182.088C249.28 182.224 249.016 182.296 248.748 182.296C248.479 182.296 248.216 182.224 247.983 182.088L210.899 160.349V138.144L267.695 171.436Z" fill="#2853C3"/>
<path d="M192.043 127.087V170.566C192.041 170.834 192.108 171.097 192.237 171.331C192.366 171.565 192.552 171.762 192.777 171.901L210.96 182.553V138.143L192.043 127.087Z" fill="#60BEFF"/>
<path d="M210.961 182.522L229.862 171.435L210.961 160.348V182.522Z" fill="#3CA9E5"/>
<path d="M229.495 200.706C229.305 198.466 228.301 196.377 226.679 194.848C225.056 193.318 222.931 192.456 220.717 192.429H220.304C219.25 192.475 218.213 192.717 217.246 193.143L217.047 193.237H216.955C215.411 193.964 214.108 195.13 213.201 196.593C212.295 198.056 211.825 199.754 211.847 201.482V201.653C211.954 204.05 212.967 206.314 214.677 207.971C216.386 209.629 218.659 210.553 221.023 210.55H226.069C226.135 210.553 226.2 210.541 226.261 210.517C226.322 210.493 226.378 210.457 226.425 210.411C226.472 210.364 226.51 210.309 226.535 210.247C226.561 210.186 226.574 210.12 226.574 210.054V207.103C226.57 206.97 226.515 206.844 226.421 206.751C226.327 206.658 226.201 206.606 226.069 206.606H220.717C219.652 206.564 218.625 206.192 217.775 205.54C216.925 204.887 216.292 203.986 215.961 202.957H228.914C228.993 202.961 229.073 202.949 229.148 202.922C229.223 202.894 229.291 202.852 229.35 202.797C229.408 202.742 229.455 202.675 229.488 202.602C229.521 202.528 229.539 202.448 229.541 202.367V200.814C229.531 200.776 229.515 200.739 229.495 200.706ZM225.335 199.758H215.976C216.426 198.478 217.355 197.43 218.561 196.839L218.76 196.746C219.5 196.437 220.304 196.32 221.099 196.404C222.045 196.5 222.945 196.866 223.695 197.459C224.445 198.053 225.013 198.85 225.335 199.758Z" fill="#2853C3"/>
<path d="M200.607 192.429C198.933 192.485 197.31 193.023 195.927 193.982V192.973C195.927 192.89 195.895 192.811 195.838 192.753C195.78 192.695 195.703 192.662 195.621 192.662H192.349C192.268 192.662 192.19 192.695 192.133 192.753C192.075 192.811 192.043 192.89 192.043 192.973V201.156C192.035 201.29 192.035 201.425 192.043 201.56V210.023C192.008 210.102 191.994 210.189 192.002 210.275C192.011 210.361 192.041 210.444 192.091 210.514C192.14 210.585 192.207 210.641 192.284 210.678C192.362 210.714 192.447 210.729 192.532 210.721H195.438C195.568 210.721 195.692 210.669 195.784 210.576C195.876 210.483 195.927 210.356 195.927 210.224V201.404C195.928 200.694 196.076 199.991 196.359 199.341C196.643 198.692 197.058 198.109 197.576 197.631C198.094 197.153 198.704 196.79 199.369 196.566C200.033 196.341 200.736 196.26 201.433 196.327C202.702 196.462 203.876 197.074 204.724 198.041C205.573 199.009 206.035 200.264 206.02 201.56V210.085C206.02 210.151 206.033 210.217 206.059 210.278C206.084 210.34 206.122 210.395 206.169 210.442C206.216 210.488 206.272 210.524 206.333 210.548C206.394 210.572 206.459 210.584 206.525 210.582H209.415C209.545 210.582 209.669 210.529 209.761 210.436C209.853 210.343 209.904 210.216 209.904 210.085V201.404C209.895 200.189 209.645 198.987 209.169 197.872C208.692 196.757 208 195.75 207.132 194.913C206.264 194.075 205.239 193.423 204.118 192.997C202.997 192.57 201.803 192.377 200.607 192.429Z" fill="#2853C3"/>
<path d="M246.515 192.538C246.47 192.495 246.41 192.47 246.347 192.47C246.285 192.47 246.224 192.495 246.179 192.538L239.97 198.827L233.853 192.616C233.808 192.572 233.748 192.548 233.685 192.548C233.623 192.548 233.562 192.572 233.517 192.616L231.04 195.194C230.997 195.24 230.973 195.301 230.973 195.364C230.973 195.428 230.997 195.489 231.04 195.535L237.157 201.746L230.948 208.035C230.905 208.081 230.881 208.143 230.881 208.206C230.881 208.27 230.905 208.331 230.948 208.377L233.395 210.861C233.422 210.891 233.455 210.916 233.492 210.932C233.529 210.948 233.568 210.957 233.609 210.957C233.649 210.957 233.689 210.948 233.726 210.932C233.763 210.916 233.796 210.891 233.823 210.861L239.94 204.65L246.057 210.861C246.102 210.905 246.162 210.929 246.225 210.929C246.287 210.929 246.348 210.905 246.393 210.861L248.87 208.33C248.913 208.284 248.937 208.223 248.937 208.159C248.937 208.096 248.913 208.035 248.87 207.989L242.754 201.777L248.947 195.473C248.972 195.453 248.993 195.427 249.007 195.397C249.021 195.368 249.029 195.335 249.029 195.302C249.029 195.269 249.021 195.237 249.007 195.207C248.993 195.178 248.972 195.152 248.947 195.131L246.515 192.538Z" fill="#2853C3"/>
<path d="M258.932 192.367C257.113 192.345 255.328 192.873 253.805 193.884C252.283 194.894 251.09 196.342 250.379 198.042C249.668 199.743 249.471 201.619 249.813 203.434C250.155 205.248 251.02 206.918 252.299 208.232C253.578 209.546 255.212 210.444 256.995 210.813C258.778 211.181 260.628 211.003 262.311 210.301C263.994 209.599 265.433 208.405 266.446 206.871C267.459 205.337 268 203.531 268 201.684C268 199.231 267.048 196.878 265.351 195.134C263.653 193.39 261.347 192.395 258.932 192.367ZM258.932 206.994C257.883 207.007 256.854 206.702 255.976 206.119C255.098 205.536 254.41 204.702 254 203.721C253.59 202.74 253.477 201.658 253.674 200.612C253.871 199.566 254.37 198.603 255.108 197.845C255.845 197.087 256.788 196.569 257.816 196.357C258.844 196.145 259.911 196.247 260.881 196.652C261.852 197.057 262.682 197.745 263.266 198.63C263.85 199.515 264.162 200.556 264.162 201.622C264.162 203.036 263.613 204.393 262.634 205.399C261.655 206.405 260.325 206.978 258.932 206.994Z" fill="#2853C3"/>
<path d="M155.839 301.886C155.494 302.577 155.053 303.101 154.517 303.483C153.981 303.864 153.206 304.102 152.182 304.209V306.044H155.232V318.97H157.912V301.886H155.839Z" fill="#252A2F"/>
<path d="M234.645 318.97V316.528H226.353C226.663 315.932 227.104 315.36 227.675 314.812C228.247 314.264 228.843 313.799 229.439 313.406C230.034 313.025 230.642 312.596 231.273 312.12C231.905 311.643 232.465 311.19 232.953 310.738C233.441 310.285 233.846 309.725 234.168 309.058C234.478 308.391 234.645 307.676 234.645 306.89C234.645 305.413 234.109 304.174 233.036 303.161C231.964 302.16 230.582 301.648 228.914 301.648C228.057 301.648 227.294 301.791 226.603 302.077C225.912 302.363 225.376 302.684 225.019 303.018C224.65 303.364 224.328 303.757 224.054 304.197C223.78 304.65 223.613 304.96 223.554 305.127C223.494 305.305 223.446 305.448 223.422 305.556L225.615 306.532L225.698 306.282C225.757 306.115 225.877 305.901 226.043 305.663C226.21 305.424 226.413 305.198 226.639 304.96C226.865 304.722 227.187 304.519 227.592 304.352C227.997 304.186 228.438 304.09 228.903 304.09C229.868 304.09 230.618 304.34 231.154 304.841C231.69 305.341 231.952 306.032 231.952 306.89C231.952 307.497 231.797 308.057 231.476 308.57C231.166 309.082 230.749 309.523 230.237 309.904C229.725 310.285 229.165 310.678 228.545 311.071C227.938 311.464 227.33 311.893 226.711 312.37C226.091 312.846 225.531 313.371 225.019 313.942C224.507 314.514 224.09 315.241 223.768 316.099C223.458 316.956 223.291 317.921 223.291 318.97H234.645Z" fill="black"/>
<path d="M309.784 309.94L310.022 309.797C310.189 309.725 310.379 309.582 310.606 309.392C310.832 309.201 311.058 308.963 311.273 308.689C311.487 308.427 311.678 308.069 311.845 307.64C312.011 307.211 312.095 306.759 312.095 306.294C312.095 304.924 311.618 303.804 310.665 302.947C309.712 302.089 308.402 301.66 306.722 301.66C306.043 301.66 305.388 301.743 304.756 301.934C304.113 302.125 303.601 302.327 303.219 302.542C302.826 302.756 302.457 303.018 302.111 303.316C301.778 303.626 301.552 303.828 301.456 303.947C301.361 304.066 301.278 304.15 301.23 304.209L302.934 305.913L303.327 305.448C303.613 305.162 304.065 304.865 304.697 304.555C305.34 304.245 306.007 304.09 306.722 304.09C307.568 304.09 308.223 304.317 308.699 304.745C309.176 305.186 309.402 305.782 309.402 306.532C309.402 307.283 309.176 307.879 308.699 308.307C308.223 308.748 307.568 308.963 306.722 308.963H305.006V311.405H306.722C307.782 311.405 308.616 311.667 309.224 312.179C309.831 312.692 310.129 313.335 310.129 314.097C310.129 314.86 309.831 315.503 309.224 316.015C308.616 316.528 307.782 316.778 306.722 316.778C306.174 316.778 305.638 316.718 305.137 316.575C304.637 316.432 304.22 316.277 303.91 316.111C303.601 315.944 303.315 315.741 303.041 315.515C302.767 315.289 302.588 315.134 302.505 315.038C302.421 314.943 302.362 314.872 302.326 314.824L300.622 316.528L300.837 316.825C301.004 317.004 301.254 317.218 301.587 317.481C301.921 317.743 302.314 318.005 302.767 318.267C303.219 318.529 303.803 318.743 304.506 318.934C305.209 319.125 305.948 319.22 306.722 319.22C308.557 319.22 310.034 318.731 311.154 317.766C312.273 316.802 312.821 315.622 312.821 314.228C312.821 313.609 312.714 313.037 312.488 312.513C312.273 311.989 312.023 311.584 311.761 311.286C311.499 311 311.189 310.738 310.832 310.511C310.486 310.285 310.248 310.142 310.105 310.083C309.962 310.023 309.855 309.975 309.784 309.94Z" fill="#252A2F"/>
<path d="M160.473 374.782V363.56H157.066L149.501 374.305V377.224H157.793V380.643H160.473V377.224H162.677V374.782H160.473ZM157.793 374.782H152.063L157.793 366.609V374.782Z" fill="#252A2F"/>
<path d="M232.233 369.301C230.923 369.301 229.946 369.551 229.302 370.028L229.553 366.001H236.986V363.559H227.11L226.622 373.197H228.576L228.897 372.792C229.1 372.53 229.493 372.268 230.065 372.006C230.637 371.743 231.28 371.612 231.995 371.612C232.96 371.612 233.77 371.946 234.425 372.589C235.068 373.245 235.402 374.055 235.402 375.031C235.402 376.008 235.068 376.83 234.425 377.474C233.782 378.129 232.972 378.451 231.995 378.451C231.435 378.451 230.899 378.391 230.398 378.248C229.898 378.105 229.493 377.95 229.183 377.783C228.873 377.617 228.576 377.414 228.302 377.188C228.028 376.961 227.849 376.807 227.766 376.711C227.682 376.616 227.623 376.544 227.599 376.497L225.895 378.2L226.11 378.498C226.276 378.677 226.515 378.891 226.848 379.153C227.182 379.416 227.575 379.678 228.028 379.94C228.48 380.202 229.064 380.416 229.767 380.607C230.47 380.797 231.208 380.893 231.995 380.893C233.805 380.893 235.283 380.345 236.403 379.261C237.522 378.165 238.094 376.759 238.094 375.043C238.094 373.376 237.534 372.006 236.438 370.933C235.342 369.849 233.937 369.301 232.233 369.301Z" fill="#252A2F"/>
<path d="M307.46 369.17C306.889 369.17 306.4 369.254 305.995 369.42L309.784 363.559H307.091L302.219 371.124L301.873 371.612C301.635 371.946 301.409 372.434 301.194 373.078C300.98 373.733 300.873 374.388 300.873 375.043C300.873 376.64 301.456 378.01 302.648 379.165C303.839 380.309 305.28 380.893 306.972 380.893C308.664 380.893 310.093 380.309 311.285 379.165C312.476 378.01 313.072 376.64 313.072 375.043C313.072 373.459 312.5 372.089 311.368 370.921C310.236 369.754 308.938 369.17 307.46 369.17ZM310.629 375.031C310.629 376.008 310.272 376.842 309.569 377.533C308.854 378.224 307.997 378.57 306.972 378.57C305.948 378.57 305.078 378.224 304.375 377.533C303.66 376.842 303.315 376.008 303.315 375.031C303.315 374.055 303.66 373.221 304.375 372.53C305.078 371.839 305.948 371.493 306.972 371.493C307.997 371.493 308.854 371.839 309.569 372.53C310.272 373.221 310.629 374.055 310.629 375.031Z" fill="#252A2F"/>
<path d="M150.347 425.232V427.675H158.889L151.813 442.316H154.493L161.701 427.436V425.232H150.347Z" fill="#252A2F"/>
<path d="M231.864 434.144C232.817 434.144 233.627 434.453 234.282 435.061C234.949 435.68 235.271 436.383 235.271 437.193C235.271 438.003 234.949 438.718 234.282 439.326C233.627 439.945 232.817 440.243 231.864 440.243C230.911 440.243 230.101 439.945 229.445 439.326C228.778 438.718 228.456 438.003 228.456 437.193C228.456 436.383 228.778 435.68 229.445 435.061C230.101 434.453 230.911 434.144 231.864 434.144ZM231.864 427.186C232.65 427.186 233.293 427.424 233.794 427.901C234.294 428.378 234.556 428.949 234.556 429.628C234.556 430.319 234.294 430.891 233.794 431.368C233.293 431.844 232.65 432.071 231.864 432.071C231.077 432.071 230.434 431.844 229.934 431.368C229.433 430.891 229.183 430.319 229.183 429.628C229.183 428.949 229.433 428.378 229.934 427.901C230.434 427.424 231.077 427.186 231.864 427.186ZM231.864 424.994C230.434 424.994 229.219 425.459 228.23 426.388C227.229 427.317 226.741 428.389 226.741 429.628C226.741 430.284 226.896 430.891 227.218 431.463C227.527 432.035 227.789 432.404 227.98 432.571C228.171 432.738 228.325 432.857 228.456 432.94L227.837 433.393C227.432 433.715 227.027 434.227 226.622 434.942C226.217 435.656 226.014 436.407 226.014 437.205C226.014 438.682 226.562 439.945 227.682 440.994C228.79 442.042 230.184 442.566 231.864 442.566C233.531 442.566 234.925 442.042 236.045 440.994C237.165 439.945 237.725 438.682 237.725 437.205C237.725 436.693 237.63 436.204 237.451 435.728C237.272 435.251 237.082 434.858 236.867 434.549C236.653 434.239 236.414 433.941 236.14 433.667C235.855 433.381 235.664 433.202 235.545 433.131C235.426 433.047 235.342 432.988 235.283 432.94L235.45 432.809C235.569 432.726 235.712 432.595 235.878 432.404C236.045 432.214 236.224 431.999 236.391 431.749C236.557 431.511 236.7 431.189 236.82 430.808C236.927 430.427 236.986 430.033 236.986 429.628C236.986 428.389 236.486 427.317 235.497 426.388C234.508 425.459 233.293 424.994 231.864 424.994Z" fill="#252A2F"/>
<path d="M306.734 436.705C307.306 436.705 307.794 436.621 308.199 436.455L304.411 442.316H307.091L311.976 434.751L312.321 434.263C312.535 433.941 312.762 433.453 312.988 432.797C313.203 432.154 313.322 431.499 313.322 430.844C313.322 429.259 312.726 427.889 311.535 426.734C310.343 425.578 308.914 424.994 307.222 424.994C305.531 424.994 304.089 425.578 302.898 426.722C301.706 427.877 301.123 429.247 301.123 430.844C301.123 432.428 301.683 433.798 302.814 434.966C303.946 436.133 305.257 436.705 306.734 436.705ZM303.553 430.855C303.553 429.879 303.898 429.045 304.613 428.354C305.328 427.663 306.198 427.305 307.222 427.305C308.247 427.305 309.105 427.663 309.819 428.354C310.522 429.045 310.88 429.879 310.88 430.855C310.88 431.832 310.522 432.654 309.819 433.345C309.105 434.036 308.247 434.382 307.222 434.382C306.198 434.382 305.328 434.036 304.613 433.345C303.898 432.654 303.553 431.832 303.553 430.855Z" fill="#252A2F"/>
<path d="M227.379 495.447C227.379 498.116 228.07 500.248 229.464 501.844C230.846 503.441 232.549 504.227 234.575 504.227C236.588 504.227 238.291 503.441 239.685 501.844C241.079 500.248 241.782 498.116 241.782 495.447C241.782 492.779 241.079 490.658 239.685 489.062C238.291 487.465 236.588 486.667 234.575 486.667C232.549 486.667 230.846 487.465 229.464 489.062C228.07 490.658 227.379 492.779 227.379 495.447ZM239.09 495.447C239.09 497.425 238.637 498.973 237.755 500.105C236.874 501.237 235.814 501.797 234.575 501.797C233.336 501.797 232.275 501.237 231.382 500.105C230.5 498.973 230.048 497.425 230.048 495.447C230.048 493.481 230.5 491.933 231.382 490.801C232.275 489.681 233.336 489.109 234.575 489.109C235.814 489.109 236.874 489.681 237.755 490.801C238.637 491.933 239.09 493.481 239.09 495.447Z" fill="#252A2F"/>
<path d="M141.706 492.679V499.713H142.81V496.647H145.821V495.646H142.81V493.684H146.626V492.679H141.706ZM150.899 497.304C150.899 497.756 150.746 498.133 150.452 498.442C150.153 498.756 149.8 498.908 149.393 498.908C148.981 498.908 148.627 498.756 148.328 498.442C148.029 498.133 147.882 497.756 147.882 497.304C147.882 496.853 148.029 496.475 148.328 496.161C148.627 495.852 148.981 495.695 149.393 495.695C149.8 495.695 150.153 495.852 150.452 496.161C150.746 496.475 150.899 496.853 150.899 497.304ZM146.881 497.304C146.881 497.981 147.126 498.565 147.627 499.065C148.127 499.566 148.716 499.816 149.393 499.816C150.07 499.816 150.653 499.566 151.154 499.065C151.654 498.565 151.904 497.981 151.904 497.304C151.904 496.627 151.654 496.039 151.154 495.538C150.653 495.038 150.07 494.788 149.393 494.788C148.716 494.788 148.127 495.038 147.627 495.538C147.126 496.039 146.881 496.627 146.881 497.304ZM155.721 495.744V494.788H155.47C155.304 494.788 155.137 494.812 154.97 494.857C154.803 494.901 154.671 494.95 154.563 495.004C154.455 495.058 154.357 495.117 154.259 495.185C154.166 495.254 154.102 495.298 154.072 495.327L154.009 495.391V494.891H153.003V499.713H154.009V497.103C154.009 496.662 154.126 496.313 154.352 496.068C154.578 495.823 154.882 495.695 155.264 495.695C155.431 495.695 155.583 495.715 155.721 495.744ZM159.934 499.423C159.934 499.865 159.802 500.228 159.537 500.503C159.272 500.782 158.939 500.92 158.531 500.92C158.345 500.92 158.168 500.895 158.002 500.841C157.83 500.787 157.693 500.728 157.585 500.66C157.477 500.591 157.374 500.517 157.276 500.429C157.177 500.341 157.119 500.282 157.089 500.248C157.06 500.213 157.035 500.184 157.025 500.164L156.368 500.817L156.451 500.92C156.501 500.993 156.589 501.077 156.711 501.175C156.829 501.273 156.971 501.371 157.133 501.469C157.29 501.567 157.496 501.651 157.746 501.719C157.992 501.788 158.257 501.822 158.531 501.822C159.208 501.822 159.777 501.592 160.243 501.126C160.704 500.665 160.94 500.091 160.94 499.414V494.891H159.934V495.391L159.768 495.244C159.66 495.146 159.483 495.043 159.243 494.94C158.997 494.842 158.742 494.788 158.477 494.788C157.869 494.788 157.339 495.023 156.893 495.494C156.442 495.965 156.221 496.534 156.221 497.201C156.221 497.873 156.442 498.442 156.893 498.913C157.339 499.384 157.869 499.615 158.477 499.615C158.644 499.615 158.811 499.595 158.978 499.551C159.14 499.507 159.277 499.458 159.385 499.404C159.493 499.35 159.591 499.291 159.684 499.222C159.777 499.154 159.841 499.105 159.871 499.075L159.934 499.011V499.423ZM157.222 497.201C157.222 496.779 157.354 496.426 157.629 496.132C157.899 495.843 158.217 495.695 158.58 495.695C158.943 495.695 159.257 495.843 159.527 496.132C159.797 496.426 159.934 496.779 159.934 497.201C159.934 497.623 159.797 497.981 159.527 498.271C159.257 498.565 158.943 498.707 158.58 498.707C158.217 498.707 157.899 498.565 157.629 498.271C157.354 497.981 157.222 497.623 157.222 497.201ZM166.066 497.304C166.066 497.756 165.914 498.133 165.62 498.442C165.32 498.756 164.967 498.908 164.56 498.908C164.148 498.908 163.795 498.756 163.496 498.442C163.196 498.133 163.049 497.756 163.049 497.304C163.049 496.853 163.196 496.475 163.496 496.161C163.795 495.852 164.148 495.695 164.56 495.695C164.967 495.695 165.32 495.852 165.62 496.161C165.914 496.475 166.066 496.853 166.066 497.304ZM162.049 497.304C162.049 497.981 162.294 498.565 162.794 499.065C163.295 499.566 163.883 499.816 164.56 499.816C165.237 499.816 165.821 499.566 166.321 499.065C166.821 498.565 167.072 497.981 167.072 497.304C167.072 496.627 166.821 496.039 166.321 495.538C165.821 495.038 165.237 494.788 164.56 494.788C163.883 494.788 163.295 495.038 162.794 495.538C162.294 496.039 162.049 496.627 162.049 497.304ZM168.779 494.288C168.779 494.69 168.612 494.891 168.278 494.891H167.773V495.793H168.681V498.305C168.676 499.311 169.142 499.811 170.079 499.811C170.353 499.811 170.589 499.782 170.785 499.713V498.81L170.711 498.83C170.667 498.85 170.604 498.869 170.52 498.884C170.437 498.903 170.358 498.908 170.28 498.908C170.108 498.908 169.966 498.854 169.853 498.737C169.735 498.624 169.681 498.477 169.681 498.295V495.793H170.687V494.891H169.681V493.282H168.779V494.288ZM173.4 497.402C173.4 497.54 173.414 497.687 173.449 497.854H174.351V497.756C174.351 497.476 174.415 497.231 174.552 497.025C174.685 496.819 174.847 496.647 175.043 496.51C175.239 496.372 175.43 496.225 175.622 496.068C175.813 495.911 175.975 495.705 176.112 495.44C176.245 495.175 176.313 494.861 176.313 494.489C176.313 493.969 176.098 493.517 175.676 493.145C175.249 492.772 174.709 492.58 174.052 492.58C173.694 492.58 173.37 492.644 173.081 492.762C172.786 492.885 172.566 493.017 172.414 493.159C172.257 493.306 172.124 493.473 172.007 493.66C171.889 493.851 171.815 493.983 171.796 494.057C171.771 494.135 171.751 494.194 171.742 494.238L172.644 494.592L172.683 494.489C172.703 494.42 172.747 494.332 172.811 494.234C172.87 494.135 172.953 494.042 173.051 493.944C173.149 493.846 173.287 493.763 173.463 493.694C173.64 493.625 173.836 493.586 174.052 493.586C174.391 493.586 174.665 493.684 174.881 493.88C175.097 494.077 175.205 494.312 175.205 494.592C175.205 494.812 175.141 495.014 175.018 495.195C174.896 495.377 174.744 495.538 174.567 495.676C174.391 495.818 174.214 495.96 174.037 496.103C173.861 496.25 173.709 496.431 173.586 496.657C173.459 496.882 173.4 497.128 173.4 497.402ZM173.248 499.163C173.248 499.34 173.311 499.492 173.444 499.62C173.571 499.747 173.723 499.811 173.9 499.811C174.072 499.811 174.224 499.747 174.356 499.62C174.484 499.492 174.552 499.34 174.552 499.163C174.552 498.987 174.484 498.835 174.356 498.702C174.224 498.575 174.072 498.506 173.9 498.506C173.723 498.506 173.571 498.575 173.444 498.702C173.311 498.835 173.248 498.987 173.248 499.163Z" fill="#252A2F"/>
<path d="M299.342 490.008C299.342 490.354 299.622 490.633 299.967 490.633C300.312 490.633 300.592 490.354 300.592 490.008H299.342ZM305.367 485.392C305.713 485.392 305.992 485.112 305.992 484.767C305.992 484.421 305.713 484.142 305.367 484.142V485.392ZM300.592 490.008V487.64H299.342V490.008H300.592ZM302.678 485.392H305.367V484.142H302.678V485.392ZM300.651 487.125L300.684 486.978L299.466 486.697L299.433 486.844L300.651 487.125ZM300.684 486.978C300.857 486.228 301.436 485.639 302.182 485.453L301.879 484.24C300.677 484.54 299.745 485.489 299.466 486.697L300.684 486.978ZM302.678 484.142C302.409 484.142 302.14 484.175 301.879 484.24L302.182 485.453C302.344 485.412 302.511 485.392 302.678 485.392V484.142ZM300.592 487.64C300.592 487.467 300.611 487.294 300.651 487.125L299.433 486.844C299.372 487.105 299.342 487.372 299.342 487.64H300.592Z" fill="black"/>
<path d="M321.081 490.008C321.081 490.353 320.801 490.633 320.456 490.633C320.111 490.633 319.831 490.353 319.831 490.008H321.081ZM315.055 485.391C314.71 485.391 314.43 485.111 314.43 484.766C314.43 484.421 314.71 484.141 315.055 484.141V485.391ZM319.831 490.008V487.64H321.081V490.008H319.831ZM317.745 485.391H315.055V484.141H317.745V485.391ZM319.772 487.124L319.738 486.977L320.956 486.696L320.99 486.843L319.772 487.124ZM319.738 486.977C319.565 486.228 318.987 485.639 318.241 485.452L318.544 484.24C319.746 484.54 320.678 485.489 320.956 486.696L319.738 486.977ZM317.745 484.141C318.014 484.141 318.283 484.174 318.544 484.24L318.241 485.452C318.079 485.412 317.912 485.391 317.745 485.391V484.141ZM319.831 487.64C319.831 487.466 319.811 487.293 319.772 487.124L320.99 486.843C321.051 487.105 321.081 487.372 321.081 487.64H319.831Z" fill="black"/>
<path d="M321.081 499.856C321.081 499.511 320.801 499.231 320.456 499.231C320.111 499.231 319.831 499.511 319.831 499.856H321.081ZM315.055 504.473C314.71 504.473 314.43 504.752 314.43 505.098C314.43 505.443 314.71 505.723 315.055 505.723V504.473ZM319.831 499.856V502.224H321.081V499.856H319.831ZM317.745 504.473H315.055V505.723H317.745V504.473ZM319.772 502.739L319.738 502.887L320.956 503.168L320.99 503.021L319.772 502.739ZM319.738 502.887C319.565 503.636 318.987 504.225 318.241 504.412L318.544 505.624C319.746 505.324 320.678 504.375 320.956 503.168L319.738 502.887ZM317.745 505.723C318.014 505.723 318.283 505.69 318.544 505.624L318.241 504.412C318.079 504.452 317.912 504.473 317.745 504.473V505.723ZM319.831 502.224C319.831 502.397 319.811 502.57 319.772 502.739L320.99 503.021C321.051 502.759 321.081 502.492 321.081 502.224H319.831Z" fill="black"/>
<path d="M299.341 499.856C299.341 499.511 299.621 499.231 299.966 499.231C300.311 499.231 300.591 499.511 300.591 499.856H299.341ZM305.366 504.473C305.712 504.473 305.991 504.752 305.991 505.098C305.991 505.443 305.712 505.723 305.366 505.723V504.473ZM300.591 499.856V502.224H299.341V499.856H300.591ZM302.677 504.473H305.366V505.723H302.677V504.473ZM300.65 502.739L300.683 502.887L299.465 503.168L299.432 503.021L300.65 502.739ZM300.683 502.887C300.856 503.636 301.435 504.225 302.181 504.412L301.878 505.624C300.676 505.324 299.744 504.375 299.465 503.168L300.683 502.887ZM302.677 505.723C302.408 505.723 302.139 505.69 301.878 505.624L302.181 504.412C302.343 504.452 302.51 504.473 302.677 504.473V505.723ZM300.591 502.224C300.591 502.397 300.611 502.57 300.65 502.739L299.432 503.021C299.371 502.759 299.341 502.492 299.341 502.224H300.591Z" fill="black"/>
<path d="M305.525 491.755V493.979" stroke="black" stroke-width="1.25" stroke-linecap="round" stroke-linejoin="round"/>
<path d="M314.738 491.755V493.979" stroke="black" stroke-width="1.25" stroke-linecap="round" stroke-linejoin="round"/>
<path d="M306.637 499.697C307.802 500.756 310.798 502.239 313.467 499.697" stroke="black" stroke-width="1.25" stroke-linecap="round" stroke-linejoin="round"/>
<path d="M310.608 491.755V496.044C310.608 496.521 310.29 497.41 309.02 497.156" stroke="black" stroke-width="1.25" stroke-linecap="round" stroke-linejoin="round"/>
<rect opacity="0.95" x="177.975" y="251.468" width="105.047" height="105.047" rx="10.3652" fill="#F7F9FB"/>
<path d="M207.456 278.83C207.456 279.391 207.911 279.846 208.473 279.846C209.034 279.846 209.489 279.391 209.489 278.83H207.456ZM219.905 268.75C220.466 268.75 220.921 268.295 220.921 267.734C220.921 267.172 220.466 266.717 219.905 266.717V268.75ZM208.631 272.428L209.621 272.657V272.657L208.631 272.428ZM208.703 272.117L207.712 271.888L207.712 271.888L208.703 272.117ZM212.841 267.903L212.594 266.916V266.916L212.841 267.903ZM209.489 278.83V273.817H207.456V278.83H209.489ZM214.212 268.75H219.905V266.717H214.212V268.75ZM209.621 272.657L209.693 272.345L207.712 271.888L207.64 272.2L209.621 272.657ZM209.693 272.345C210.085 270.647 211.396 269.312 213.087 268.889L212.594 266.916C210.162 267.525 208.276 269.445 207.712 271.888L209.693 272.345ZM214.212 266.717C213.667 266.717 213.123 266.784 212.594 266.916L213.087 268.889C213.455 268.797 213.833 268.75 214.212 268.75V266.717ZM209.489 273.817C209.489 273.427 209.534 273.037 209.621 272.657L207.64 272.2C207.518 272.73 207.456 273.273 207.456 273.817H209.489Z" fill="#252A2F"/>
<path d="M252.863 278.829C252.863 279.391 252.408 279.846 251.847 279.846C251.285 279.846 250.83 279.391 250.83 278.829H252.863ZM240.415 268.75C239.853 268.75 239.398 268.295 239.398 267.733C239.398 267.172 239.853 266.717 240.415 266.717V268.75ZM251.689 272.428L250.698 272.656V272.656L251.689 272.428ZM251.617 272.116L252.607 271.888L252.607 271.888L251.617 272.116ZM247.478 267.902L247.725 266.916V266.916L247.478 267.902ZM250.83 278.829V273.817H252.863V278.829H250.83ZM246.107 268.75H240.415V266.717H246.107V268.75ZM250.698 272.656L250.626 272.345L252.607 271.888L252.679 272.199L250.698 272.656ZM250.626 272.345C250.234 270.646 248.923 269.311 247.232 268.888L247.725 266.916C250.157 267.524 252.043 269.445 252.607 271.888L250.626 272.345ZM246.107 266.717C246.652 266.717 247.196 266.784 247.725 266.916L247.232 268.888C246.864 268.796 246.486 268.75 246.107 268.75V266.717ZM250.83 273.817C250.83 273.426 250.786 273.037 250.698 272.656L252.679 272.199C252.801 272.73 252.863 273.272 252.863 273.817H250.83Z" fill="#252A2F"/>
<path d="M252.863 299.676C252.863 299.114 252.408 298.659 251.847 298.659C251.285 298.659 250.83 299.114 250.83 299.676H252.863ZM240.415 309.755C239.853 309.755 239.398 310.21 239.398 310.771C239.398 311.333 239.853 311.788 240.415 311.788V309.755ZM251.689 306.077L250.698 305.849V305.849L251.689 306.077ZM251.617 306.389L252.607 306.617L252.607 306.617L251.617 306.389ZM247.478 310.603L247.725 311.589V311.589L247.478 310.603ZM250.83 299.676V304.688H252.863V299.676H250.83ZM246.107 309.755H240.415V311.788H246.107V309.755ZM250.698 305.849L250.626 306.16L252.607 306.617L252.679 306.306L250.698 305.849ZM250.626 306.16C250.234 307.858 248.923 309.194 247.232 309.616L247.725 311.589C250.157 310.981 252.043 309.06 252.607 306.617L250.626 306.16ZM246.107 311.788C246.652 311.788 247.196 311.721 247.725 311.589L247.232 309.616C246.864 309.708 246.486 309.755 246.107 309.755V311.788ZM250.83 304.688C250.83 305.079 250.786 305.468 250.698 305.849L252.679 306.306C252.801 305.775 252.863 305.233 252.863 304.688H250.83Z" fill="#252A2F"/>
<path d="M207.456 299.676C207.456 299.114 207.911 298.659 208.473 298.659C209.034 298.659 209.489 299.114 209.489 299.676H207.456ZM219.905 309.755C220.466 309.755 220.921 310.21 220.921 310.771C220.921 311.333 220.466 311.788 219.905 311.788V309.755ZM208.631 306.077L209.621 305.849V305.849L208.631 306.077ZM208.703 306.389L207.712 306.617L207.712 306.617L208.703 306.389ZM212.841 310.603L212.594 311.589V311.589L212.841 310.603ZM209.489 299.676V304.688H207.456V299.676H209.489ZM214.212 309.755H219.905V311.788H214.212V309.755ZM209.621 305.849L209.693 306.16L207.712 306.617L207.64 306.306L209.621 305.849ZM209.693 306.16C210.085 307.858 211.396 309.194 213.087 309.616L212.594 311.589C210.162 310.981 208.276 309.06 207.712 306.617L209.693 306.16ZM214.212 311.788C213.667 311.788 213.123 311.721 212.594 311.589L213.087 309.616C213.455 309.708 213.833 309.755 214.212 309.755V311.788ZM209.489 304.688C209.489 305.079 209.534 305.468 209.621 305.849L207.64 306.306C207.518 305.775 207.456 305.233 207.456 304.688H209.489Z" fill="#252A2F"/>
<path d="M220.241 282.528V287.235" stroke="#252A2F" stroke-width="2.03318" stroke-linecap="round" stroke-linejoin="round"/>
<path d="M239.743 282.528V287.235" stroke="#252A2F" stroke-width="2.03318" stroke-linecap="round" stroke-linejoin="round"/>
<path d="M222.595 299.339C225.06 301.581 231.404 304.719 237.053 299.339" stroke="#252A2F" stroke-width="2.03318" stroke-linecap="round" stroke-linejoin="round"/>
<path d="M231.001 282.528V291.606C231.001 292.615 230.329 294.498 227.639 293.96" stroke="#252A2F" stroke-width="2.01741" stroke-linecap="round" stroke-linejoin="round"/>
<path d="M211.33 330.275H216.676V331.446H212.685V333.474H216.188V334.58H212.685V338.018H211.33V330.275ZM222.28 336.771C222.28 336.922 222.298 337.031 222.334 337.096C222.377 337.161 222.457 337.193 222.572 337.193C222.608 337.193 222.652 337.193 222.702 337.193C222.753 337.193 222.811 337.186 222.876 337.172V338.028C222.833 338.043 222.775 338.057 222.702 338.072C222.637 338.093 222.569 338.112 222.496 338.126C222.424 338.14 222.352 338.151 222.28 338.159C222.207 338.166 222.146 338.169 222.095 338.169C221.842 338.169 221.633 338.119 221.466 338.018C221.3 337.916 221.192 337.739 221.141 337.486C220.895 337.725 220.592 337.898 220.23 338.007C219.876 338.115 219.533 338.169 219.2 338.169C218.947 338.169 218.705 338.133 218.473 338.061C218.242 337.996 218.036 337.898 217.855 337.768C217.682 337.631 217.541 337.461 217.432 337.259C217.331 337.049 217.281 336.807 217.281 336.532C217.281 336.185 217.342 335.903 217.465 335.686C217.595 335.469 217.761 335.299 217.964 335.177C218.173 335.054 218.405 334.967 218.658 334.916C218.918 334.858 219.178 334.815 219.439 334.786C219.663 334.743 219.876 334.714 220.078 334.699C220.281 334.678 220.458 334.645 220.61 334.602C220.769 334.558 220.892 334.493 220.978 334.407C221.072 334.313 221.119 334.175 221.119 333.995C221.119 333.836 221.08 333.705 221 333.604C220.928 333.503 220.834 333.427 220.718 333.377C220.61 333.319 220.487 333.283 220.349 333.268C220.212 333.246 220.082 333.236 219.959 333.236C219.612 333.236 219.326 333.308 219.102 333.452C218.878 333.597 218.752 333.821 218.723 334.125H217.487C217.508 333.763 217.595 333.463 217.747 333.225C217.899 332.986 218.09 332.795 218.322 332.65C218.56 332.505 218.828 332.404 219.124 332.346C219.42 332.289 219.724 332.26 220.035 332.26C220.31 332.26 220.581 332.289 220.848 332.346C221.116 332.404 221.354 332.498 221.564 332.628C221.781 332.758 221.954 332.928 222.084 333.138C222.214 333.34 222.28 333.59 222.28 333.886V336.771ZM221.043 335.209C220.855 335.332 220.624 335.408 220.349 335.437C220.075 335.458 219.8 335.495 219.525 335.545C219.395 335.567 219.269 335.599 219.146 335.643C219.023 335.679 218.914 335.733 218.82 335.805C218.726 335.871 218.651 335.961 218.593 336.077C218.542 336.185 218.517 336.319 218.517 336.478C218.517 336.615 218.557 336.731 218.636 336.825C218.716 336.919 218.81 336.995 218.918 337.052C219.034 337.103 219.157 337.139 219.287 337.161C219.424 337.183 219.547 337.193 219.655 337.193C219.793 337.193 219.941 337.175 220.1 337.139C220.259 337.103 220.407 337.042 220.545 336.955C220.689 336.868 220.808 336.76 220.902 336.63C220.996 336.492 221.043 336.326 221.043 336.131V335.209ZM227.394 334.287C227.343 333.94 227.203 333.68 226.971 333.507C226.747 333.326 226.462 333.236 226.115 333.236C225.956 333.236 225.786 333.264 225.605 333.322C225.424 333.373 225.258 333.474 225.106 333.626C224.954 333.771 224.828 333.977 224.727 334.244C224.625 334.504 224.575 334.848 224.575 335.274C224.575 335.505 224.6 335.737 224.651 335.968C224.708 336.199 224.795 336.405 224.911 336.586C225.034 336.767 225.189 336.915 225.377 337.031C225.565 337.139 225.793 337.193 226.06 337.193C226.422 337.193 226.718 337.081 226.95 336.857C227.188 336.633 227.336 336.319 227.394 335.914H228.63C228.515 336.644 228.236 337.204 227.795 337.595C227.362 337.978 226.783 338.169 226.06 338.169C225.619 338.169 225.229 338.097 224.889 337.953C224.557 337.801 224.275 337.598 224.043 337.345C223.812 337.085 223.635 336.778 223.512 336.424C223.396 336.069 223.339 335.686 223.339 335.274C223.339 334.855 223.396 334.461 223.512 334.092C223.628 333.724 223.801 333.405 224.033 333.138C224.264 332.863 224.549 332.65 224.889 332.498C225.236 332.339 225.641 332.26 226.104 332.26C226.429 332.26 226.736 332.303 227.025 332.39C227.322 332.469 227.582 332.592 227.806 332.758C228.037 332.925 228.225 333.134 228.37 333.387C228.515 333.64 228.601 333.94 228.63 334.287H227.394ZM233.485 334.721C233.47 334.526 233.427 334.338 233.354 334.157C233.289 333.977 233.195 333.821 233.072 333.691C232.957 333.554 232.812 333.445 232.639 333.366C232.472 333.279 232.285 333.236 232.075 333.236C231.858 333.236 231.659 333.275 231.478 333.355C231.305 333.427 231.153 333.532 231.023 333.669C230.9 333.799 230.799 333.955 230.719 334.136C230.647 334.316 230.607 334.511 230.6 334.721H233.485ZM230.6 335.534C230.6 335.751 230.629 335.961 230.687 336.163C230.752 336.366 230.846 336.543 230.969 336.695C231.092 336.846 231.247 336.969 231.435 337.063C231.623 337.15 231.847 337.193 232.107 337.193C232.469 337.193 232.758 337.118 232.975 336.966C233.199 336.807 233.365 336.572 233.474 336.261H234.645C234.58 336.565 234.468 336.836 234.309 337.074C234.15 337.313 233.958 337.515 233.734 337.681C233.51 337.84 233.257 337.96 232.975 338.039C232.7 338.126 232.411 338.169 232.107 338.169C231.666 338.169 231.276 338.097 230.936 337.953C230.597 337.808 230.307 337.606 230.069 337.345C229.837 337.085 229.66 336.774 229.537 336.413C229.422 336.051 229.364 335.654 229.364 335.22C229.364 334.822 229.425 334.446 229.548 334.092C229.678 333.731 229.859 333.416 230.091 333.149C230.329 332.874 230.615 332.657 230.947 332.498C231.28 332.339 231.656 332.26 232.075 332.26C232.516 332.26 232.91 332.354 233.257 332.542C233.611 332.722 233.904 332.964 234.135 333.268C234.367 333.572 234.533 333.922 234.634 334.32C234.742 334.71 234.771 335.115 234.721 335.534H230.6ZM238.852 330.275H240.207V338.018H238.852V330.275ZM241.87 330.275H245.08C245.672 330.275 246.186 330.376 246.619 330.579C247.053 330.781 247.407 331.06 247.682 331.414C247.957 331.761 248.159 332.169 248.289 332.639C248.427 333.109 248.495 333.611 248.495 334.146C248.495 334.681 248.427 335.184 248.289 335.654C248.159 336.124 247.957 336.536 247.682 336.89C247.407 337.237 247.053 337.512 246.619 337.714C246.186 337.916 245.672 338.018 245.08 338.018H241.87V330.275ZM243.225 336.912H244.559C245.087 336.912 245.517 336.843 245.85 336.706C246.189 336.561 246.453 336.366 246.641 336.12C246.836 335.867 246.966 335.574 247.032 335.242C247.104 334.902 247.14 334.537 247.14 334.146C247.14 333.756 247.104 333.395 247.032 333.062C246.966 332.722 246.836 332.43 246.641 332.184C246.453 331.931 246.189 331.736 245.85 331.598C245.517 331.454 245.087 331.381 244.559 331.381H243.225V336.912Z" fill="#252A2F"/>
<defs>
<filter id="filter0_d" x="34" y="37.6377" width="393" height="549" filterUnits="userSpaceOnUse" color-interpolation-filters="sRGB">
<feFlood flood-opacity="0" result="BackgroundImageFix"/>
<feColorMatrix in="SourceAlpha" type="matrix" values="0 0 0 0 0 0 0 0 0 0 0 0 0 0 0 0 0 0 127 0"/>
<feOffset dy="8.63767"/>
<feGaussianBlur stdDeviation="20"/>
<feColorMatrix type="matrix" values="0 0 0 0 0.0187153 0 0 0 0 0.0261333 0 0 0 0 0.204167 0 0 0 0.05 0"/>
<feBlend mode="normal" in2="BackgroundImageFix" result="effect1_dropShadow"/>
<feBlend mode="normal" in="SourceGraphic" in2="effect1_dropShadow" result="shape"/>
</filter>
<linearGradient id="paint0_linear" x1="6.26697" y1="148.599" x2="106.98" y2="-12.4296" gradientUnits="userSpaceOnUse">
<stop stop-color="#06961C"/>
<stop offset="0.0894386" stop-color="#089820"/>
<stop offset="0.1757" stop-color="#0F9D2B"/>
<stop offset="0.2607" stop-color="#1AA63F"/>
<stop offset="0.2613" stop-color="#1AA63F"/>
<stop offset="0.2887" stop-color="#1BAA41"/>
<stop offset="0.3163" stop-color="#1CB649"/>
<stop offset="0.3439" stop-color="#1FCA55"/>
<stop offset="0.3613" stop-color="#21DB5F"/>
<stop offset="0.4689" stop-color="#26C84F"/>
<stop offset="0.5538" stop-color="#28BF47"/>
<stop offset="0.6088" stop-color="#2BC14B"/>
<stop offset="0.6619" stop-color="#35C756"/>
<stop offset="0.7143" stop-color="#45D16A"/>
<stop offset="0.7659" stop-color="#5CDF85"/>
<stop offset="0.7675" stop-color="#5DE086"/>
<stop offset="0.8301" stop-color="#3CD87E"/>
<stop offset="0.8897" stop-color="#22D177"/>
<stop offset="0.9256" stop-color="#19CF75"/>
</linearGradient>
<linearGradient id="paint1_linear" x1="86.7966" y1="24.4114" x2="43.1052" y2="171.293" gradientUnits="userSpaceOnUse">
<stop offset="0.1525" stop-color="#A4FCA4"/>
<stop offset="0.9995" stop-color="#63CE63"/>
</linearGradient>
<linearGradient id="paint2_linear" x1="87.873" y1="54.3911" x2="52.3047" y2="129.827" gradientUnits="userSpaceOnUse">
<stop offset="0.4413" stop-color="#35D467"/>
<stop offset="0.5315" stop-color="#2ACF64"/>
<stop offset="0.6721" stop-color="#11C25D"/>
</linearGradient>
<linearGradient id="paint3_linear" x1="93.0841" y1="57.3912" x2="57.727" y2="132.379" gradientUnits="userSpaceOnUse">
<stop offset="0.1387" stop-color="#E6FFF2"/>
<stop offset="1" stop-color="#C6F5D8"/>
</linearGradient>
</defs>
</svg>
