<svg width="568" height="418" viewBox="0 0 568 418" fill="none" xmlns="http://www.w3.org/2000/svg">
<path d="M270.935 417.944V325.103H137.083C143.121 316.549 152.431 307.994 164.508 298.936C176.584 290.13 188.41 281.828 199.983 274.028C211.557 266.48 222.628 257.674 233.698 248.113C244.769 238.552 253.575 226.727 260.62 212.637C267.413 198.547 270.935 182.948 270.935 165.336C270.935 132.627 258.355 104.7 233.698 81.5522C209.041 58.4048 177.591 46.8311 139.599 46.8311C119.974 46.8311 101.607 50.1019 84.7496 56.3919C67.6407 62.9336 54.3058 69.9785 44.7449 77.5265C35.184 85.3262 26.6295 94.1323 19.0815 104.196C11.5334 114.26 6.75295 121.054 4.74013 125.079C2.72731 129.105 1.4693 132.376 0.462891 134.64L82.9884 173.135L87.0141 164.832C89.7817 159.549 95.0653 154.014 102.865 148.227C110.413 142.691 119.219 139.672 129.283 139.672C154.947 139.672 168.03 150.994 168.03 173.135C168.03 181.69 165.011 189.993 158.972 197.792C152.934 205.592 144.883 212.889 135.07 219.682C125.258 226.475 114.439 233.771 102.865 241.32C91.2913 248.868 79.466 258.177 67.8923 268.744C56.3186 279.311 45.4997 291.137 35.6872 303.969C25.8747 316.8 18.075 333.154 12.0366 352.779C5.99814 372.656 2.97891 394.294 2.97891 417.944H270.935Z" fill="#F6F8FB"/>
<path d="M270.935 417.944V325.103H137.083C143.121 316.549 152.431 307.994 164.508 298.936C176.584 290.13 188.41 281.828 199.983 274.028C211.557 266.48 222.628 257.674 233.698 248.113C244.769 238.552 253.575 226.727 260.62 212.637C267.413 198.547 270.935 182.948 270.935 165.336C270.935 132.627 258.355 104.7 233.698 81.5522C209.041 58.4048 177.591 46.8311 139.599 46.8311C119.974 46.8311 101.607 50.1019 84.7496 56.3919C67.6407 62.9336 54.3058 69.9785 44.7449 77.5265C35.184 85.3262 26.6295 94.1323 19.0815 104.196C11.5334 114.26 6.75295 121.054 4.74013 125.079C2.72731 129.105 1.4693 132.376 0.462891 134.64L82.9884 173.135L87.0141 164.832C89.7817 159.549 95.0653 154.014 102.865 148.227C110.413 142.691 119.219 139.672 129.283 139.672C154.947 139.672 168.03 150.994 168.03 173.135C168.03 181.69 165.011 189.993 158.972 197.792C152.934 205.592 144.883 212.889 135.07 219.682C125.258 226.475 114.439 233.771 102.865 241.32C91.2913 248.868 79.466 258.177 67.8923 268.744C56.3186 279.311 45.4997 291.137 35.6872 303.969C25.8747 316.8 18.075 333.154 12.0366 352.779C5.99814 372.656 2.97891 394.294 2.97891 417.944H270.935Z" fill="url(#paint0_linear)"/>
<path d="M321.37 250H377.326L531.035 5.3621H475.079L321.37 250ZM326.658 59.6124C326.658 53.6415 328.535 48.6941 332.629 44.7704C336.553 40.676 341.5 38.7994 347.471 38.7994C353.613 38.7994 358.56 40.676 362.484 44.7704C366.578 48.6941 368.455 53.6415 368.455 59.6124C368.455 65.754 366.578 70.7014 362.484 74.6251C358.56 78.7195 353.613 80.5961 347.471 80.5961C341.5 80.5961 336.553 78.7195 332.629 74.6251C328.535 70.7014 326.658 65.754 326.658 59.6124ZM410.422 59.6124C410.422 43.9174 404.11 30.0989 391.827 18.157C379.544 6.21509 364.702 0.244141 347.471 0.244141C330.241 0.244141 315.399 6.21509 303.116 18.157C290.832 30.0989 284.691 43.9174 284.691 59.6124C284.691 75.4781 290.832 89.2966 303.116 101.238C315.399 113.18 330.241 119.151 347.471 119.151C364.702 119.151 379.544 113.18 391.827 101.238C404.11 89.2966 410.422 75.4781 410.422 59.6124ZM483.95 195.921C483.95 189.779 485.827 184.832 489.75 180.908C493.674 176.984 498.622 174.937 504.763 174.937C510.905 174.937 515.852 176.984 519.776 180.908C523.7 184.832 525.747 189.779 525.747 195.921C525.747 202.062 523.7 207.01 519.776 210.933C515.852 214.857 510.905 216.734 504.763 216.734C498.622 216.734 493.674 214.857 489.75 210.933C485.827 207.01 483.95 202.062 483.95 195.921ZM567.714 195.921C567.714 180.055 561.402 166.237 549.119 154.295C536.836 142.353 521.994 136.382 504.763 136.382C487.533 136.382 472.691 142.353 460.407 154.295C448.124 166.237 441.983 180.055 441.983 195.921C441.983 211.786 448.124 225.605 460.407 237.547C472.691 249.489 487.533 255.289 504.763 255.289C521.994 255.289 536.836 249.489 549.119 237.547C561.402 225.605 567.714 211.786 567.714 195.921Z" fill="#F6F8FB"/>
<path d="M321.37 250H377.326L531.035 5.3621H475.079L321.37 250ZM326.658 59.6124C326.658 53.6415 328.535 48.6941 332.629 44.7704C336.553 40.676 341.5 38.7994 347.471 38.7994C353.613 38.7994 358.56 40.676 362.484 44.7704C366.578 48.6941 368.455 53.6415 368.455 59.6124C368.455 65.754 366.578 70.7014 362.484 74.6251C358.56 78.7195 353.613 80.5961 347.471 80.5961C341.5 80.5961 336.553 78.7195 332.629 74.6251C328.535 70.7014 326.658 65.754 326.658 59.6124ZM410.422 59.6124C410.422 43.9174 404.11 30.0989 391.827 18.157C379.544 6.21509 364.702 0.244141 347.471 0.244141C330.241 0.244141 315.399 6.21509 303.116 18.157C290.832 30.0989 284.691 43.9174 284.691 59.6124C284.691 75.4781 290.832 89.2966 303.116 101.238C315.399 113.18 330.241 119.151 347.471 119.151C364.702 119.151 379.544 113.18 391.827 101.238C404.11 89.2966 410.422 75.4781 410.422 59.6124ZM483.95 195.921C483.95 189.779 485.827 184.832 489.75 180.908C493.674 176.984 498.622 174.937 504.763 174.937C510.905 174.937 515.852 176.984 519.776 180.908C523.7 184.832 525.747 189.779 525.747 195.921C525.747 202.062 523.7 207.01 519.776 210.933C515.852 214.857 510.905 216.734 504.763 216.734C498.622 216.734 493.674 214.857 489.75 210.933C485.827 207.01 483.95 202.062 483.95 195.921ZM567.714 195.921C567.714 180.055 561.402 166.237 549.119 154.295C536.836 142.353 521.994 136.382 504.763 136.382C487.533 136.382 472.691 142.353 460.407 154.295C448.124 166.237 441.983 180.055 441.983 195.921C441.983 211.786 448.124 225.605 460.407 237.547C472.691 249.489 487.533 255.289 504.763 255.289C521.994 255.289 536.836 249.489 549.119 237.547C561.402 225.605 567.714 211.786 567.714 195.921Z" fill="url(#paint1_linear)"/>
<defs>
<linearGradient id="paint0_linear" x1="140.874" y1="437.493" x2="140.874" y2="-114.705" gradientUnits="userSpaceOnUse">
<stop stop-color="white"/>
<stop offset="0.17262" stop-color="white" stop-opacity="0.2"/>
</linearGradient>
<linearGradient id="paint1_linear" x1="426.495" y1="-153.237" x2="426.495" y2="294.669" gradientUnits="userSpaceOnUse">
<stop stop-color="white"/>
<stop offset="1" stop-color="white" stop-opacity="0"/>
</linearGradient>
</defs>
</svg>
