<svg width="491" height="370" viewBox="0 0 491 370" fill="none" xmlns="http://www.w3.org/2000/svg">
<rect x="475.347" y="223.407" width="14.4347" height="14.4347" stroke="#3A8EF6" stroke-width="1.6982"/>
<path d="M3.53646 173.311L10.8899 160.574L18.2433 173.311H3.53646Z" stroke="#3A8EF6" stroke-width="1.6982"/>
<circle cx="426.099" cy="89.2498" r="6.79279" stroke="#3A8EF6" stroke-width="1.6982"/>
<path d="M19.3809 165.669L414.637 91.3726" stroke="#3A8EF6" stroke-width="0.849099" stroke-linecap="round" stroke-dasharray="6.79 5.09"/>
<path d="M430.885 98.8528L481.715 218.737" stroke="#3A8EF6" stroke-width="0.849099" stroke-linecap="round" stroke-dasharray="6.79 5.09"/>
<g filter="url(#filter0_d)">
<g filter="url(#filter1_b)">
<rect x="161.181" y="20.4731" width="216.246" height="258.335" rx="9.97356" fill="#FBFCFF"/>
</g>
</g>
<rect x="190.187" y="81.3413" width="66.5528" height="4.747" rx="2.3735" fill="#E6EAF8"/>
<rect x="190.187" y="54.9712" width="66.5528" height="4.747" rx="2.3735" fill="#E6EAF8"/>
<rect x="190.187" y="134.082" width="66.5526" height="4.747" rx="2.3735" fill="#E6EAF8"/>
<rect x="190.187" y="107.711" width="66.5528" height="4.747" rx="2.3735" fill="#E6EAF8"/>
<rect x="190.187" y="160.452" width="158.233" height="4.747" rx="2.3735" fill="#E6EAF8"/>
<rect x="190.187" y="186.822" width="158.233" height="4.747" rx="2.3735" fill="#E6EAF8"/>
<rect x="190.187" y="213.192" width="102.09" height="4.747" rx="2.3735" fill="#E6EAF8"/>
<rect x="277.062" y="56.9486" width="69.3807" height="79.9017" rx="5.14258" stroke="#E6EAF8" stroke-width="3.95583" stroke-linecap="round" stroke-linejoin="round"/>
<g filter="url(#filter2_d)">
<g filter="url(#filter3_b)">
<rect x="114.876" y="69.8887" width="216.246" height="258.335" rx="9.97356" fill="white"/>
</g>
</g>
<g filter="url(#filter4_d)">
<g filter="url(#filter5_b)">
<rect x="103.838" y="80.0776" width="216.246" height="258.335" rx="9.97356" fill="white"/>
</g>
</g>
<rect x="132.845" y="149.438" width="158.233" height="4.747" rx="2.3735" fill="#DDE2F1"/>
<rect x="133.161" y="202.228" width="80.0922" height="4.747" rx="2.3735" fill="#DDE2F1"/>
<rect x="133.161" y="175.858" width="80.0922" height="4.747" rx="2.3735" fill="#DDE2F1"/>
<rect x="133.161" y="228.598" width="80.0922" height="4.747" rx="2.3735" fill="#DDE2F1"/>
<rect x="132.844" y="254.918" width="158.233" height="4.747" rx="2.3735" fill="#DDE2F1"/>
<rect x="132.844" y="281.288" width="115.331" height="4.747" rx="2.3735" fill="#DDE2F1"/>
<rect x="235.332" y="177.836" width="53.5282" height="53.5313" rx="5.14258" stroke="#DDE1F1" stroke-width="3.95583" stroke-linecap="round" stroke-linejoin="round"/>
<path d="M150.363 125.47L146.148 127.878C146.097 127.906 146.039 127.92 145.98 127.92C145.921 127.92 145.863 127.906 145.811 127.878L137.221 122.965V117.947L150.363 125.47Z" fill="#1E4DD8"/>
<path d="M145.979 112.943L150.194 115.351C150.245 115.381 150.288 115.424 150.317 115.475C150.347 115.526 150.362 115.584 150.363 115.643V125.47L145.979 122.964V112.943Z" fill="#16399E"/>
<path d="M145.98 112.943L141.604 115.448L145.98 117.954V112.943Z" fill="#1E4DD8"/>
<path d="M137.221 127.976L141.604 125.47L137.221 122.965V127.976Z" fill="#0EA5E7"/>
<path d="M137.389 113.041L145.98 117.954V122.965L132.845 115.448L137.059 113.041C137.109 113.011 137.166 112.996 137.224 112.996C137.282 112.996 137.339 113.011 137.389 113.041Z" fill="#0EA5E7"/>
<path d="M132.845 115.449V125.275C132.845 125.334 132.861 125.392 132.89 125.443C132.92 125.495 132.962 125.537 133.013 125.568L137.228 127.976V117.947L132.845 115.449Z" fill="#20BCFF"/>
<path d="M161.18 116.423C160.338 116.456 159.523 116.729 158.834 117.209V116.708C158.834 116.688 158.83 116.669 158.822 116.651C158.814 116.632 158.802 116.616 158.788 116.602C158.773 116.589 158.756 116.578 158.738 116.571C158.719 116.564 158.699 116.561 158.679 116.562H157.028C156.989 116.562 156.952 116.577 156.924 116.605C156.896 116.632 156.881 116.669 156.881 116.708V125.101C156.881 125.166 156.907 125.228 156.953 125.273C156.999 125.319 157.062 125.345 157.127 125.345H158.581C158.646 125.345 158.708 125.319 158.755 125.273C158.801 125.228 158.827 125.166 158.827 125.101V120.842C158.827 120.494 158.901 120.149 159.043 119.83C159.186 119.512 159.394 119.227 159.655 118.993C159.916 118.759 160.223 118.581 160.557 118.472C160.891 118.362 161.244 118.324 161.594 118.358C162.226 118.43 162.808 118.732 163.229 119.205C163.649 119.678 163.878 120.288 163.87 120.919V125.094C163.87 125.159 163.896 125.221 163.942 125.266C163.988 125.312 164.051 125.338 164.116 125.338H165.577C165.609 125.338 165.641 125.331 165.671 125.319C165.701 125.307 165.728 125.289 165.751 125.266C165.774 125.244 165.792 125.217 165.804 125.187C165.816 125.158 165.823 125.126 165.823 125.094V120.842C165.82 120.247 165.697 119.658 165.461 119.112C165.224 118.565 164.879 118.07 164.446 117.658C164.013 117.246 163.501 116.924 162.939 116.712C162.378 116.5 161.78 116.401 161.18 116.423Z" fill="#1E4DD8"/>
<path d="M175.692 120.473C175.595 119.376 175.089 118.354 174.274 117.606C173.459 116.858 172.392 116.436 171.281 116.423H171.07C170.538 116.444 170.014 116.562 169.525 116.771L169.42 116.82H169.377C168.601 117.173 167.945 117.743 167.49 118.46C167.034 119.177 166.8 120.009 166.814 120.856V120.939C166.873 122.108 167.379 123.21 168.23 124.021C169.081 124.832 170.213 125.29 171.393 125.303H173.929C173.995 125.303 174.058 125.278 174.105 125.232C174.153 125.187 174.18 125.125 174.182 125.059V123.654C174.18 123.588 174.153 123.526 174.105 123.481C174.058 123.435 173.995 123.41 173.929 123.41H171.281C170.745 123.387 170.228 123.202 169.801 122.88C169.374 122.558 169.057 122.114 168.893 121.608H175.397C175.478 121.604 175.554 121.569 175.609 121.511C175.664 121.452 175.694 121.374 175.692 121.294V120.501C175.693 120.492 175.693 120.482 175.692 120.473ZM173.585 120.007H168.9C169.011 119.695 169.182 119.408 169.405 119.162C169.628 118.916 169.898 118.716 170.199 118.573L170.298 118.511C170.674 118.369 171.078 118.317 171.478 118.358C171.95 118.409 172.398 118.59 172.771 118.882C173.143 119.174 173.425 119.564 173.585 120.007Z" fill="#1E4DD8"/>
<path d="M184.234 116.465C184.21 116.444 184.18 116.433 184.149 116.433C184.118 116.433 184.088 116.444 184.065 116.465L180.953 119.555L177.884 116.514C177.873 116.502 177.86 116.492 177.846 116.486C177.831 116.479 177.815 116.476 177.799 116.476C177.783 116.476 177.768 116.479 177.753 116.486C177.739 116.492 177.726 116.502 177.715 116.514L176.465 117.752C176.444 117.775 176.433 117.805 176.433 117.836C176.433 117.867 176.444 117.897 176.465 117.92L179.534 120.961L176.394 124.078C176.383 124.089 176.373 124.102 176.366 124.116C176.36 124.131 176.356 124.146 176.356 124.162C176.356 124.178 176.36 124.193 176.366 124.208C176.373 124.222 176.383 124.235 176.394 124.246L177.617 125.456C177.631 125.471 177.647 125.483 177.666 125.492C177.685 125.5 177.705 125.504 177.726 125.504C177.746 125.504 177.766 125.5 177.785 125.492C177.804 125.483 177.821 125.471 177.834 125.456L180.925 122.401L183.988 125.436C184.011 125.458 184.043 125.471 184.075 125.471C184.108 125.471 184.14 125.458 184.163 125.436L185.407 124.197C185.419 124.186 185.428 124.174 185.435 124.159C185.441 124.145 185.445 124.129 185.445 124.113C185.445 124.097 185.441 124.082 185.435 124.067C185.428 124.053 185.419 124.04 185.407 124.03L182.344 120.996L185.456 117.906C185.468 117.895 185.477 117.882 185.484 117.868C185.49 117.853 185.494 117.838 185.494 117.822C185.494 117.806 185.49 117.791 185.484 117.776C185.477 117.762 185.468 117.749 185.456 117.739L184.234 116.465Z" fill="#1E4DD8"/>
<path d="M190.478 116.422C189.571 116.416 188.681 116.676 187.924 117.171C187.166 117.665 186.573 118.372 186.221 119.201C185.87 120.03 185.774 120.944 185.948 121.826C186.121 122.709 186.555 123.521 187.195 124.158C187.834 124.796 188.651 125.231 189.541 125.408C190.431 125.586 191.354 125.497 192.192 125.153C193.031 124.81 193.748 124.227 194.252 123.479C194.756 122.732 195.024 121.852 195.023 120.953C195.023 119.756 194.545 118.608 193.693 117.759C192.842 116.91 191.686 116.43 190.478 116.422ZM190.478 123.584C189.952 123.591 189.435 123.442 188.994 123.157C188.552 122.872 188.207 122.464 188 121.984C187.794 121.504 187.736 120.974 187.835 120.461C187.933 119.949 188.183 119.477 188.553 119.106C188.923 118.734 189.396 118.48 189.912 118.376C190.428 118.271 190.964 118.321 191.451 118.519C191.938 118.718 192.355 119.055 192.648 119.488C192.942 119.921 193.098 120.431 193.098 120.953C193.089 121.639 192.81 122.294 192.321 122.779C191.831 123.263 191.17 123.575 190.478 123.584Z" fill="#1E4DD8"/>
<defs>
<filter id="filter0_d" x="135.708" y="0.604226" width="267.192" height="309.281" filterUnits="userSpaceOnUse" color-interpolation-filters="sRGB">
<feFlood flood-opacity="0" result="BackgroundImageFix"/>
<feColorMatrix in="SourceAlpha" type="matrix" values="0 0 0 0 0 0 0 0 0 0 0 0 0 0 0 0 0 0 127 0"/>
<feOffset dy="5.60405"/>
<feGaussianBlur stdDeviation="12.7365"/>
<feColorMatrix type="matrix" values="0 0 0 0 0.0187153 0 0 0 0 0.0261333 0 0 0 0 0.204167 0 0 0 0.05 0"/>
<feBlend mode="normal" in2="BackgroundImageFix" result="effect1_dropShadow"/>
<feBlend mode="normal" in="SourceGraphic" in2="effect1_dropShadow" result="shape"/>
</filter>
<filter id="filter1_b" x="93.4033" y="-47.3042" width="351.8" height="393.889" filterUnits="userSpaceOnUse" color-interpolation-filters="sRGB">
<feFlood flood-opacity="0" result="BackgroundImageFix"/>
<feGaussianBlur in="BackgroundImage" stdDeviation="33.8887"/>
<feComposite in2="SourceAlpha" operator="in" result="effect1_backgroundBlur"/>
<feBlend mode="normal" in="SourceGraphic" in2="effect1_backgroundBlur" result="shape"/>
</filter>
<filter id="filter2_d" x="89.4035" y="50.0198" width="267.192" height="309.281" filterUnits="userSpaceOnUse" color-interpolation-filters="sRGB">
<feFlood flood-opacity="0" result="BackgroundImageFix"/>
<feColorMatrix in="SourceAlpha" type="matrix" values="0 0 0 0 0 0 0 0 0 0 0 0 0 0 0 0 0 0 127 0"/>
<feOffset dy="5.60405"/>
<feGaussianBlur stdDeviation="12.7365"/>
<feColorMatrix type="matrix" values="0 0 0 0 0.0187153 0 0 0 0 0.0261333 0 0 0 0 0.204167 0 0 0 0.05 0"/>
<feBlend mode="normal" in2="BackgroundImageFix" result="effect1_dropShadow"/>
<feBlend mode="normal" in="SourceGraphic" in2="effect1_dropShadow" result="shape"/>
</filter>
<filter id="filter3_b" x="47.0991" y="2.11132" width="351.8" height="393.889" filterUnits="userSpaceOnUse" color-interpolation-filters="sRGB">
<feFlood flood-opacity="0" result="BackgroundImageFix"/>
<feGaussianBlur in="BackgroundImage" stdDeviation="33.8887"/>
<feComposite in2="SourceAlpha" operator="in" result="effect1_backgroundBlur"/>
<feBlend mode="normal" in="SourceGraphic" in2="effect1_backgroundBlur" result="shape"/>
</filter>
<filter id="filter4_d" x="78.3649" y="60.2087" width="267.192" height="309.281" filterUnits="userSpaceOnUse" color-interpolation-filters="sRGB">
<feFlood flood-opacity="0" result="BackgroundImageFix"/>
<feColorMatrix in="SourceAlpha" type="matrix" values="0 0 0 0 0 0 0 0 0 0 0 0 0 0 0 0 0 0 127 0"/>
<feOffset dy="5.60405"/>
<feGaussianBlur stdDeviation="12.7365"/>
<feColorMatrix type="matrix" values="0 0 0 0 0.0187153 0 0 0 0 0.0261333 0 0 0 0 0.204167 0 0 0 0.05 0"/>
<feBlend mode="normal" in2="BackgroundImageFix" result="effect1_dropShadow"/>
<feBlend mode="normal" in="SourceGraphic" in2="effect1_dropShadow" result="shape"/>
</filter>
<filter id="filter5_b" x="36.0605" y="12.3003" width="351.8" height="393.889" filterUnits="userSpaceOnUse" color-interpolation-filters="sRGB">
<feFlood flood-opacity="0" result="BackgroundImageFix"/>
<feGaussianBlur in="BackgroundImage" stdDeviation="33.8887"/>
<feComposite in2="SourceAlpha" operator="in" result="effect1_backgroundBlur"/>
<feBlend mode="normal" in="SourceGraphic" in2="effect1_backgroundBlur" result="shape"/>
</filter>
</defs>
</svg>
