<svg width="680" height="465" viewBox="0 0 680 465" fill="none" xmlns="http://www.w3.org/2000/svg">
<path opacity="0.6" fill-rule="evenodd" clip-rule="evenodd" d="M77.4405 71.0883C91.3028 64.8822 102.156 55.4541 109.336 43.5177C113.229 37.8528 115.437 30.8228 117.61 23.904L117.678 23.6894C119.757 16.6065 120.706 8.66019 120.444 0.0341797C113.112 0.312877 105.889 2.65801 99.2432 6.55977C92.4884 10.3528 87.442 16.7084 82.9246 23.3972C74.5038 37.2912 71.7557 55.2978 77.4405 71.0883ZM26.0862 34.9779C17.5195 54.4595 17.8782 75.7424 24.019 91.3223C30.7374 107.29 42.6784 117.479 57.4589 120.66C59.3558 112.299 59.0944 103.789 58.6505 95.6591C58.1945 87.5361 56.4313 79.4403 53.6102 71.6707C48.7766 56.5939 39.6263 42.3804 26.0862 34.9779ZM2.43893 118.195C1.76406 123.524 1.5087 128.799 1.64246 133.904C1.72758 139.002 2.28693 143.937 3.60629 148.634C6.03828 158.015 9.65586 166.274 14.605 172.826C25.0868 186.041 39.1194 192.097 54.1066 190.534C53.8538 182.2 51.4809 174.362 49.2301 166.927L48.9994 166.165C46.5309 158.518 42.658 151.285 38.1527 144.732C29.7137 131.79 17.2862 121.043 2.43893 118.195ZM110.362 225.424C103.625 236.789 92.7417 248.23 78.7456 254.422C73.2858 239.06 76.1252 222.44 83.9015 210.748C92.2797 198.71 105.066 191.654 120.035 189.758C121.081 195.712 119.828 201.782 118.417 207.669C116.958 213.549 114.149 219.537 110.362 225.424ZM0.609375 205.628C2.14761 216.252 4.62216 226.265 9.33414 234.503C14.0036 242.769 19.6883 249.526 25.9264 254.332C39.351 263.746 54.3685 265.153 68.3646 258.954C62.692 242.946 53.6328 229.786 41.5884 219.957C30.2188 210.175 15.5783 203.731 0.609375 205.628ZM130.769 273.572C126.793 286.834 119.6 300.905 107.598 311.291C103.16 304.745 100.12 297.526 99.4874 289.77C98.7578 282.096 98.9341 274.918 101.682 267.767C106.662 253.655 117.144 242.956 131.055 236.492C133.511 241.882 134.143 247.877 133.918 254.151C134.052 260.201 132.903 266.768 130.769 273.572ZM35.8263 313.845C29.5761 307.191 24.3534 298.51 20.2494 288.742C34.1543 282.278 49.8832 283.916 63.3443 289.748C69.8438 292.855 77.012 296.383 82.7455 301.372C88.3877 306.457 94.0968 311.969 98.7662 318.855C86.971 329.092 71.7893 332.729 56.8934 327.631C49.6582 324.987 42.4413 320.296 35.8263 313.845ZM102.911 171.477C93.548 180.307 80.2025 187.886 65.2153 189.442C64.9843 181.245 65.5254 173.319 68.7295 166.392C71.7756 159.465 75.8553 153.538 81.0901 149.093C92.18 140.154 106.243 137.374 121.09 140.222C120.756 143.24 120.026 146.108 118.938 148.875C117.979 151.189 116.833 153.436 115.706 155.645L115.706 155.645L115.703 155.651L115.686 155.684C115.575 155.901 115.465 156.118 115.355 156.334C115.256 156.528 115.157 156.722 115.059 156.916C112.207 162.123 107.86 167.004 102.911 171.477ZM109.134 117.62C97.9042 123.146 83.1724 126.253 68.392 123.071C70.216 115.125 72.8608 107.729 77.5241 102.04C82.1814 96.3368 87.7202 91.9932 93.7211 89.3082C106.611 84.2305 120.868 86.0318 134.39 93.4275C129.611 104.208 121.026 112.114 109.134 117.62ZM200.804 464.6C196.208 464.206 191.69 462.669 187.1 461.031C189.483 453.037 193.581 446.117 198.603 440.306C201.12 437.39 203.862 434.8 206.787 432.421C209.754 429.885 212.885 427.615 216.132 425.637C222.662 421.517 229.495 419.254 236.712 417.208C243.954 415.005 251.323 415.005 259.044 415.311C258.539 423.699 256.46 431.693 252.788 438.735C249.14 445.56 243.899 451.426 237.302 455.994C234.013 458.278 230.383 460.236 226.486 461.82C222.613 463.227 218.509 464.022 214.198 464.511C209.894 464.974 205.394 465.014 200.804 464.6ZM259.809 402.891C260.32 394.469 259.341 386.455 257.505 379.025C255.675 371.378 252.999 364.309 249.814 358.266C248.215 355.241 246.482 352.481 244.627 350.021C242.803 347.383 240.894 344.82 238.845 342.72C236.796 340.592 234.626 338.805 232.297 337.404C231.719 337.063 231.143 336.703 230.564 336.342C228.806 335.244 227.023 334.13 225.074 333.455C222.691 341.442 221.487 349.463 221.688 357.26C221.791 361.148 222.229 365.023 223.043 368.72C223.895 372.262 225.111 375.674 226.673 378.91C229.817 385.225 234.255 391.54 239.982 395.475C245.71 399.255 252.464 402.619 259.809 402.891ZM143.193 434.336C134.82 432.29 125.664 429.136 118.015 422.542C126.649 408.71 140.286 401.294 154.763 397.535C169.075 394.415 184.147 395.02 198.563 400.947C193.486 416.805 182.457 429.041 167.555 433.317C160.131 435.533 151.552 436.477 143.193 434.336ZM202.368 389.249C207.439 373.411 206.733 357.26 203.845 343.326C202.338 336.412 199.887 330.737 197.194 325.04C194.538 319.564 190.684 315.964 186.604 312.151L186.293 311.86C177.689 325.645 173.604 341.653 176.522 355.948C178.99 370.685 188.53 383.573 202.368 389.249ZM81.8355 382.683C74.3389 378.108 66.7754 371.855 60.6225 363.596C72.1805 353.161 87.7453 349.661 102.234 350.911C105.87 351.231 109.426 351.911 112.941 352.849C116.625 353.59 120.225 354.643 123.696 356.03C130.633 358.831 136.969 363.052 143.42 367.851C138.957 374.635 133.412 380.059 126.919 383.805C120.346 387.672 113.099 389.494 105.487 389.215C97.911 388.923 89.4902 387.094 81.8355 382.683ZM150.01 357.816C154.473 351.032 157.543 343.609 159.556 336.254C161.477 329.015 162.602 321.456 162.942 314.257C163.301 307.032 162.401 300.737 161.021 294.633C159.799 288.352 157.251 283.159 153.743 278.523C141.863 289.256 134.609 302.77 133.509 317.758C133.229 321.483 133.284 325.303 133.77 329.062C134.427 332.624 135.467 336.179 136.877 339.639C139.662 346.586 143.869 353.275 150.01 357.816ZM644.189 313.842C650.439 307.187 655.662 298.507 659.766 288.739C645.861 282.274 630.132 283.912 616.671 289.745C610.171 292.851 603.003 296.379 597.27 301.368C591.627 306.453 585.918 311.966 581.249 318.851C593.044 329.088 608.226 332.725 623.122 327.627C630.357 324.983 637.574 320.292 644.189 313.842ZM572.417 311.287C560.415 300.901 553.223 286.83 549.246 273.568C547.112 266.764 545.963 260.197 546.097 254.148C545.872 247.874 546.504 241.878 548.961 236.488C562.872 242.952 573.354 253.651 578.333 267.763C581.081 274.914 581.258 282.092 580.528 289.766C579.896 297.522 576.856 304.741 572.417 311.287ZM670.687 234.214C675.399 225.976 677.873 215.963 679.411 205.338C664.443 203.442 649.802 209.886 638.432 219.667C626.388 229.497 617.329 242.657 611.656 258.665C625.652 264.864 640.67 263.457 654.094 254.042C660.333 249.237 666.017 242.48 670.687 234.214ZM601.272 254.152C587.276 247.96 576.392 236.52 569.656 225.154C565.868 219.268 563.059 213.279 561.6 207.399C560.189 201.513 558.937 195.443 559.983 189.488C574.951 191.384 587.738 198.44 596.116 210.479C603.892 222.17 606.732 238.79 601.272 254.152ZM678.381 133.898C678.515 128.793 678.26 123.518 677.585 118.189C662.738 121.037 650.31 131.784 641.871 144.727C637.366 151.279 633.493 158.512 631.025 166.159L630.794 166.922C628.543 174.356 626.17 182.194 625.917 190.528C640.904 192.091 654.937 186.035 665.419 172.821C670.368 166.268 673.986 158.009 676.418 148.628C677.737 143.931 678.296 138.996 678.381 133.898ZM614.822 189.436C599.835 187.879 586.49 180.3 577.126 171.47C572.177 166.997 567.83 162.117 564.979 156.91C564.765 156.487 564.548 156.063 564.331 155.638C563.205 153.43 562.058 151.182 561.1 148.868C560.011 146.102 559.282 143.233 558.947 140.215C573.795 137.367 587.858 140.147 598.947 149.086C604.182 153.531 608.262 159.459 611.308 166.385C614.512 173.312 615.053 181.238 614.822 189.436ZM655.991 91.3185C662.132 75.7387 662.491 54.4557 653.924 34.9741C640.384 42.3766 631.234 56.5901 626.4 71.667C623.579 79.4365 621.816 87.5323 621.36 95.6553C620.916 103.785 620.655 112.296 622.552 120.656C637.332 117.475 649.273 107.286 655.991 91.3185ZM611.629 123.071C596.849 126.252 582.117 123.146 570.887 117.619C558.995 112.114 550.41 104.208 545.631 93.4272C559.153 86.0316 573.41 84.2302 586.3 89.3079C592.301 91.993 597.84 96.3366 602.497 102.04C607.16 107.729 609.805 115.125 611.629 123.071ZM570.673 43.5177C577.853 55.4541 588.706 64.8822 602.568 71.0883C608.253 55.2978 605.505 37.2912 597.084 23.3972C592.567 16.7084 587.52 10.3528 580.765 6.55977C574.12 2.65801 566.897 0.312877 559.564 0.0341797C559.303 8.66019 560.251 16.6065 562.331 23.6894L562.398 23.9046C564.571 30.8232 566.779 37.853 570.673 43.5177ZM492.935 461.02C488.345 462.658 483.827 464.194 479.231 464.589C474.64 465.003 470.141 464.962 465.836 464.5C461.526 464.011 457.422 463.215 453.549 461.808C449.652 460.225 446.022 458.267 442.733 455.983C436.136 451.415 430.895 445.549 427.247 438.724C423.575 431.682 421.495 423.688 420.991 415.3C428.712 414.994 436.081 414.994 443.322 417.197C450.539 419.243 457.373 421.506 463.903 425.625C467.15 427.603 470.281 429.874 473.248 432.409C476.172 434.788 478.915 437.378 481.432 440.294C486.454 446.106 490.552 453.026 492.935 461.02ZM422.521 379.016C420.685 386.446 419.706 394.46 420.217 402.882C427.562 402.61 434.316 399.245 440.044 395.466C445.771 391.53 450.209 385.215 453.353 378.901C454.915 375.665 456.131 372.253 456.983 368.711C457.797 365.013 458.235 361.139 458.338 357.251C458.539 349.454 457.335 341.433 454.952 333.446C453.003 334.121 451.22 335.235 449.462 336.332L449.459 336.334C448.881 336.695 448.306 337.054 447.729 337.395C445.4 338.795 443.23 340.583 441.181 342.711C439.132 344.811 437.223 347.374 435.399 350.011C433.544 352.472 431.811 355.232 430.212 358.257C427.026 364.3 424.351 371.369 422.521 379.016ZM561.984 422.538C554.335 429.131 545.178 432.285 536.806 434.331C528.446 436.472 519.868 435.528 512.444 433.312C497.542 429.036 486.513 416.801 481.436 400.942C495.852 395.015 510.924 394.41 525.236 397.53C539.713 401.289 553.35 408.705 561.984 422.538ZM476.172 343.319C473.284 357.254 472.578 373.405 477.649 389.243C491.487 383.567 501.026 370.679 503.495 355.942C506.413 341.647 502.328 325.639 493.724 311.854L493.413 312.144C489.333 315.957 485.479 319.558 482.823 325.034C480.13 330.73 477.679 336.406 476.172 343.319ZM619.402 363.584C613.249 371.843 605.686 378.096 598.189 382.671C590.534 387.083 582.114 388.911 574.538 389.203C566.926 389.482 559.679 387.66 553.106 383.793C546.613 380.047 541.068 374.623 536.605 367.839C543.056 363.04 549.391 358.819 556.328 356.018C559.8 354.631 563.4 353.578 567.084 352.837C570.598 351.899 574.155 351.219 577.791 350.9C592.279 349.649 607.844 353.149 619.402 363.584ZM520.446 336.251C522.459 343.606 525.529 351.029 529.992 357.813C536.133 353.272 540.34 346.583 543.125 339.636C544.535 336.177 545.575 332.621 546.232 329.06C546.718 325.301 546.773 321.48 546.493 317.755C545.393 302.767 538.139 289.253 526.259 278.52C522.751 283.156 520.203 288.349 518.981 294.63C517.601 300.734 516.701 307.029 517.06 314.255C517.4 321.453 518.525 329.012 520.446 336.251Z" fill="url(#paint0_linear)"/>
<defs>
<linearGradient id="paint0_linear" x1="339.998" y1="-61.8604" x2="339.864" y2="470.024" gradientUnits="userSpaceOnUse">
<stop stop-color="#262626"/>
<stop offset="1" stop-color="#030405"/>
</linearGradient>
</defs>
</svg>
