<svg width="55" height="15" viewBox="0 0 55 15" fill="none" xmlns="http://www.w3.org/2000/svg">
<path d="M6.06582 14.6085C6.06582 14.6085 12.1316 12.4557 12.1316 4.69011V1.92218C12.1316 1.61463 11.907 1.38397 11.6074 1.30708C9.66038 1.23019 7.78821 0.845758 6.06582 0C4.34343 0.768871 2.47126 1.23019 0.524207 1.30708C0.22466 1.30708 0 1.61463 0 1.92218V4.69011C0 12.4557 6.06582 14.6085 6.06582 14.6085Z" fill="#00ADEE"/>
<path d="M8.53886 5.7641C8.46397 4.91834 7.78999 4.61079 6.89132 4.5339V3.30371H6.14245V4.45702H5.54336V3.30371H4.86938V4.45702H3.44653V5.22589H4.34517V8.99336H3.59631V9.83911H4.79449V11.0693H5.46847V9.83911H5.99268V10.9924H6.74155V9.83911C7.93976 9.76223 8.76352 9.45468 8.8384 8.37826C8.98818 7.68628 8.61374 7.07118 7.93976 6.9174H7.86488C8.3142 6.68674 8.61374 6.22542 8.53886 5.7641ZM7.49044 8.30137C7.49044 9.22402 5.99268 9.07024 5.54336 9.07024V7.5325C6.06757 7.45561 7.49044 7.30184 7.49044 8.30137ZM7.19087 6.07165C7.19087 6.84052 5.99268 6.76363 5.54336 6.76363V5.30278C5.99268 5.30278 7.19087 5.22589 7.19087 6.07165Z" fill="white"/>
<path d="M24.1881 9.68913C24.1881 10.2273 24.1132 10.7655 23.8136 11.2269C23.589 11.6113 23.2894 11.9957 22.8401 12.2264C22.3908 12.4571 21.9415 12.6877 21.4922 12.7646C20.9679 12.8415 20.4437 12.9184 19.9195 12.9184H15.5012V1.69287H19.9195C20.3689 1.69287 20.8182 1.76976 21.2675 1.84665C21.7168 1.92353 22.0912 2.07731 22.4657 2.30797C22.8401 2.53863 23.1397 2.84618 23.3643 3.15373C23.589 3.61505 23.7388 4.07637 23.6639 4.61458C23.6639 5.15279 23.5141 5.691 23.1397 6.15232C22.7652 6.53676 22.3159 6.84431 21.7917 6.99808C22.0912 7.07497 22.3908 7.15185 22.6903 7.30563C22.9899 7.4594 23.2145 7.61318 23.4392 7.84384C23.6639 8.0745 23.8136 8.30516 23.8885 8.61271C24.1132 8.99715 24.1881 9.30469 24.1881 9.68913ZM21.1926 4.92213C21.1926 4.53769 21.0428 4.23014 20.7433 4.07637C20.3689 3.84571 19.9195 3.76882 19.4702 3.84571H18.1971V6.15232H19.62C19.9944 6.15232 20.4437 6.07544 20.7433 5.84477C20.9679 5.61411 21.1926 5.30656 21.1926 4.92213ZM21.4922 9.45847C21.567 9.07403 21.3424 8.6896 20.9679 8.45893C20.5186 8.22827 20.0693 8.15139 19.62 8.15139H18.1223V10.7655H19.62C19.8446 10.7655 20.0693 10.7655 20.294 10.6887C20.5186 10.6887 20.7433 10.6118 20.8931 10.458C21.2675 10.3042 21.567 9.91979 21.4922 9.45847Z" fill="#231F20"/>
<path d="M27.7084 2.4589C27.7084 2.68956 27.6335 2.84334 27.5586 2.99711C27.4837 3.15089 27.4088 3.30466 27.259 3.45843C27.1093 3.61221 26.9595 3.68909 26.8097 3.76598C26.6599 3.84287 26.4353 3.84287 26.2106 3.84287C25.8362 3.84287 25.4618 3.68909 25.1622 3.45843C24.8627 3.22777 24.7129 2.84334 24.7129 2.4589C24.7129 2.30513 24.7878 2.07447 24.8627 1.92069C24.9376 1.76692 25.0124 1.61314 25.1622 1.45937C25.312 1.3056 25.4618 1.22871 25.6115 1.15182C25.7613 1.07493 25.986 0.998047 26.2106 0.998047C26.4353 0.998047 26.5851 0.998047 26.8097 1.07493C26.9595 1.15182 27.1093 1.22871 27.259 1.38248C27.4088 1.53626 27.4837 1.69003 27.5586 1.84381C27.7084 2.07447 27.7084 2.30513 27.7084 2.4589ZM24.9375 12.9924V4.99617H27.4837V12.9924H24.9375Z" fill="#231F20"/>
<path d="M32.2018 6.9964V10.0719C32.2018 10.3794 32.2767 10.687 32.4265 10.9176C32.6512 11.1483 32.8758 11.2252 33.1754 11.2252C33.3251 11.2252 33.4749 11.2252 33.5498 11.2252C33.6996 11.2252 33.7745 11.1483 33.9242 11.1483V13.0705C33.6996 13.1474 33.4749 13.2243 33.2503 13.2243C32.9507 13.3011 32.7261 13.3011 32.4265 13.3011C31.9772 13.3011 31.5279 13.2243 31.0786 13.0705C30.779 12.9167 30.4795 12.7629 30.2548 12.4554C30.0301 12.2247 29.8804 11.9172 29.8055 11.5327C29.7306 11.1483 29.7306 10.687 29.7306 10.3025V6.91952H28.4575V4.99734H29.6557V2.92139H32.2018V4.99734H33.9991V6.91952H32.2018V6.9964Z" fill="#231F20"/>
<path d="M43.209 12.9971C42.4601 13.1509 41.6364 13.3047 40.8126 13.2278C39.9889 13.2278 39.1651 13.074 38.4163 12.7665C37.6674 12.5358 37.0683 12.0745 36.4692 11.5363C35.945 10.9981 35.4957 10.383 35.1961 9.61409C34.5971 7.99946 34.5971 6.30795 35.1961 4.69332C35.4957 4.00133 35.945 3.30935 36.4692 2.77114C36.9934 2.23293 37.6674 1.8485 38.4163 1.61783C39.1651 1.31029 39.9889 1.2334 40.7378 1.2334C41.5615 1.2334 42.3853 1.38717 43.1341 1.61783C43.8081 1.8485 44.4072 2.23293 44.9314 2.69425L43.3588 4.84709C43.0592 4.53954 42.6848 4.232 42.3104 4.07822C41.8611 3.84756 41.4117 3.77067 40.8875 3.77067C40.4382 3.77067 39.9889 3.84756 39.6145 4.00133C38.7907 4.38577 38.1916 5.00087 37.8921 5.84662C37.7423 6.30795 37.6674 6.76927 37.6674 7.23059C37.6674 7.69191 37.7423 8.23012 37.8921 8.69145C38.0418 9.07588 38.2665 9.46032 38.566 9.84475C38.8656 10.1523 39.24 10.4598 39.6145 10.6136C40.0638 10.7674 40.588 10.9212 41.0373 10.8443C41.3368 10.8443 41.6364 10.8443 41.9359 10.7674C42.1606 10.6905 42.4601 10.6136 42.6848 10.5367V8.46079H40.588V6.23106H45.1561V12.2283C44.557 12.6127 43.883 12.8433 43.209 12.9971Z" fill="#231F20"/>
<path d="M54.7411 9.00009C54.7411 9.61519 54.6662 10.2303 54.3667 10.7685C54.142 11.3067 53.8425 11.768 53.468 12.1525C53.0936 12.5369 52.5694 12.8444 52.1201 12.9982C51.0716 13.3827 49.8735 13.3827 48.825 12.9982C48.3008 12.7676 47.8515 12.5369 47.4771 12.1525C47.1027 11.768 46.7282 11.3067 46.5784 10.7685C46.1291 9.61519 46.1291 8.385 46.5784 7.23169C46.8031 6.69348 47.1027 6.30905 47.4771 5.92461C47.8515 5.54018 48.3757 5.30952 48.825 5.07885C49.8735 4.69442 51.0716 4.69442 52.1201 5.07885C52.6443 5.23263 53.0936 5.54018 53.468 5.92461C53.8425 6.30905 54.2169 6.69348 54.3667 7.23169C54.6662 7.7699 54.7411 8.385 54.7411 9.00009ZM52.2698 9.00009C52.2698 8.76943 52.1949 8.46188 52.1201 8.23122C52.0452 8.00056 51.8954 7.7699 51.7456 7.61613C51.5958 7.46235 51.3712 7.30858 51.1465 7.1548C50.6223 6.92414 50.0981 6.92414 49.5739 7.1548C49.3492 7.23169 49.1246 7.38547 48.9748 7.61613C48.825 7.7699 48.6753 8.00056 48.6004 8.23122C48.5255 8.46188 48.4506 8.76943 48.4506 9.00009C48.4506 9.23076 48.5255 9.5383 48.6004 9.76897C48.6753 9.99963 48.825 10.2303 48.9748 10.4609C49.1246 10.6916 49.3492 10.8454 49.5739 10.9223C50.0981 11.1529 50.6223 11.1529 51.1465 10.9223C51.3712 10.8454 51.5958 10.6147 51.7456 10.4609C51.8954 10.2303 52.0452 9.99963 52.1201 9.76897C52.2698 9.46142 52.2698 9.23076 52.2698 9.00009Z" fill="#231F20"/>
</svg>
