<svg width="23" height="23" viewBox="0 0 23 23" fill="none" xmlns="http://www.w3.org/2000/svg">
<circle cx="11.5" cy="11.5" r="11.5" fill="#FEF8F5"/>
<path d="M9.73828 15.8066L6.15039 12.2402C6.05013 12.14 6 12.0111 6 11.8535C6 11.696 6.05013 11.5671 6.15039 11.4668L6.94531 10.6934C7.04557 10.5788 7.16732 10.5215 7.31055 10.5215C7.4681 10.5215 7.60417 10.5788 7.71875 10.6934L10.125 13.0996L15.2812 7.94336C15.3958 7.82878 15.5247 7.77148 15.668 7.77148C15.8255 7.77148 15.9544 7.82878 16.0547 7.94336L16.8496 8.7168C16.9499 8.81706 17 8.94596 17 9.10352C17 9.26107 16.9499 9.38997 16.8496 9.49023L10.5117 15.8066C10.4115 15.9212 10.2826 15.9785 10.125 15.9785C9.96745 15.9785 9.83854 15.9212 9.73828 15.8066Z" fill="#EC713C"/>
</svg>
