<svg width="95" height="28" viewBox="0 0 95 28" fill="none" xmlns="http://www.w3.org/2000/svg">
<g clip-path="url(#clip0)">
<path d="M16.9053 3.67384H8.11255V15.5358H19.9842V6.74309C19.9842 6.33922 19.9045 5.93931 19.7496 5.5663C19.5948 5.1933 19.3678 4.85452 19.0818 4.56938C18.7958 4.28425 18.4563 4.05837 18.0828 3.9047C17.7093 3.75102 17.3091 3.67257 16.9053 3.67384Z" fill="white"/>
<path d="M5.37143 3.67383H3.85611C3.0421 3.67383 2.26142 3.99719 1.68583 4.57279C1.11023 5.14838 0.786865 5.92906 0.786865 6.74307L0.786865 8.25839H5.37143V3.67383Z" fill="white"/>
<path d="M0.786865 10.9995H5.37143V15.5841H0.786865V10.9995Z" fill="white"/>
<path d="M15.4385 22.8712H16.9538C17.3577 22.8712 17.7576 22.7914 18.1306 22.6366C18.5036 22.4818 18.8424 22.2548 19.1275 21.9688C19.4126 21.6828 19.6385 21.3433 19.7922 20.9698C19.9459 20.5963 20.0243 20.1961 20.023 19.7923V18.3252H15.4385V22.8712Z" fill="white"/>
<path d="M8.11255 18.3252H12.6971V22.9098H8.11255V18.3252Z" fill="white"/>
<path d="M0.786865 18.3252V19.8405C0.786865 20.6545 1.11023 21.4352 1.68583 22.0108C2.26142 22.5864 3.0421 22.9098 3.85611 22.9098H5.37143V18.3252H0.786865Z" fill="white"/>
<path d="M31.7017 4.89941H29.9065V21.6837H39.4134V20.0816H31.7017V4.89941Z" fill="white"/>
<path d="M45.1851 9.34912C41.6912 9.34912 39.23 11.9454 39.23 15.6806V16.1053C39.2872 17.6854 39.9529 19.1821 41.0878 20.2829C42.2227 21.3837 43.7392 22.0032 45.3202 22.0122H45.5519C47.1871 22.0093 48.7679 21.4242 50.0109 20.3617V20.3135L49.2002 18.9912L49.1133 19.0394C48.1483 19.9397 46.8812 20.4459 45.5615 20.4582C44.958 20.4717 44.3581 20.3619 43.7985 20.1357C43.2388 19.9094 42.7312 19.5714 42.3066 19.1423C41.882 18.7132 41.5494 18.202 41.3291 17.64C41.1088 17.078 41.0054 16.477 41.0252 15.8737H50.0978V15.7772C50.0978 15.7772 50.0978 15.2077 50.0978 14.9278C50.1847 11.5208 48.2061 9.34912 45.1851 9.34912ZM41.1217 14.3584C41.2378 13.3893 41.7061 12.4968 42.4376 11.8508C43.1691 11.2047 44.1126 10.8502 45.0886 10.8548C46.6039 10.8548 48.264 11.762 48.3991 14.3584H41.1217Z" fill="white"/>
<path d="M60.6279 10.7677V11.395C60.2503 10.766 59.7173 10.2448 59.08 9.88135C58.4428 9.51793 57.7227 9.32458 56.9892 9.3199H56.7672C53.5531 9.3199 51.3333 11.8679 51.3333 15.6032C51.3333 19.3384 53.4566 21.9443 56.6224 21.9443C57.4285 21.9828 58.2297 21.7998 58.9391 21.4153C59.6486 21.0308 60.2393 20.4594 60.6472 19.763V21.6065H62.3459V4.89941H60.6279V10.7677ZM56.9409 20.3615C54.721 20.3615 53.2539 18.4311 53.2539 15.6321C53.2539 12.8331 54.8079 10.951 56.9892 10.951C58.794 10.951 60.6279 12.4181 60.6279 15.6321C60.6279 19.1164 58.6975 20.3615 56.9023 20.3615H56.9409Z" fill="white"/>
<path d="M72.7399 10.9995V11.096C72.4021 10.5265 71.3693 9.30078 68.8792 9.30078C65.7134 9.30078 63.6287 11.7137 63.6287 15.4007C63.6287 19.0876 65.8099 21.5874 69.024 21.5874C69.7641 21.6423 70.5051 21.491 71.1644 21.1502C71.8238 20.8095 72.3758 20.2926 72.7592 19.6571V21.3172C72.7592 23.6336 71.2921 24.9559 68.6862 24.9559C67.563 24.963 66.4544 24.7016 65.4528 24.1934L65.366 24.1451L64.7 25.6122L64.7965 25.6604C66.012 26.2767 67.3524 26.6068 68.7151 26.6256C71.5045 26.6256 74.5061 25.2068 74.5061 21.2786V9.6965H72.7399V10.9995ZM69.2363 20.0817C66.9199 20.0817 65.3756 18.2865 65.3756 15.4972C65.3756 12.7078 66.6979 11.0477 68.9661 11.0477C71.4659 11.0477 72.653 12.5148 72.653 15.4972C72.653 18.4796 71.5045 20.0817 69.2363 20.0817Z" fill="white"/>
<path d="M81.6294 9.34912C78.1258 9.34912 75.7129 11.9454 75.7129 15.6324V16.0571C75.7631 17.654 76.4329 19.1686 77.5805 20.2802C78.7281 21.3918 80.2633 22.013 81.861 22.0122H82.1023C83.7323 22.0029 85.3059 21.4145 86.5421 20.3521L85.7217 18.9429H85.6252C84.6637 19.8425 83.3997 20.3488 82.083 20.3617C81.4791 20.3751 80.8788 20.2654 80.3186 20.0392C79.7585 19.8131 79.2503 19.4752 78.8249 19.0463C78.3996 18.6173 78.066 18.1063 77.8446 17.5442C77.6232 16.9822 77.5186 16.381 77.5371 15.7772H86.6869V15.6806C86.6869 15.6806 86.6869 15.1112 86.6869 14.8313C86.6869 11.5208 84.6986 9.34912 81.6294 9.34912ZM77.6046 14.3584C77.7229 13.3885 78.1932 12.4959 78.9263 11.85C79.6594 11.2041 80.6041 10.85 81.5811 10.8548C83.0868 10.8548 84.7469 11.762 84.882 14.3584H77.6046Z" fill="white"/>
<path d="M94.0605 9.58089C93.8192 9.58089 93.6358 9.58089 93.3945 9.48438C92.5606 9.50842 91.7543 9.7892 91.0859 10.2884C90.4174 10.7876 89.9192 11.4809 89.6593 12.2737V9.58089H87.9124V21.5394V21.6359H89.7076V16.5784C89.7137 15.801 89.8407 15.0293 90.084 14.2909C90.6534 12.4475 91.9275 11.2699 93.4428 11.2699C93.6321 11.2508 93.8229 11.2508 94.0122 11.2699H94.1088V9.58089H94.0605Z" fill="white"/>
</g>
<defs>
<clipPath id="clip0">
<rect width="94" height="28" fill="white" transform="translate(0.0544434)"/>
</clipPath>
</defs>
</svg>
