<svg width="395" height="400" viewBox="0 0 395 400" fill="none" xmlns="http://www.w3.org/2000/svg">
<path fill-rule="evenodd" clip-rule="evenodd" d="M197.537 -0.000183105C306.593 -0.000183105 395.001 89.3351 395.001 199.536C395.001 309.736 306.593 399.072 197.537 399.072C88.4801 399.072 0.0722656 309.736 0.0722656 199.536C0.0722656 89.3351 88.4801 -0.000183105 197.537 -0.000183105ZM197.536 39.9603C284.752 39.9603 355.455 111.405 355.455 199.536C355.455 287.667 284.752 359.112 197.536 359.112C110.32 359.112 39.6168 287.667 39.6168 199.536C39.6168 111.405 110.32 39.9603 197.536 39.9603Z" fill="#F6F8FB"/>
<path fill-rule="evenodd" clip-rule="evenodd" d="M197.537 -0.000183105C306.593 -0.000183105 395.001 89.3351 395.001 199.536C395.001 309.736 306.593 399.072 197.537 399.072C88.4801 399.072 0.0722656 309.736 0.0722656 199.536C0.0722656 89.3351 88.4801 -0.000183105 197.537 -0.000183105ZM197.536 39.9603C284.752 39.9603 355.455 111.405 355.455 199.536C355.455 287.667 284.752 359.112 197.536 359.112C110.32 359.112 39.6168 287.667 39.6168 199.536C39.6168 111.405 110.32 39.9603 197.536 39.9603Z" fill="url(#paint0_linear)"/>
<path fill-rule="evenodd" clip-rule="evenodd" d="M197.635 338.967C273.787 338.967 335.52 276.586 335.52 199.636C335.52 122.685 273.787 60.3044 197.635 60.3044C121.484 60.3044 59.751 122.685 59.751 199.636C59.751 276.586 121.484 338.967 197.635 338.967ZM197.765 297.948C251.57 297.948 295.188 253.873 295.188 199.503C295.188 145.134 251.57 101.058 197.765 101.058C143.96 101.058 100.343 145.134 100.343 199.503C100.343 253.873 143.96 297.948 197.765 297.948Z" fill="url(#paint1_linear)"/>
<path d="M252.312 263.11L239.263 272.272C228.513 279.809 215.323 284.158 200.66 284.134C158.668 284.068 120.511 248.199 115.434 203.978C112.147 175.238 123.666 150.039 143.685 135.963L156.734 126.801C136.715 140.877 125.196 166.076 128.483 194.816C133.56 239 171.717 274.905 213.709 274.972C228.409 274.995 241.599 270.647 252.312 263.11Z" fill="url(#paint2_linear)"/>
<path d="M280.562 195.057C280.234 192.279 279.793 189.576 279.242 186.872C276.412 173.425 270.508 160.937 262.452 150.297C260.826 148.184 259.126 146.107 257.352 144.142C253.803 140.174 249.921 136.539 245.816 133.274C243.745 131.641 241.637 130.083 239.417 128.672C235.052 125.777 230.428 123.288 225.654 121.281C223.249 120.278 220.843 119.348 218.363 118.567C213.404 117.003 208.333 115.922 203.149 115.358C200.558 115.094 197.966 114.942 195.337 114.938C192.708 114.934 190.153 115.078 187.597 115.333C182.56 115.881 177.708 116.947 173.114 118.495C170.817 119.269 168.593 120.154 166.444 121.187C162.145 123.217 158.105 125.691 154.361 128.537C145.092 135.706 137.819 145.396 133.246 156.72C132.354 158.977 131.536 161.309 130.865 163.714C128.11 173.264 127.204 183.816 128.483 194.852C128.812 197.63 129.252 200.334 129.803 203.038C130.354 205.742 131.053 208.372 131.864 210.966C132.674 213.559 133.596 216.115 134.629 218.635C135.662 221.155 136.806 223.6 138.024 225.972C152.864 254.694 182.196 274.921 213.708 274.971C245.183 275.021 269.914 254.917 278.143 226.195C280.898 216.646 281.841 206.131 280.562 195.057Z" fill="url(#paint3_linear)"/>
<path d="M238.368 157.093C242.519 160.98 243.274 167.319 240.028 171.206L221.652 193.243L245.16 215.28C249.311 219.167 250.066 225.506 246.821 229.393C245.991 230.374 245.009 231.091 243.953 231.581C243.689 231.695 243.387 231.808 243.123 231.883C242.972 231.921 242.821 231.959 242.708 231.996C242.406 232.072 242.142 232.147 241.84 232.185C241.387 232.261 240.934 232.298 240.481 232.298C239.727 232.298 238.934 232.185 238.179 231.996C237.425 231.808 236.67 231.506 235.915 231.129C235.047 230.676 234.18 230.072 233.425 229.355L209.841 207.356L191.464 229.393C190.86 230.11 190.143 230.714 189.389 231.166C188.747 231.544 188.068 231.846 187.351 232.034C186.634 232.223 185.879 232.336 185.125 232.336C184.672 232.336 184.219 232.298 183.766 232.223C183.464 232.185 183.162 232.11 182.86 232.034C182.709 231.996 182.559 231.959 182.408 231.921C182.106 231.846 181.804 231.732 181.502 231.619C180.294 231.129 179.162 230.412 178.106 229.431C173.955 225.544 173.2 219.204 176.446 215.318L194.822 193.281L171.276 171.206C167.125 167.319 166.37 160.98 169.616 157.093C170.446 156.112 171.427 155.395 172.483 154.905C172.748 154.791 173.049 154.678 173.314 154.603C173.465 154.565 173.615 154.527 173.729 154.49C174.031 154.414 174.295 154.339 174.597 154.301C175.087 154.188 175.54 154.15 175.993 154.15C176.446 154.15 176.898 154.188 177.351 154.263C177.653 154.301 177.955 154.376 178.257 154.452C178.445 154.49 178.634 154.565 178.823 154.603C179.049 154.678 179.276 154.754 179.502 154.829C179.879 154.98 180.219 155.131 180.521 155.282C181.389 155.735 182.257 156.339 183.011 157.055L206.558 179.093L224.935 157.055C225.538 156.339 226.255 155.735 227.01 155.282C227.312 155.093 227.614 154.942 227.916 154.829C228.104 154.754 228.331 154.678 228.519 154.603C228.708 154.527 228.859 154.49 229.048 154.452C229.35 154.376 229.614 154.301 229.916 154.263C230.368 154.188 230.821 154.15 231.274 154.15C231.727 154.15 232.18 154.188 232.632 154.263C232.934 154.301 233.236 154.376 233.538 154.452C233.689 154.49 233.84 154.527 233.991 154.565C234.293 154.64 234.595 154.754 234.897 154.867C236.142 155.357 237.312 156.112 238.368 157.093Z" fill="url(#paint4_linear)"/>
<path d="M211.473 173.202C208.886 176.363 206.925 178.76 206.558 179.093L205.539 178.149C206.399 177.183 207.728 175.546 209.326 173.578C214.532 167.165 222.584 157.248 226.482 155.659C226.547 155.61 226.614 155.561 226.683 155.513C224.172 157.682 216.596 166.941 211.473 173.202Z" fill="url(#paint5_linear)"/>
<path d="M227.463 155.056C227.197 155.174 226.931 155.339 226.683 155.513C227.079 155.171 227.348 155.006 227.463 155.056Z" fill="url(#paint6_linear)"/>
<path fill-rule="evenodd" clip-rule="evenodd" d="M187.351 232.034C178.332 234.562 170.521 221.921 176.408 215.28L194.784 193.243L171.276 171.206C166.718 166.94 166.247 159.715 170.679 155.998C170.714 155.994 170.747 155.961 170.747 155.961C170.762 155.947 170.776 155.938 170.789 155.93C170.807 155.919 170.82 155.91 170.823 155.891C170.951 155.794 171.065 155.703 171.162 155.621C171.019 155.725 170.88 155.833 170.745 155.943C170.718 155.962 170.69 155.98 170.672 155.999C170.674 155.999 170.677 155.999 170.679 155.998C170.257 156.311 169.711 156.686 169.126 157.088C167.592 158.142 165.784 159.384 165.2 160.187C161.955 164.074 162.672 170.413 166.861 174.3L190.369 196.337L171.993 218.374C168.747 222.261 169.464 228.6 173.653 232.487C179.426 237.77 184.747 235.053 189.954 230.789H189.917L189.954 230.751C189.162 231.393 188.256 231.808 187.351 232.034ZM170.745 155.943L170.747 155.942C170.776 155.923 170.804 155.904 170.823 155.885C170.823 155.887 170.823 155.889 170.823 155.891C170.777 155.926 170.729 155.962 170.679 155.998C170.701 155.98 170.723 155.962 170.745 155.943Z" fill="url(#paint7_linear)"/>
<path d="M245.254 230.793C245.274 230.779 245.293 230.765 245.312 230.751C245.278 230.785 245.244 230.819 245.21 230.826C245.225 230.815 245.239 230.804 245.254 230.793Z" fill="url(#paint8_linear)"/>
<path d="M244.93 231.017C245.024 230.955 245.117 230.892 245.21 230.826C245.206 230.826 245.202 230.827 245.199 230.827L245.237 230.789C245.135 230.864 245.033 230.94 244.93 231.017Z" fill="url(#paint9_linear)"/>
<path d="M244.93 231.017C241.331 233.357 236.374 232.307 233.35 229.393L209.841 207.356L206.445 211.431C207.465 212.178 210.149 214.787 213.472 218.017C220.727 225.068 231.024 235.077 233.69 235.128C237.622 236.486 241.427 233.638 244.481 231.352C244.569 231.286 244.656 231.221 244.743 231.156C244.806 231.109 244.868 231.063 244.93 231.017Z" fill="url(#paint10_linear)"/>
<defs>
<linearGradient id="paint0_linear" x1="197.537" y1="399.072" x2="197.537" y2="-0.000183105" gradientUnits="userSpaceOnUse">
<stop stop-color="white" stop-opacity="0"/>
<stop offset="1" stop-color="white"/>
</linearGradient>
<linearGradient id="paint1_linear" x1="198.005" y1="309.996" x2="198.028" y2="84.9157" gradientUnits="userSpaceOnUse">
<stop stop-color="white" stop-opacity="0"/>
<stop offset="0.427083" stop-color="#F1F3F5"/>
<stop offset="1" stop-color="white" stop-opacity="0"/>
</linearGradient>
<linearGradient id="paint2_linear" x1="158.898" y1="147.354" x2="184.073" y2="236.297" gradientUnits="userSpaceOnUse">
<stop offset="0.1654" stop-color="#F3564C"/>
<stop offset="0.63" stop-color="#F57B74"/>
<stop offset="1" stop-color="#F3564C"/>
</linearGradient>
<linearGradient id="paint3_linear" x1="167.465" y1="257.675" x2="240.303" y2="134.426" gradientUnits="userSpaceOnUse">
<stop offset="0.000490735" stop-color="#F57B74" stop-opacity="0.81"/>
<stop offset="0.8475" stop-color="#FBC5C2"/>
</linearGradient>
<linearGradient id="paint4_linear" x1="228.804" y1="158.962" x2="185.66" y2="214.452" gradientUnits="userSpaceOnUse">
<stop offset="0.1387" stop-color="#FFF2F1"/>
<stop offset="1" stop-color="#FFE0DE"/>
</linearGradient>
<linearGradient id="paint5_linear" x1="163.165" y1="195.264" x2="245.308" y2="195.264" gradientUnits="userSpaceOnUse">
<stop stop-color="#F3564C"/>
<stop offset="0.328125" stop-color="#F57B74"/>
<stop offset="0.6721" stop-color="#F57B74"/>
</linearGradient>
<linearGradient id="paint6_linear" x1="163.165" y1="195.264" x2="245.308" y2="195.264" gradientUnits="userSpaceOnUse">
<stop stop-color="#F3564C"/>
<stop offset="0.328125" stop-color="#F57B74"/>
<stop offset="0.6721" stop-color="#F57B74"/>
</linearGradient>
<linearGradient id="paint7_linear" x1="163.165" y1="195.264" x2="245.308" y2="195.264" gradientUnits="userSpaceOnUse">
<stop stop-color="#F3564C"/>
<stop offset="0.328125" stop-color="#F57B74"/>
<stop offset="0.6721" stop-color="#F57B74"/>
</linearGradient>
<linearGradient id="paint8_linear" x1="163.165" y1="195.264" x2="245.308" y2="195.264" gradientUnits="userSpaceOnUse">
<stop stop-color="#F3564C"/>
<stop offset="0.328125" stop-color="#F57B74"/>
<stop offset="0.6721" stop-color="#F57B74"/>
</linearGradient>
<linearGradient id="paint9_linear" x1="163.165" y1="195.264" x2="245.308" y2="195.264" gradientUnits="userSpaceOnUse">
<stop stop-color="#F3564C"/>
<stop offset="0.328125" stop-color="#F57B74"/>
<stop offset="0.6721" stop-color="#F57B74"/>
</linearGradient>
<linearGradient id="paint10_linear" x1="163.165" y1="195.264" x2="245.308" y2="195.264" gradientUnits="userSpaceOnUse">
<stop stop-color="#F3564C"/>
<stop offset="0.328125" stop-color="#F57B74"/>
<stop offset="0.6721" stop-color="#F57B74"/>
</linearGradient>
</defs>
</svg>
