<svg width="122" height="28" viewBox="0 0 122 28" fill="none" xmlns="http://www.w3.org/2000/svg">
<path fill-rule="evenodd" clip-rule="evenodd" d="M0.670248 0.941567C3.70079 4.6744 7.02826 9.36398 7.56646 10.1225C7.59516 10.1629 7.61592 10.1922 7.62829 10.2095C7.91519 10.612 8.15203 10.9111 8.3319 11.1383L8.33192 11.1384C8.73122 11.6427 8.84968 11.7923 8.61143 11.9298C8.41925 12.0407 8.221 12.0772 8.02318 12.0772C7.79942 12.0772 7.54733 11.9679 7.36378 11.7912C7.23404 11.6663 6.34628 10.3578 5.13741 8.45421C4.21246 6.99766 3.43839 5.78939 3.41727 5.76916C3.36845 5.72237 3.36929 5.72395 5.0431 8.76333C6.09411 10.6719 6.81305 12.0822 6.81305 12.1724C6.81305 12.356 6.76369 12.4525 6.5406 12.705C6.16869 13.1261 6.00242 13.5992 5.88241 14.5784C5.74787 15.676 5.36954 16.4514 4.32107 17.7783C3.70734 18.5552 3.60692 18.6975 3.45205 19.0106C3.257 19.4049 3.20335 19.6257 3.18161 20.1236C3.15864 20.65 3.20339 20.9901 3.36186 21.4933C3.5006 21.9339 3.6454 22.2249 4.0156 22.8068C4.33509 23.3089 4.51905 23.6821 4.51905 23.8281C4.51905 23.9443 4.5409 23.9444 5.03596 23.831C6.22072 23.5594 7.18273 23.082 7.72378 22.4968C8.05864 22.1345 8.13726 21.9345 8.1398 21.4382C8.14148 21.1135 8.13022 21.0456 8.04375 20.8588C7.90298 20.5547 7.64671 20.302 7.08188 19.9101C6.34179 19.3966 6.02569 18.9833 5.93837 18.4148C5.86676 17.9485 5.94985 17.6193 6.35927 16.7485C6.78303 15.8471 6.88805 15.463 6.95909 14.5544C7.00496 13.9673 7.06851 13.7359 7.2347 13.5501C7.40803 13.3563 7.56405 13.2907 7.99299 13.2311C8.69229 13.1343 9.13758 12.9506 9.5036 12.6083C9.82111 12.3114 9.95399 12.0253 9.97437 11.5946L9.98985 11.2681L9.81242 11.0581C9.16984 10.2978 0.239923 0.343864 0.200379 0.343864C0.191931 0.343864 0.403381 0.612849 0.670248 0.941567ZM4.87976 20.7192C5.02505 20.458 4.94785 20.1224 4.70483 19.9584C4.47521 19.8035 4.11851 19.8765 4.11851 20.0784C4.11851 20.14 4.15208 20.1848 4.22776 20.2244C4.35516 20.2909 4.36441 20.3657 4.26417 20.5186C4.16265 20.6735 4.17083 20.8096 4.28728 20.9021C4.47495 21.0513 4.74062 20.9692 4.87976 20.7192ZM9.25268 6.47996C8.966 6.43483 8.95392 6.42954 9.08882 6.4085C9.34735 6.36815 9.9578 6.42314 10.3785 6.52466C11.3606 6.76156 12.2542 7.36846 13.2081 8.44631L13.4615 8.73266L13.8241 8.67351C15.3514 8.42442 16.9051 8.62238 18.2046 9.23163C18.5621 9.39925 19.1258 9.7329 19.1962 9.81863C19.2186 9.84596 19.2599 10.0219 19.2877 10.2095C19.3842 10.8589 19.336 11.3566 19.1402 11.7284C19.0338 11.9307 19.0278 11.9948 19.0994 12.1679C19.1565 12.3061 19.3159 12.4083 19.4737 12.4081C19.7966 12.4077 20.1442 11.8779 20.3053 11.1407L20.3692 10.8479L20.496 10.9935C21.1911 11.7929 21.7372 12.8829 21.8309 13.6588L21.8553 13.8611L21.7386 13.6772C21.5374 13.3608 21.3354 13.1453 21.0766 12.9716C20.6102 12.6584 20.117 12.5518 18.811 12.4819C17.6314 12.4188 16.9638 12.3166 16.3019 12.0975C15.1754 11.7248 14.6077 11.2285 13.2698 9.4471C12.6755 8.65585 12.3082 8.21807 11.9429 7.86552C11.1127 7.06446 10.2969 6.64435 9.25268 6.47996ZM19.4622 8.24662C19.4919 7.71641 19.5628 7.36669 19.7052 7.04732C19.7616 6.9209 19.8144 6.81743 19.8225 6.81743C19.8307 6.81743 19.8062 6.91074 19.7681 7.02477C19.6645 7.33473 19.6475 7.75867 19.7189 8.25191C19.8094 8.87776 19.8609 8.96806 20.5127 9.6441C20.8184 9.9612 21.174 10.3611 21.3029 10.5328L21.5374 10.845L21.3029 10.6219C21.0163 10.3491 20.3571 9.81694 20.2115 9.74087C20.1138 9.68986 20.0993 9.69074 20.0391 9.75157C19.9837 9.80763 19.9719 9.89186 19.9642 10.2901C19.9522 10.9107 19.8689 11.309 19.6677 11.7073C19.5589 11.9228 19.5417 11.8768 19.6402 11.6336C19.7137 11.4521 19.7212 11.3723 19.7207 10.7715C19.7195 9.56432 19.5782 9.27412 18.7501 8.77697C18.5404 8.65104 18.1946 8.46941 17.9819 8.37333C17.7694 8.27726 17.6004 8.19358 17.6065 8.18733C17.63 8.16364 18.4377 8.40288 18.7627 8.52976C19.2462 8.71853 19.326 8.743 19.3847 8.72022C19.424 8.70495 19.4431 8.58862 19.4622 8.24662ZM8.94543 7.31988C8.86748 8.25185 9.22756 9.49856 9.80954 10.3117C10.2607 10.942 10.96 11.4318 11.4763 11.4791C11.8144 11.5101 11.916 11.4027 11.763 11.1761C11.5507 10.8614 11.2896 10.3768 11.2204 10.1693C11.1775 10.0405 11.0842 9.65977 11.0131 9.32337C10.7704 8.17486 10.5317 7.7276 9.98056 7.38789C9.77971 7.26407 9.35078 7.10205 9.10201 7.05601L8.96954 7.03146L8.94543 7.31988ZM18.7564 16.3634C16.0366 15.2521 15.0786 14.2875 15.0786 12.6598C15.0786 12.4203 15.0868 12.2243 15.0967 12.2243C15.1067 12.2243 15.2118 12.3034 15.3305 12.4C15.882 12.8489 16.4996 13.0407 18.2094 13.2937C19.2154 13.4428 19.7816 13.5631 20.3039 13.7389C21.9639 14.2976 22.991 15.4314 23.2359 16.9758C23.307 17.4245 23.2653 18.266 23.15 18.7096C23.0588 19.0599 22.7808 19.6912 22.7071 19.7155C22.6867 19.7222 22.6666 19.6427 22.6614 19.5345C22.6334 18.9546 22.3447 18.3901 21.8598 17.9671C21.3084 17.4863 20.5675 17.1036 18.7564 16.3634ZM16.7156 16.2411C16.7538 16.3565 16.8129 16.6193 16.8469 16.8251C17.0648 18.1408 16.3842 19.2039 15.0604 19.6158C14.9203 19.6593 14.3682 19.7691 13.8337 19.8593C12.7515 20.0422 12.2685 20.1717 11.7834 20.4089C11.4393 20.5771 11.0227 20.8291 11.0474 20.8541C11.0554 20.8622 11.1339 20.8432 11.2219 20.8118C11.8338 20.5938 12.5147 20.4809 13.5493 20.4263C13.9599 20.4047 14.4269 20.3702 14.5871 20.3497C15.5088 20.2319 16.1477 19.9477 16.6445 19.4346C16.9209 19.149 17.0857 18.883 17.2185 18.5079C17.3026 18.27 17.314 18.1816 17.3147 17.76C17.3154 17.3305 17.3052 17.2519 17.2139 16.9876C17.0945 16.6412 16.9536 16.3813 16.7751 16.178L16.6462 16.0312L16.7156 16.2411ZM18.0938 19.0722C17.7323 18.2838 17.6494 17.5227 17.8473 16.8129C17.8686 16.737 17.9026 16.6749 17.9232 16.6749C17.9436 16.6749 18.0288 16.7217 18.1126 16.7789C18.2791 16.8926 18.6131 17.0843 19.5028 17.5765C20.6132 18.1909 21.2462 18.6665 21.6766 19.2101C22.0536 19.686 22.2869 20.2281 22.3991 20.8891C22.4628 21.2636 22.4256 22.1646 22.3309 22.5416C22.0324 23.7305 21.3386 24.6643 20.349 25.2093C20.2041 25.289 20.0739 25.3545 20.0597 25.3549C20.0457 25.3552 20.0985 25.2189 20.1771 25.0519C20.51 24.3457 20.5479 23.6587 20.2963 22.8942C20.1421 22.426 19.828 21.8548 19.1935 20.8892C18.456 19.7668 18.2751 19.468 18.0938 19.0722ZM11.287 21.658C10.1432 21.8465 8.88736 22.4608 7.87807 23.3257L7.57759 23.5832L7.84166 23.6251C9.2197 23.8434 9.59077 24.037 10.5466 25.0363C11.0967 25.6113 11.2825 25.7393 11.7388 25.8575C12.4089 26.031 13.0694 25.7121 13.296 25.1054C13.3973 24.8343 13.3838 24.3854 13.2676 24.16C12.9913 23.6233 12.1865 23.4499 11.7973 23.843C11.4731 24.1705 11.5675 24.6638 11.9707 24.7486C12.063 24.7681 12.0604 24.7639 11.9472 24.712C11.7708 24.631 11.6941 24.5188 11.6931 24.3401C11.6909 23.9212 12.1632 23.686 12.6026 23.8872C12.9244 24.0346 13.0521 24.2271 13.0521 24.5646C13.0521 25.0843 12.6163 25.4759 12.1091 25.4119C11.8379 25.3776 11.5064 25.2016 11.3286 24.9977C10.8812 24.4843 11.0555 23.6742 11.6801 23.3634C12.1556 23.1268 12.7877 23.1851 13.2778 23.5108C13.841 23.8851 14.0805 24.2272 14.5655 25.3499C14.7235 25.7155 14.9267 26.127 15.0171 26.2644C15.4766 26.9624 16.0271 27.3048 16.6902 27.3048C17.056 27.3048 17.3311 27.2369 17.6772 27.0616C17.9344 26.9312 18.299 26.6835 18.2727 26.6569C18.2653 26.6494 18.1586 26.6831 18.0356 26.7317C17.3116 27.0183 16.5756 26.9986 16.1482 26.681C15.879 26.4812 15.6619 26.083 15.5503 25.585C15.5309 25.4988 15.4672 25.1181 15.4086 24.7389C15.26 23.778 15.1173 23.346 14.7845 22.8503C14.4441 22.3431 13.7896 21.9175 13.0578 21.7274C12.6013 21.6088 11.78 21.5766 11.287 21.658ZM9.68496 14.2282C9.78375 13.8579 10.1029 13.5048 10.4312 13.4024C10.6399 13.3374 11.0714 13.3789 11.2743 13.4836C11.6675 13.6865 11.9529 14.1485 11.891 14.4821C11.8154 14.8888 11.1655 15.2143 10.4179 15.2196C10.036 15.2223 9.89499 15.1702 9.74916 14.9726C9.6589 14.8502 9.62471 14.4541 9.68496 14.2282ZM11.1739 13.6286C11.37 13.7501 11.4204 13.9298 11.3051 14.096C11.2257 14.2105 10.9799 14.3193 10.8002 14.3193C10.5303 14.3193 10.2358 14.1248 10.2358 13.9467C10.2358 13.5887 10.8005 13.3971 11.1739 13.6286ZM69.7759 14.6535C69.166 12.6152 70.1719 10.9245 72.318 10.3812C72.9335 10.2253 75.7206 10.2957 76.198 10.4792C76.3734 10.5465 76.4498 10.8046 76.4514 11.3351C76.4525 11.753 76.4979 12.2604 76.552 12.4628C76.6342 12.7695 76.5861 12.8299 76.264 12.8249C75.9726 12.8204 75.7964 12.6488 75.5503 12.1297C75.1574 11.3006 74.6816 11.0369 73.5729 11.0338C72.1574 11.0297 71.1217 11.9872 71.2903 13.1442C71.4002 13.897 72.1488 14.6378 73.8289 15.6561C75.4275 16.6248 76.3605 17.4215 76.7322 18.1352C77.7263 20.0435 76.8774 22.0855 74.6626 23.1144C73.5257 23.6425 71.6203 23.6971 70.2807 23.24L69.4228 22.9472V21.57C69.4228 20.3227 69.4524 20.1925 69.7354 20.1925C69.9721 20.1925 70.0743 20.3497 70.1573 20.8421C70.3641 22.0666 71.2902 22.8099 72.6092 22.8099C73.9013 22.8099 74.8046 22.1006 75.1506 20.8145C75.2979 20.2665 75.2725 20.0645 74.9802 19.4601C74.6299 18.7355 74.0267 18.2546 71.978 17.0671C70.8412 16.4081 70.0373 15.527 69.7759 14.6535ZM29.6151 11.1949C29.3356 11.1949 29.2265 11.1032 29.2265 10.8678C29.2265 10.5561 29.3356 10.5406 31.5261 10.5406C33.5593 10.5406 33.8195 10.5713 33.7729 10.8057C33.7437 10.9517 33.4628 11.154 33.1482 11.2556L32.5762 11.4403L32.5274 15.612C32.4947 18.3955 32.5407 20.0013 32.6654 20.4378C33.0364 21.7362 34.1678 22.4828 35.7642 22.4828C36.8756 22.4828 37.5248 22.2217 38.3405 21.4464C39.2178 20.6129 39.3577 19.821 39.3549 15.7049C39.3523 11.6449 39.2819 11.3098 38.414 11.2255C38.0191 11.1871 37.8868 11.0946 37.8868 10.8574C37.8868 10.5617 38.0171 10.5406 39.8476 10.5406C41.6994 10.5406 41.8083 10.5587 41.8083 10.8678C41.8083 11.0693 41.6985 11.1959 41.5223 11.1974C40.7656 11.2041 40.7517 11.2764 40.6498 15.7284C40.5442 20.3516 40.4455 20.899 39.5129 22.0315C39.244 22.3582 38.6026 22.8326 38.0877 23.0858C37.2487 23.4984 36.9818 23.5457 35.5174 23.5431C34.1676 23.5403 33.7414 23.4747 33.0664 23.1661C32.0812 22.7154 31.4404 22.1322 30.968 21.2558C30.6383 20.644 30.6101 20.313 30.5338 16.1681C30.4463 11.4237 30.404 11.1949 29.6151 11.1949ZM44.9053 11.1949C44.5317 11.1949 44.4227 11.121 44.4227 10.8678C44.4227 10.561 44.5271 10.5414 46.0975 10.554L47.7724 10.5674L48.5738 11.4946C49.0142 12.0046 50.4504 13.5998 51.7649 15.0393C53.0795 16.479 54.5887 18.1537 55.1186 18.761C55.6486 19.3684 56.1475 19.8653 56.2272 19.8653C56.3091 19.8653 56.3499 18.1496 56.3207 15.9247L56.2692 11.9841L55.8106 11.5895C55.5585 11.3724 55.1727 11.1949 54.9529 11.1949C54.6606 11.1949 54.5536 11.1059 54.5536 10.8632C54.5536 10.5437 54.637 10.533 56.8002 10.5769C58.6396 10.6142 59.047 10.6657 59.047 10.861C59.047 11.0003 58.8195 11.1464 58.5008 11.2116C58.2005 11.2732 57.8695 11.4086 57.7655 11.5126C57.6313 11.6469 57.5629 13.3835 57.5297 17.5012L57.4828 23.3007H57.0092C56.6015 23.3007 56.1162 22.8397 53.5217 19.988C51.864 18.1658 49.929 16.0004 49.2217 15.1758C48.5144 14.3511 47.8806 13.6701 47.8132 13.6626C47.6235 13.6413 47.6694 21.0092 47.8634 21.7086C48.0147 22.2536 48.1187 22.3474 48.7613 22.5196C49.2789 22.6582 49.4882 22.7987 49.4882 23.0075C49.4882 23.2755 49.2909 23.3007 47.2006 23.3007C45.0727 23.3007 44.913 23.2793 44.913 22.994C44.913 22.7851 45.0669 22.6565 45.3957 22.5906C46.3935 22.3909 46.4597 22.0738 46.5157 17.2271C46.5471 14.5126 46.5011 12.6133 46.394 12.2156C46.206 11.5162 45.7373 11.1949 44.9053 11.1949ZM62.0387 11.1949C61.6887 11.1949 61.5797 11.1172 61.5797 10.8678C61.5797 10.5551 61.6887 10.5406 64.0307 10.5406C66.3727 10.5406 66.4817 10.5551 66.4817 10.8678C66.4817 11.1078 66.3727 11.1949 66.0731 11.1949C65.8486 11.1949 65.5147 11.3451 65.3313 11.5287C65.0076 11.8528 64.9993 12.0139 65.0454 17.0224C65.0903 21.9117 65.1095 22.1946 65.4099 22.4144C65.5844 22.542 65.8968 22.6464 66.1044 22.6464C66.3727 22.6464 66.4817 22.7407 66.4817 22.9736C66.4817 23.2862 66.3727 23.3007 64.0307 23.3007C61.7444 23.3007 61.5797 23.2801 61.5797 22.9945C61.5797 22.7642 61.7401 22.6625 62.227 22.5845C63.194 22.4297 63.2434 22.1128 63.1831 16.4574C63.135 11.9283 63.1142 11.646 62.8148 11.4269C62.6403 11.2993 62.2911 11.1949 62.0387 11.1949ZM79.1357 11.1949C78.9121 11.1949 78.7422 11.0704 78.6892 10.8678C78.6068 10.5514 78.6844 10.5406 81.0396 10.5406C83.3663 10.5406 83.4752 10.5551 83.4752 10.8678C83.4752 11.1192 83.3662 11.1949 83.0049 11.1949C81.9763 11.1949 81.9995 11.3821 83.5563 15.6603C84.3486 17.8381 85.1181 19.9068 85.266 20.2574L85.5348 20.895L86.7828 17.5581C88.2519 13.6304 88.4428 12.904 88.1933 12.1876C88.0194 11.6883 87.3433 11.1949 86.8331 11.1949C86.6889 11.1949 86.5798 11.0543 86.5798 10.8678C86.5798 10.5546 86.6889 10.5406 89.1126 10.5406C91.5363 10.5406 91.6452 10.5546 91.6452 10.8678C91.6452 11.1006 91.5363 11.1949 91.268 11.1949C90.581 11.1949 90.2781 11.5617 90.3768 12.2743C90.4784 13.0079 93.2887 20.8918 93.4066 20.7738C93.5983 20.582 96.7106 12.0949 96.7106 11.7641C96.7106 11.3677 96.4336 11.1949 95.7985 11.1949C95.5124 11.1949 95.4034 11.1048 95.4034 10.8678C95.4034 10.5587 95.5124 10.5406 97.3643 10.5406C99.0274 10.5406 99.325 10.5792 99.325 10.7945C99.325 10.9342 99.1213 11.1195 98.8722 11.2064C98.3121 11.4019 98.1714 11.625 97.4688 13.4325C97.1603 14.2263 96.1946 16.7104 95.3227 18.9526C94.451 21.195 93.7001 23.1275 93.6544 23.247C93.6085 23.3666 93.3383 23.4643 93.0537 23.4643H92.5366L91.3629 20.397C90.7172 18.7101 89.9545 16.7114 89.6681 15.9557C89.177 14.6606 89.1358 14.6044 88.9511 14.974C88.8433 15.19 88.0678 17.1922 87.2275 19.4234L85.7001 23.4803L85.13 23.4314L84.5599 23.3826L82.3855 17.6696C81.1708 14.4778 80.0537 11.7884 79.854 11.5758C79.6574 11.3662 79.3342 11.1949 79.1357 11.1949ZM111.808 11.2643C111.78 11.2022 111.781 10.9788 111.781 10.9788C111.781 10.9788 111.774 10.8983 111.808 10.8553C111.842 10.8125 111.853 10.8113 111.974 10.7999L111.975 10.7998C112.416 10.7576 113.301 10.6866 114.04 10.6543C114.107 10.6513 114.183 10.6479 114.264 10.6441L114.266 10.6441L114.267 10.644L114.268 10.644C115.081 10.6069 116.535 10.5574 117.535 10.6076C119.454 10.7039 120.818 11.6356 121.283 13.1753C121.748 14.7149 121.502 16.1601 120.869 17.0801C120.235 18 119.169 18.7921 117.397 18.7405C115.935 18.698 115.543 18.4228 115.231 18.203C115.165 18.1566 115.102 18.1125 115.034 18.0738V20.0372C115.049 21.3763 115.06 22.0195 115.164 22.2575C115.303 22.578 115.617 22.7755 116.229 22.9268C116.229 22.9268 116.506 22.9921 116.578 23.0617C116.649 23.1313 116.649 23.2858 116.649 23.2858C116.649 23.2858 116.664 23.4303 116.607 23.504C116.549 23.5776 116.438 23.5629 116.438 23.5629L113.726 23.5409L112.091 23.5366C112.091 23.5366 111.919 23.5696 111.855 23.5003C111.791 23.4308 111.797 23.2862 111.797 23.2862C111.797 23.2862 111.811 23.1304 111.886 23.0607C111.961 22.9908 112.24 22.9129 112.24 22.9129C112.871 22.735 113.144 22.5468 113.287 22.1923C113.402 21.9065 113.403 21.3765 113.402 17.0512C113.401 12.9495 113.395 12.1844 113.301 11.9643C113.163 11.6386 112.816 11.5523 112.322 11.4294L112.321 11.4293C112.224 11.405 112.12 11.3792 112.011 11.3498C112.011 11.3498 111.835 11.3265 111.808 11.2643ZM119.705 14.6112C119.705 15.2838 119.693 16.3369 118.98 17.01C118.268 17.6831 116.864 17.8673 115.912 17.6799C115.612 17.6209 115.44 17.5298 115.308 17.4596L115.294 17.4526L115.051 17.3236L115.036 14.9604C115.028 13.4798 115.043 12.5151 115.078 12.3772C115.11 11.5964 116.256 11.4993 116.816 11.5282C119.212 11.5282 119.635 13.5566 119.705 14.6112ZM104.284 10.6322C104.284 10.6322 104.167 10.6773 103.989 10.7449L103.35 11.0769L102.889 12.2325C102.636 12.8681 102.172 14.0348 101.859 14.8252C101.289 16.2649 100.912 17.2107 100.516 18.198C100.399 18.4884 100.047 19.3726 99.7336 20.1631C99.4201 20.9534 99.1067 21.7056 99.0371 21.8346C99.0255 21.856 99.0133 21.8792 99.0004 21.9035C98.8251 22.2347 98.5204 22.8099 97.9824 22.8969C97.9824 22.8969 97.6867 22.9261 97.5771 23.0348C97.4675 23.1436 97.4781 23.2325 97.4781 23.2325V23.3695C97.4781 23.3695 97.4881 23.4359 97.5502 23.4689C97.6122 23.502 97.6963 23.504 97.6963 23.504L99.6641 23.4815H101.698C101.698 23.4815 101.842 23.4984 101.897 23.4521C101.953 23.4059 101.968 23.3374 101.968 23.3374V23.1931C101.968 23.1931 101.94 23.0367 101.859 22.9756C101.779 22.9147 101.477 22.8729 101.477 22.8729C100.663 22.7653 100.522 22.1466 100.623 21.5902C100.672 21.3168 101 20.3055 101.368 19.2874L101.496 18.9356L103.627 18.9192C104.799 18.9102 105.811 18.9163 105.876 18.9328C105.968 18.9563 106.098 19.2205 106.478 20.1617C107.054 21.5876 107.1 21.7613 106.973 22.0281C106.965 22.0444 106.957 22.0623 106.948 22.0816C106.828 22.3396 106.596 22.8409 106.01 22.8919C106.01 22.8919 105.699 22.9027 105.622 22.996C105.545 23.0895 105.561 23.1969 105.561 23.1969V23.3396C105.561 23.3396 105.582 23.4233 105.622 23.4565C105.662 23.4896 105.729 23.4812 105.729 23.4812L107.664 23.4673L110.383 23.4671C110.383 23.4671 110.49 23.4786 110.519 23.4374C110.548 23.3961 110.554 23.3476 110.554 23.3476V23.1581C110.554 23.1581 110.542 23.0572 110.49 23.0016C110.437 22.9461 110.085 22.8875 110.085 22.8875C109.634 22.8145 109.41 22.4409 109.243 22.1627C109.2 22.0917 109.161 22.027 109.123 21.975C109.046 21.869 108.769 21.288 108.553 20.7291C108.336 20.1703 107.848 18.9079 107.467 17.924C107.087 16.94 106.555 15.5674 106.287 14.8738C106.018 14.1802 105.508 12.8604 105.153 11.9409C105.095 11.79 105.042 11.6545 104.995 11.5331L104.995 11.5326C104.757 10.9151 104.661 10.6659 104.635 10.6322C104.549 10.5227 104.284 10.6322 104.284 10.6322ZM104.157 14.3895C104.071 14.1799 103.92 13.8038 103.821 13.5538C103.642 13.0993 103.574 12.9947 103.518 13.0885C103.502 13.116 103.389 13.4266 103.267 13.7788C102.479 16.0593 102.122 17.0862 102.05 17.2797C102.005 17.4013 101.968 17.5266 101.968 17.5583C101.968 17.5946 102.61 17.6158 103.709 17.6158C104.666 17.6158 105.449 17.6038 105.449 17.5892C105.449 17.5746 105.364 17.357 105.259 17.1053C105.155 16.8537 104.899 16.2255 104.691 15.7093C104.484 15.1932 104.243 14.5993 104.157 14.3895Z" fill="#FF007A"/>
</svg>
