<svg width="54" height="54" viewBox="0 0 54 54" fill="none" xmlns="http://www.w3.org/2000/svg">
<rect x="1.5" y="1.5" width="51" height="51" rx="25.5" fill="#F9F9FB" stroke="white" stroke-width="3"/>
<mask id="mask0" mask-type="alpha" maskUnits="userSpaceOnUse" x="3" y="3" width="48" height="48">
<rect x="4.3125" y="4.3125" width="45.375" height="45.375" rx="22.6875" fill="#F9F9FB" stroke="#333333" stroke-width="2.625"/>
</mask>
<g mask="url(#mask0)">
<path opacity="0.25" d="M58.9999 20.319H35.7319C35.0337 20.319 34.4152 19.8687 34.2007 19.2042L27.0328 -3L19.8014 19.207C19.5855 19.87 18.9671 20.3185 18.2699 20.3179L-5.00009 20.2956L13.8422 33.6184C14.4192 34.0265 14.6625 34.7633 14.4418 35.4347L7.24071 57.3429L26.0924 43.7759C26.6541 43.3717 27.4114 43.3719 27.9729 43.7765L46.8013 57.3429L39.6221 35.433C39.4024 34.7624 39.6453 34.0268 40.2212 33.6189L58.9999 20.319Z" fill="url(#paint0_linear)"/>
<path d="M39.5455 23.2746H30.4196C30.1483 23.2746 29.9083 23.0991 29.826 22.8406L27.0129 14L24.1749 22.8417C24.0921 23.0996 23.8521 23.2744 23.5812 23.2742L14.4546 23.2653L21.8525 28.572C22.0727 28.73 22.1655 29.0122 22.082 29.2701L19.2535 38L26.6454 32.6032C26.8643 32.4434 27.1614 32.4435 27.3803 32.6034L34.7631 38L31.9432 29.2694C31.86 29.0119 31.9527 28.7301 32.1725 28.5722L39.5455 23.2746Z" fill="#758698"/>
</g>
<defs>
<linearGradient id="paint0_linear" x1="14.6578" y1="9.1659" x2="41.287" y2="47.9695" gradientUnits="userSpaceOnUse">
<stop offset="0.239583" stop-color="#758698" stop-opacity="0.35"/>
<stop offset="1" stop-color="#D9DDE3" stop-opacity="0"/>
</linearGradient>
</defs>
</svg>
